{
.appVersion = "1192";
DisplayStrings = (
"Space Mono\012ABCDEFGHIJKLMNOPQRSTUVWXYZ\012abcdefghijklmnopqrstuvwxyz\0120123456789 &",
"/I.rvrn1/M.rvrn3/W.rvrn3/i.rvrn1/j.rvrn1/l.rvrn1/Ae.rvrn3/ae.rvrn3/m.rvrn3/OE.rvrn3/oe.rvrn3/w.rvrn3/one.rvrn1/zero.rvrn3/period.rvrn1/exclamdown.rvrn1/bullet.rvrn1/asterisk.rvrn1/slash.rvrn1/backslash.rvrn1/parenleft.rvrn1/braceleft.rvrn1/bracketleft.rvrn1/hyphen.rvrn1/emdash.rvrn3/quotesingle.rvrn1/space.rvrn1/bar.rvrn1/brokenbar.rvrn1/at.rvrn3 \012IMWijlÆæm/OE/oe w10.¡/bullet *///backslash ({[-/emdash ' |@\012rDNO\012rDNO\012\012nonononononononononononono\012Indigo /I.rvrn1 nd/i.rvrn1 go\012ononononononononononononon\012Willow /W.rvrn3/i.rvrn1/l.rvrn1/l.rvrn1 o/w.rvrn3 \012nonononononononononononono\012M/OE URS m/oe urs /M.rvrn3 O/OE.rvrn3 URS/space.rvrn1/m.rvrn3/oe.rvrn3 urs\012ononononononononononononon\012/backslash 12//05//18/backslash  /backslash.rvrn1/one.rvrn1 2/slash.rvrn1/zero.rvrn3 5/slash.rvrn1/one.rvrn1 8/backslash.rvrn1 \012nonononononononononononono\012Dozen Dozen\012ononononononononononononon\012DOMINATION DO/M.rvrn3/I.rvrn1 NAT/I.rvrn1 ON",
"aàáâãä/amacron/abreve å/uni01CE/aogonek/uni1EA1/uni1EA3/uni1EA5/uni1EA7/uni1EA9/uni1EAB/uni1EAD/uni1EAF/uni1EB1/uni1EB3/uni1EB5/uni1EB7",

glyphs = (
{
glyphname = A;
lastChange = "2019-01-23 17:14:56 +0000";
layers = (
{
layerId = "FBAFFF81-1F8B-4B58-9158-C4AF3F48F88C";
paths = (
{
closed = 1;
nodes = (
"1194 0 LINE",
"770 1400 LINE",
"454 1400 LINE",
"30 0 LINE",
"210 0 LINE",
"312 348 LINE",
"912 348 LINE",
"1014 0 LINE"
);
},
{
closed = 1;
nodes = (
"866 504 LINE",
"358 504 LINE",
"600 1328 LINE",
"624 1328 LINE"
);
}
);
width = 1224;
},
{
layerId = "50C9B437-FF28-4DF4-B0E6-290519DD406F";
paths = (
{
closed = 1;
nodes = (
"1194 0 LINE",
"860 1400 LINE",
"364 1400 LINE",
"30 0 LINE",
"306 0 LINE",
"374 300 LINE",
"850 300 LINE",
"918 0 LINE"
);
},
{
closed = 1;
nodes = (
"792 552 LINE",
"430 552 LINE",
"594 1268 LINE",
"630 1268 LINE"
);
}
);
width = 1224;
},
{
layerId = "6008D70E-46A9-43E5-86AA-D196D19196A4";
paths = (
{
closed = 1;
nodes = (
"1030 0 LINE",
"930 1400 LINE",
"610 1400 LINE",
"-84 0 LINE",
"106 0 LINE",
"276 348 LINE",
"838 348 LINE",
"860 0 LINE"
);
},
{
closed = 1;
nodes = (
"828 504 LINE",
"352 504 LINE",
"752 1326 LINE",
"776 1326 LINE"
);
}
);
width = 1224;
},
{
layerId = "612FA678-EA3C-4672-88DD-29ED08259473";
paths = (
{
closed = 1;
nodes = (
"1042 0 LINE",
"1008 1400 LINE",
"520 1400 LINE",
"-96 0 LINE",
"186 0 LINE",
"314 300 LINE",
"776 300 LINE",
"780 0 LINE"
);
},
{
closed = 1;
nodes = (
"772 552 LINE",
"420 552 LINE",
"726 1268 LINE",
"762 1268 LINE"
);
}
);
width = 1224;
},
{
associatedMasterId = "FBAFFF81-1F8B-4B58-9158-C4AF3F48F88C";
layerId = "B1F584AF-557B-49FE-89BC-822BB8C63117";
name = A;
paths = (
{
closed = 1;
nodes = (
"1194 0 LINE",
"770 1400 LINE",
"454 1400 LINE",
"30 0 LINE",
"210 0 LINE",
"312 348 LINE",
"912 348 LINE",
"1014 0 LINE"
);
},
{
closed = 1;
nodes = (
"866 504 LINE",
"358 504 LINE",
"600 1328 LINE",
"624 1328 LINE"
);
}
);
width = 1224;
},
{
associatedMasterId = "6008D70E-46A9-43E5-86AA-D196D19196A4";
layerId = "DE090EEE-3921-4E02-9B74-645BB457E093";
name = B;
paths = (
{
closed = 1;
nodes = (
"1030 0 LINE",
"930 1400 LINE",
"610 1400 LINE",
"-84 0 LINE",
"106 0 LINE",
"276 348 LINE",
"838 348 LINE",
"860 0 LINE"
);
},
{
closed = 1;
nodes = (
"828 504 LINE",
"352 504 LINE",
"752 1326 LINE",
"776 1326 LINE"
);
}
);
width = 1224;
},
{
associatedMasterId = "6008D70E-46A9-43E5-86AA-D196D19196A4";
layerId = "21F03F42-0743-4CF8-B7FA-6CCD9EE776E2";
name = HOI;
paths = (
{
closed = 1;
nodes = (
"1030 0 LINE",
"930 1400 LINE",
"610 1400 LINE",
"-84 0 LINE",
"106 0 LINE",
"276 348 LINE",
"838 348 LINE",
"860 0 LINE"
);
},
{
closed = 1;
nodes = (
"828 504 LINE",
"352 504 LINE",
"752 1326 LINE",
"776 1326 LINE"
);
}
);
width = 1224;
}
);
unicode = 0041;
},
{
glyphname = B;
lastChange = "2019-01-23 17:14:56 +0000";
layers = (
{
layerId = "FBAFFF81-1F8B-4B58-9158-C4AF3F48F88C";
paths = (
{
closed = 1;
nodes = (
"680 0 LINE SMOOTH",
"948 0 OFFCURVE",
"1094 156 OFFCURVE",
"1094 366 CURVE SMOOTH",
"1094 390 LINE SMOOTH",
"1094 540 OFFCURVE",
"990 654 OFFCURVE",
"858 690 CURVE",
"858 714 LINE",
"990 750 OFFCURVE",
"1094 860 OFFCURVE",
"1094 1012 CURVE SMOOTH",
"1094 1036 LINE SMOOTH",
"1094 1244 OFFCURVE",
"948 1400 OFFCURVE",
"680 1400 CURVE SMOOTH",
"114 1400 LINE",
"114 1244 LINE",
"234 1244 LINE",
"234 156 LINE",
"114 156 LINE",
"114 0 LINE"
);
},
{
closed = 1;
nodes = (
"402 624 LINE",
"674 624 LINE SMOOTH",
"834 624 OFFCURVE",
"934 532 OFFCURVE",
"934 390 CURVE SMOOTH",
"934 378 LINE SMOOTH",
"934 240 OFFCURVE",
"824 156 OFFCURVE",
"668 156 CURVE SMOOTH",
"402 156 LINE"
);
},
{
closed = 1;
nodes = (
"402 1244 LINE",
"668 1244 LINE SMOOTH",
"824 1244 OFFCURVE",
"934 1160 OFFCURVE",
"934 1024 CURVE SMOOTH",
"934 1012 LINE SMOOTH",
"934 868 OFFCURVE",
"834 780 OFFCURVE",
"674 780 CURVE SMOOTH",
"402 780 LINE"
);
}
);
width = 1224;
},
{
layerId = "50C9B437-FF28-4DF4-B0E6-290519DD406F";
paths = (
{
closed = 1;
nodes = (
"706 0 LINE SMOOTH",
"974 0 OFFCURVE",
"1120 156 OFFCURVE",
"1120 366 CURVE SMOOTH",
"1120 390 LINE SMOOTH",
"1120 548 OFFCURVE",
"1020 648 OFFCURVE",
"884 684 CURVE",
"884 720 LINE",
"1020 756 OFFCURVE",
"1120 852 OFFCURVE",
"1120 1012 CURVE SMOOTH",
"1120 1036 LINE SMOOTH",
"1120 1244 OFFCURVE",
"974 1400 OFFCURVE",
"706 1400 CURVE SMOOTH",
"92 1400 LINE",
"92 1148 LINE",
"224 1148 LINE",
"224 252 LINE",
"92 252 LINE",
"92 0 LINE"
);
},
{
closed = 1;
nodes = (
"488 576 LINE",
"680 576 LINE SMOOTH",
"792 576 OFFCURVE",
"868 530 OFFCURVE",
"868 420 CURVE SMOOTH",
"868 408 LINE SMOOTH",
"868 298 OFFCURVE",
"792 252 OFFCURVE",
"680 252 CURVE SMOOTH",
"488 252 LINE"
);
},
{
closed = 1;
nodes = (
"488 1148 LINE",
"680 1148 LINE SMOOTH",
"792 1148 OFFCURVE",
"868 1104 OFFCURVE",
"868 994 CURVE SMOOTH",
"868 982 LINE SMOOTH",
"868 872 OFFCURVE",
"792 828 OFFCURVE",
"680 828 CURVE SMOOTH",
"488 828 LINE"
);
}
);
width = 1224;
},
{
layerId = "6008D70E-46A9-43E5-86AA-D196D19196A4";
paths = (
{
closed = 1;
nodes = (
"512 0 LINE SMOOTH",
"800 0 OFFCURVE",
"1012 180 OFFCURVE",
"1012 438 CURVE",
"1012 438 LINE",
"1012 556 OFFCURVE",
"946 658 OFFCURVE",
"836 690 CURVE",
"836 714 LINE",
"1030 756 OFFCURVE",
"1150 908 OFFCURVE",
"1150 1070 CURVE",
"1150 1070 LINE",
"1150 1262 OFFCURVE",
"1028 1400 OFFCURVE",
"786 1400 CURVE SMOOTH",
"234 1400 LINE",
"234 1244 LINE",
"366 1244 LINE",
"136 156 LINE",
"4 156 LINE",
"4 0 LINE"
);
},
{
closed = 1;
nodes = (
"402 624 LINE",
"638 624 LINE SMOOTH",
"772 624 OFFCURVE",
"856 554 OFFCURVE",
"856 432 CURVE",
"856 432 LINE",
"856 270 OFFCURVE",
"712 156 OFFCURVE",
"534 156 CURVE SMOOTH",
"304 156 LINE"
);
},
{
closed = 1;
nodes = (
"534 1244 LINE",
"764 1244 LINE SMOOTH",
"904 1244 OFFCURVE",
"986 1174 OFFCURVE",
"986 1064 CURVE",
"986 1064 LINE",
"986 884 OFFCURVE",
"834 780 OFFCURVE",
"672 780 CURVE SMOOTH",
"436 780 LINE"
);
}
);
width = 1224;
},
{
layerId = "612FA678-EA3C-4672-88DD-29ED08259473";
paths = (
{
closed = 1;
nodes = (
"548 0 LINE SMOOTH",
"836 0 OFFCURVE",
"1044 186 OFFCURVE",
"1044 420 CURVE SMOOTH",
"1044 420 LINE SMOOTH",
"1044 568 OFFCURVE",
"970 648 OFFCURVE",
"864 680 CURVE",
"864 716 LINE",
"1038 758 OFFCURVE",
"1182 874 OFFCURVE",
"1182 1074 CURVE SMOOTH",
"1182 1074 LINE SMOOTH",
"1182 1256 OFFCURVE",
"1060 1400 OFFCURVE",
"792 1400 CURVE SMOOTH",
"194 1400 LINE",
"194 1148 LINE",
"326 1148 LINE",
"136 252 LINE",
"4 252 LINE",
"4 0 LINE"
);
},
{
closed = 1;
nodes = (
"464 576 LINE",
"636 576 LINE SMOOTH",
"734 576 OFFCURVE",
"796 536 OFFCURVE",
"796 438 CURVE SMOOTH",
"796 438 LINE SMOOTH",
"796 318 OFFCURVE",
"698 252 OFFCURVE",
"568 252 CURVE SMOOTH",
"396 252 LINE"
);
},
{
closed = 1;
nodes = (
"586 1148 LINE",
"758 1148 LINE SMOOTH",
"856 1148 OFFCURVE",
"916 1102 OFFCURVE",
"916 1014 CURVE SMOOTH",
"916 1014 LINE SMOOTH",
"916 892 OFFCURVE",
"828 828 OFFCURVE",
"690 828 CURVE SMOOTH",
"518 828 LINE"
);
}
);
width = 1224;
}
);
unicode = 0042;
userData = {
com.typemytype.robofont.guides = (
{
angle = 0;
isGlobal = 0;
magnetic = 5;
x = 0;
y = 350;
},
{
angle = 0;
isGlobal = 0;
magnetic = 5;
x = 0;
y = 506;
},
{
angle = 0;
isGlobal = 0;
magnetic = 5;
x = 0;
y = 195;
}
);
};
},
{
color = 5;
glyphname = C;
lastChange = "2019-01-23 17:14:56 +0000";
layers = (
{
layerId = "FBAFFF81-1F8B-4B58-9158-C4AF3F48F88C";
paths = (
{
closed = 1;
nodes = (
"940 -28 OFFCURVE",
"1112 196 OFFCURVE",
"1112 480 CURVE SMOOTH",
"1112 504 LINE",
"944 504 LINE",
"944 480 LINE SMOOTH",
"944 296 OFFCURVE",
"848 128 OFFCURVE",
"620 128 CURVE SMOOTH",
"404 128 OFFCURVE",
"296 284 OFFCURVE",
"296 556 CURVE SMOOTH",
"296 844 LINE SMOOTH",
"296 1100 OFFCURVE",
"404 1272 OFFCURVE",
"620 1272 CURVE SMOOTH",
"848 1272 OFFCURVE",
"944 1104 OFFCURVE",
"944 920 CURVE SMOOTH",
"944 896 LINE",
"1112 896 LINE",
"1112 920 LINE SMOOTH",
"1112 1204 OFFCURVE",
"940 1428 OFFCURVE",
"620 1428 CURVE SMOOTH",
"312 1428 OFFCURVE",
"128 1216 OFFCURVE",
"128 856 CURVE SMOOTH",
"128 544 LINE SMOOTH",
"128 172 OFFCURVE",
"312 -28 OFFCURVE",
"620 -28 CURVE SMOOTH"
);
}
);
width = 1224;
},
{
layerId = "50C9B437-FF28-4DF4-B0E6-290519DD406F";
paths = (
{
closed = 1;
nodes = (
"948 -28 OFFCURVE",
"1128 160 OFFCURVE",
"1128 492 CURVE SMOOTH",
"1128 528 LINE",
"864 528 LINE",
"864 492 LINE SMOOTH",
"864 348 OFFCURVE",
"820 212 OFFCURVE",
"616 212 CURVE SMOOTH",
"428 212 OFFCURVE",
"360 342 OFFCURVE",
"360 524 CURVE SMOOTH",
"360 876 LINE SMOOTH",
"360 1044 OFFCURVE",
"440 1188 OFFCURVE",
"616 1188 CURVE SMOOTH",
"808 1188 OFFCURVE",
"864 1040 OFFCURVE",
"864 908 CURVE SMOOTH",
"864 872 LINE",
"1128 872 LINE",
"1128 908 LINE SMOOTH",
"1128 1228 OFFCURVE",
"948 1428 OFFCURVE",
"616 1428 CURVE SMOOTH",
"296 1428 OFFCURVE",
"96 1216 OFFCURVE",
"96 856 CURVE SMOOTH",
"96 544 LINE SMOOTH",
"96 172 OFFCURVE",
"296 -28 OFFCURVE",
"616 -28 CURVE SMOOTH"
);
}
);
width = 1224;
},
{
background = {
paths = (
{
closed = 1;
nodes = (
"324 128 OFFCURVE",
"246 216 OFFCURVE",
"246 394 CURVE SMOOTH",
"246 442 OFFCURVE",
"254 496 OFFCURVE",
"266 556 CURVE SMOOTH",
"328 844 LINE SMOOTH",
"382 1100 OFFCURVE",
"526 1276 OFFCURVE",
"738 1276 CURVE SMOOTH",
"918 1276 OFFCURVE",
"996 1184 OFFCURVE",
"996 1044 CURVE SMOOTH",
"996 1006 OFFCURVE",
"992 970 OFFCURVE",
"980 920 CURVE SMOOTH",
"974 896 LINE",
"1142 896 LINE",
"1148 920 LINE SMOOTH",
"1160 968 OFFCURVE",
"1166 1012 OFFCURVE",
"1166 1056 CURVE SMOOTH",
"1166 1272 OFFCURVE",
"1020 1428 OFFCURVE",
"764 1428 CURVE SMOOTH",
"440 1428 OFFCURVE",
"242 1232 OFFCURVE",
"162 856 CURVE SMOOTH",
"96 544 LINE SMOOTH",
"82 476 OFFCURVE",
"76 412 OFFCURVE",
"76 356 CURVE SMOOTH",
"76 128 OFFCURVE",
"216 -28 OFFCURVE",
"476 -28 CURVE SMOOTH",
"828 -28 OFFCURVE",
"974 158 OFFCURVE",
"1054 480 CURVE SMOOTH",
"1060 504 LINE",
"892 504 LINE",
"886 480 LINE SMOOTH",
"834 272 OFFCURVE",
"728 128 OFFCURVE",
"496 128 CURVE SMOOTH"
);
}
);
};
layerId = "6008D70E-46A9-43E5-86AA-D196D19196A4";
paths = (
{
closed = 1;
nodes = (
"828 -28 OFFCURVE",
"974 158 OFFCURVE",
"1054 480 CURVE SMOOTH",
"1060 504 LINE",
"892 504 LINE",
"886 480 LINE SMOOTH",
"834 272 OFFCURVE",
"728 128 OFFCURVE",
"496 128 CURVE SMOOTH",
"264 128 OFFCURVE",
"210 296 OFFCURVE",
"266 556 CURVE SMOOTH",
"328 844 LINE SMOOTH",
"382 1100 OFFCURVE",
"526 1276 OFFCURVE",
"738 1276 CURVE SMOOTH",
"956 1276 OFFCURVE",
"1034 1140 OFFCURVE",
"980 920 CURVE SMOOTH",
"974 896 LINE",
"1142 896 LINE",
"1148 920 LINE SMOOTH",
"1222 1214 OFFCURVE",
"1062 1428 OFFCURVE",
"764 1428 CURVE SMOOTH",
"440 1428 OFFCURVE",
"242 1232 OFFCURVE",
"162 856 CURVE SMOOTH",
"96 544 LINE SMOOTH",
"18 178 OFFCURVE",
"172 -28 OFFCURVE",
"476 -28 CURVE SMOOTH"
);
}
);
width = 1224;
},
{
background = {
paths = (
{
closed = 1;
nodes = (
"834 -28 OFFCURVE",
"1004 146 OFFCURVE",
"1080 492 CURVE SMOOTH",
"1088 528 LINE",
"824 528 LINE",
"816 492 LINE SMOOTH",
"784 352 OFFCURVE",
"710 212 OFFCURVE",
"510 212 CURVE SMOOTH",
"364 212 OFFCURVE",
"306 290 OFFCURVE",
"306 410 CURVE SMOOTH",
"306 444 OFFCURVE",
"312 484 OFFCURVE",
"320 524 CURVE SMOOTH",
"394 876 LINE SMOOTH",
"430 1044 OFFCURVE",
"540 1188 OFFCURVE",
"716 1188 CURVE SMOOTH",
"866 1188 OFFCURVE",
"918 1104 OFFCURVE",
"918 1000 CURVE SMOOTH",
"918 970 OFFCURVE",
"914 940 OFFCURVE",
"906 908 CURVE SMOOTH",
"898 872 LINE",
"1162 872 LINE",
"1170 908 LINE SMOOTH",
"1178 948 OFFCURVE",
"1184 984 OFFCURVE",
"1184 1022 CURVE SMOOTH",
"1184 1248 OFFCURVE",
"1026 1428 OFFCURVE",
"758 1428 CURVE SMOOTH",
"422 1428 OFFCURVE",
"208 1240 OFFCURVE",
"126 856 CURVE SMOOTH",
"60 544 LINE SMOOTH",
"48 484 OFFCURVE",
"42 438 OFFCURVE",
"42 390 CURVE SMOOTH",
"42 126 OFFCURVE",
"214 -28 OFFCURVE",
"466 -28 CURVE SMOOTH"
);
}
);
};
layerId = "612FA678-EA3C-4672-88DD-29ED08259473";
paths = (
{
closed = 1;
nodes = (
"834 -28 OFFCURVE",
"1004 146 OFFCURVE",
"1080 492 CURVE SMOOTH",
"1088 528 LINE",
"824 528 LINE",
"816 492 LINE SMOOTH",
"784 352 OFFCURVE",
"710 212 OFFCURVE",
"510 212 CURVE SMOOTH",
"328 212 OFFCURVE",
"280 330 OFFCURVE",
"320 524 CURVE SMOOTH",
"394 876 LINE SMOOTH",
"430 1044 OFFCURVE",
"540 1188 OFFCURVE",
"716 1188 CURVE SMOOTH",
"890 1188 OFFCURVE",
"944 1076 OFFCURVE",
"906 908 CURVE SMOOTH",
"898 872 LINE",
"1162 872 LINE",
"1170 908 LINE SMOOTH",
"1238 1210 OFFCURVE",
"1044 1428 OFFCURVE",
"758 1428 CURVE SMOOTH",
"422 1428 OFFCURVE",
"208 1240 OFFCURVE",
"126 856 CURVE SMOOTH",
"60 544 LINE SMOOTH",
"-14 198 OFFCURVE",
"156 -28 OFFCURVE",
"466 -28 CURVE SMOOTH"
);
}
);
width = 1224;
}
);
unicode = 0043;
},
{
color = 5;
glyphname = D;
lastChange = "2019-01-23 17:14:56 +0000";
layers = (
{
layerId = "FBAFFF81-1F8B-4B58-9158-C4AF3F48F88C";
paths = (
{
closed = 1;
nodes = (
"606 0 LINE SMOOTH",
"950 0 OFFCURVE",
"1106 160 OFFCURVE",
"1106 520 CURVE SMOOTH",
"1106 880 LINE SMOOTH",
"1106 1240 OFFCURVE",
"950 1400 OFFCURVE",
"606 1400 CURVE SMOOTH",
"146 1400 LINE",
"146 1244 LINE",
"266 1244 LINE",
"266 158 LINE",
"146 158 LINE",
"146 0 LINE"
);
},
{
closed = 1;
nodes = (
"434 1244 LINE",
"582 1244 LINE SMOOTH",
"826 1244 OFFCURVE",
"938 1160 OFFCURVE",
"938 868 CURVE SMOOTH",
"938 532 LINE SMOOTH",
"938 240 OFFCURVE",
"826 156 OFFCURVE",
"582 156 CURVE SMOOTH",
"434 156 LINE"
);
}
);
width = 1224;
},
{
layerId = "50C9B437-FF28-4DF4-B0E6-290519DD406F";
paths = (
{
closed = 1;
nodes = (
"600 0 LINE SMOOTH",
"944 0 OFFCURVE",
"1112 160 OFFCURVE",
"1112 496 CURVE SMOOTH",
"1112 904 LINE SMOOTH",
"1112 1240 OFFCURVE",
"944 1400 OFFCURVE",
"600 1400 CURVE SMOOTH",
"92 1400 LINE",
"92 1148 LINE",
"224 1148 LINE",
"224 254 LINE",
"92 254 LINE",
"92 0 LINE"
);
},
{
closed = 1;
nodes = (
"488 1148 LINE",
"600 1148 LINE SMOOTH",
"784 1148 OFFCURVE",
"848 1064 OFFCURVE",
"848 904 CURVE SMOOTH",
"848 520 LINE SMOOTH",
"848 336 OFFCURVE",
"784 252 OFFCURVE",
"600 252 CURVE SMOOTH",
"488 252 LINE"
);
}
);
width = 1224;
},
{
background = {
paths = (
{
closed = 1;
nodes = (
"454 0 LINE SMOOTH",
"834 0 OFFCURVE",
"966 140 OFFCURVE",
"1048 520 CURVE SMOOTH",
"1124 868 LINE SMOOTH",
"1136 926 OFFCURVE",
"1144 980 OFFCURVE",
"1144 1030 CURVE SMOOTH",
"1144 1268 OFFCURVE",
"998 1400 OFFCURVE",
"716 1400 CURVE SMOOTH",
"230 1400 LINE",
"230 1244 LINE",
"362 1244 LINE",
"132 156 LINE",
"0 156 LINE",
"0 0 LINE"
);
},
{
closed = 1;
nodes = (
"530 1244 LINE",
"682 1244 LINE SMOOTH",
"876 1244 OFFCURVE",
"972 1190 OFFCURVE",
"972 1020 CURVE SMOOTH",
"972 978 OFFCURVE",
"968 936 OFFCURVE",
"954 868 CURVE SMOOTH",
"884 532 LINE SMOOTH",
"824 240 OFFCURVE",
"700 156 OFFCURVE",
"452 156 CURVE",
"300 156 LINE"
);
}
);
};
layerId = "6008D70E-46A9-43E5-86AA-D196D19196A4";
paths = (
{
closed = 1;
nodes = (
"454 0 LINE SMOOTH",
"834 0 OFFCURVE",
"966 140 OFFCURVE",
"1048 520 CURVE SMOOTH",
"1124 868 LINE SMOOTH",
"1202 1222 OFFCURVE",
"1044 1400 OFFCURVE",
"716 1400 CURVE SMOOTH",
"230 1400 LINE",
"230 1244 LINE",
"362 1244 LINE",
"132 156 LINE",
"0 156 LINE",
"0 0 LINE"
);
},
{
closed = 1;
nodes = (
"530 1244 LINE",
"682 1244 LINE SMOOTH",
"942 1244 OFFCURVE",
"1010 1142 OFFCURVE",
"954 868 CURVE SMOOTH",
"884 532 LINE SMOOTH",
"824 240 OFFCURVE",
"700 156 OFFCURVE",
"452 156 CURVE SMOOTH",
"300 156 LINE"
);
}
);
width = 1224;
},
{
background = {
paths = (
{
closed = 1;
nodes = (
"446 0 LINE SMOOTH",
"808 0 OFFCURVE",
"990 144 OFFCURVE",
"1062 484 CURVE SMOOTH",
"1150 904 LINE SMOOTH",
"1158 946 OFFCURVE",
"1164 986 OFFCURVE",
"1164 1024 CURVE SMOOTH",
"1164 1250 OFFCURVE",
"1006 1400 OFFCURVE",
"736 1400 CURVE SMOOTH",
"206 1400 LINE",
"206 1148 LINE",
"338 1148 LINE",
"148 252 LINE",
"4 252 LINE",
"4 0 LINE"
);
},
{
closed = 1;
nodes = (
"602 1148 LINE",
"690 1148 LINE SMOOTH",
"830 1148 OFFCURVE",
"896 1088 OFFCURVE",
"896 980 CURVE SMOOTH",
"896 956 OFFCURVE",
"890 924 OFFCURVE",
"886 904 CURVE SMOOTH",
"804 520 LINE SMOOTH",
"766 336 OFFCURVE",
"684 252 OFFCURVE",
"500 252 CURVE",
"412 252 LINE"
);
}
);
};
layerId = "612FA678-EA3C-4672-88DD-29ED08259473";
paths = (
{
closed = 1;
nodes = (
"446 0 LINE SMOOTH",
"808 0 OFFCURVE",
"990 144 OFFCURVE",
"1062 484 CURVE SMOOTH",
"1150 904 LINE SMOOTH",
"1218 1226 OFFCURVE",
"1022 1400 OFFCURVE",
"736 1400 CURVE SMOOTH",
"206 1400 LINE",
"206 1148 LINE",
"338 1148 LINE",
"148 252 LINE",
"4 252 LINE",
"4 0 LINE"
);
},
{
closed = 1;
nodes = (
"602 1148 LINE",
"690 1148 LINE SMOOTH",
"842 1148 OFFCURVE",
"924 1078 OFFCURVE",
"886 904 CURVE SMOOTH",
"804 520 LINE SMOOTH",
"766 336 OFFCURVE",
"684 252 OFFCURVE",
"500 252 CURVE SMOOTH",
"412 252 LINE"
);
}
);
width = 1224;
},
{
associatedMasterId = "FBAFFF81-1F8B-4B58-9158-C4AF3F48F88C";
layerId = "059B7C2B-AD8E-4EAB-A15C-21EFF1D74E3E";
name = TEST;
paths = (
{
closed = 1;
nodes = (
"428 1244 LINE",
"428 158 LINE",
"168 158 LINE",
"168 0 LINE",
"966 0 LINE SMOOTH",
"1394 0 OFFCURVE",
"1686 196 OFFCURVE",
"1686 640 CURVE",
"1686 760 LINE",
"1686 1204 OFFCURVE",
"1394 1400 OFFCURVE",
"966 1400 CURVE SMOOTH",
"168 1400 LINE",
"168 1244 LINE"
);
},
{
closed = 1;
nodes = (
"596 156 LINE",
"596 1244 LINE",
"942 1244 LINE SMOOTH",
"1268 1244 OFFCURVE",
"1518 1134 OFFCURVE",
"1518 748 CURVE",
"1518 652 LINE",
"1518 266 OFFCURVE",
"1268 156 OFFCURVE",
"942 156 CURVE"
);
}
);
width = 1836;
}
);
unicode = 0044;
},
{
color = 6;
glyphname = Eth;
lastChange = "2019-01-29 05:16:09 +0000";
layers = (
{
components = (
{
name = D;
},
{
name = strokeshortcomb;
transform = "{1, 0, 0, 1, -214, 0}";
}
);
layerId = "FBAFFF81-1F8B-4B58-9158-C4AF3F48F88C";
width = 1224;
},
{
components = (
{
name = D;
},
{
name = strokeshortcomb;
transform = "{1, 0, 0, 1, -224, 0}";
}
);
layerId = "50C9B437-FF28-4DF4-B0E6-290519DD406F";
width = 1224;
},
{
components = (
{
name = D;
},
{
name = strokeshortcomb;
transform = "{1, 0, 0, 1, -293, 0}";
}
);
layerId = "6008D70E-46A9-43E5-86AA-D196D19196A4";
width = 1224;
},
{
components = (
{
name = D;
},
{
name = strokeshortcomb;
transform = "{1, 0, 0, 1, -265, 0}";
}
);
layerId = "612FA678-EA3C-4672-88DD-29ED08259473";
width = 1224;
},
{
associatedMasterId = "FBAFFF81-1F8B-4B58-9158-C4AF3F48F88C";
layerId = "D7D67743-7C96-4967-8245-FA0270AB4EF2";
name = "Jan 29 19, 00:11";
paths = (
{
closed = 1;
nodes = (
"266 622 LINE",
"266 156 LINE",
"146 156 LINE",
"146 0 LINE",
"606 0 LINE SMOOTH",
"950 0 OFFCURVE",
"1106 160 OFFCURVE",
"1106 520 CURVE SMOOTH",
"1106 880 LINE SMOOTH",
"1106 1240 OFFCURVE",
"950 1400 OFFCURVE",
"606 1400 CURVE SMOOTH",
"146 1400 LINE",
"146 1244 LINE",
"266 1244 LINE",
"266 778 LINE",
"146 778 LINE",
"146 622 LINE"
);
},
{
closed = 1;
nodes = (
"434 156 LINE",
"434 622 LINE",
"650 622 LINE",
"650 778 LINE",
"434 778 LINE",
"434 1244 LINE",
"582 1244 LINE SMOOTH",
"826 1244 OFFCURVE",
"938 1160 OFFCURVE",
"938 868 CURVE SMOOTH",
"938 532 LINE SMOOTH",
"938 240 OFFCURVE",
"826 156 OFFCURVE",
"582 156 CURVE"
);
}
);
width = 1224;
},
{
associatedMasterId = "6008D70E-46A9-43E5-86AA-D196D19196A4";
layerId = "228D393D-070F-4193-A9F2-1B70DC970B59";
name = "Jan 29 19, 00:11";
paths = (
{
closed = 1;
nodes = (
"362 1244 LINE",
"264 778 LINE",
"110 778 LINE",
"110 622 LINE",
"230 622 LINE",
"132 156 LINE",
"0 156 LINE",
"0 0 LINE",
"454 0 LINE SMOOTH",
"834 0 OFFCURVE",
"966 140 OFFCURVE",
"1048 520 CURVE SMOOTH",
"1124 868 LINE SMOOTH",
"1136 926 OFFCURVE",
"1144 980 OFFCURVE",
"1144 1030 CURVE SMOOTH",
"1144 1268 OFFCURVE",
"998 1400 OFFCURVE",
"716 1400 CURVE SMOOTH",
"230 1400 LINE",
"230 1244 LINE"
);
},
{
closed = 1;
nodes = (
"300 156 LINE",
"398 622 LINE",
"614 622 LINE",
"614 778 LINE",
"432 778 LINE",
"530 1244 LINE",
"682 1244 LINE SMOOTH",
"876 1244 OFFCURVE",
"972 1190 OFFCURVE",
"972 1020 CURVE SMOOTH",
"972 978 OFFCURVE",
"968 936 OFFCURVE",
"954 868 CURVE SMOOTH",
"884 532 LINE SMOOTH",
"824 240 OFFCURVE",
"700 156 OFFCURVE",
"452 156 CURVE"
);
}
);
width = 1224;
},
{
associatedMasterId = "50C9B437-FF28-4DF4-B0E6-290519DD406F";
layerId = "B5AD428C-89E4-4E3D-BA9E-F2319B50B0FF";
name = "Jan 29 19, 00:11";
paths = (
{
closed = 1;
nodes = (
"224 580 LINE",
"224 252 LINE",
"92 252 LINE",
"92 0 LINE",
"600 0 LINE SMOOTH",
"944 0 OFFCURVE",
"1112 160 OFFCURVE",
"1112 496 CURVE SMOOTH",
"1112 904 LINE SMOOTH",
"1112 1240 OFFCURVE",
"944 1400 OFFCURVE",
"600 1400 CURVE SMOOTH",
"92 1400 LINE",
"92 1148 LINE",
"224 1148 LINE",
"224 820 LINE",
"92 820 LINE",
"92 580 LINE"
);
},
{
closed = 1;
nodes = (
"488 252 LINE",
"488 580 LINE",
"684 580 LINE",
"684 820 LINE",
"488 820 LINE",
"488 1148 LINE",
"600 1148 LINE SMOOTH",
"784 1148 OFFCURVE",
"848 1064 OFFCURVE",
"848 904 CURVE SMOOTH",
"848 520 LINE SMOOTH",
"848 336 OFFCURVE",
"784 252 OFFCURVE",
"600 252 CURVE"
);
}
);
width = 1224;
},
{
associatedMasterId = "612FA678-EA3C-4672-88DD-29ED08259473";
layerId = "01E5E854-5E14-48D6-9E2C-7D7ADD71D8F8";
name = "Jan 29 19, 00:11";
paths = (
{
closed = 1;
nodes = (
"218 580 LINE",
"148 252 LINE",
"4 252 LINE",
"4 0 LINE",
"446 0 LINE SMOOTH",
"808 0 OFFCURVE",
"990 144 OFFCURVE",
"1062 484 CURVE SMOOTH",
"1150 904 LINE SMOOTH",
"1158 946 OFFCURVE",
"1164 986 OFFCURVE",
"1164 1024 CURVE SMOOTH",
"1164 1250 OFFCURVE",
"1006 1400 OFFCURVE",
"736 1400 CURVE SMOOTH",
"206 1400 LINE",
"206 1148 LINE",
"338 1148 LINE",
"268 820 LINE",
"102 820 LINE",
"102 580 LINE"
);
},
{
closed = 1;
nodes = (
"412 252 LINE",
"482 580 LINE",
"678 580 LINE",
"678 820 LINE",
"532 820 LINE",
"602 1148 LINE",
"690 1148 LINE SMOOTH",
"830 1148 OFFCURVE",
"896 1088 OFFCURVE",
"896 980 CURVE SMOOTH",
"896 956 OFFCURVE",
"890 924 OFFCURVE",
"886 904 CURVE SMOOTH",
"804 520 LINE SMOOTH",
"766 336 OFFCURVE",
"684 252 OFFCURVE",
"500 252 CURVE"
);
}
);
width = 1224;
}
);
unicode = 00D0;
userData = {
com.typemytype.robofont.guides = (
{
angle = 0;
isGlobal = 0;
magnetic = 5;
x = 0;
y = 350;
}
);
};
},
{
glyphname = E;
lastChange = "2019-01-24 23:26:30 +0000";
layers = (
{
layerId = "FBAFFF81-1F8B-4B58-9158-C4AF3F48F88C";
paths = (
{
closed = 1;
nodes = (
"1048 156 LINE",
"356 156 LINE",
"356 624 LINE",
"1024 624 LINE",
"1024 780 LINE",
"356 780 LINE",
"356 1244 LINE",
"1036 1244 LINE",
"1036 1400 LINE",
"188 1400 LINE",
"188 0 LINE",
"188 0 LINE",
"1048 0 LINE"
);
}
);
width = 1224;
},
{
layerId = "50C9B437-FF28-4DF4-B0E6-290519DD406F";
paths = (
{
closed = 1;
nodes = (
"1072 252 LINE",
"428 252 LINE",
"428 576 LINE",
"1024 576 LINE",
"1024 828 LINE",
"428 828 LINE",
"428 1148 LINE",
"1048 1148 LINE",
"1048 1400 LINE",
"164 1400 LINE",
"164 0 LINE",
"164 0 LINE",
"1072 0 LINE"
);
}
);
width = 1224;
},
{
layerId = "6008D70E-46A9-43E5-86AA-D196D19196A4";
paths = (
{
closed = 1;
nodes = (
"892 156 LINE",
"258 156 LINE",
"356 624 LINE",
"1000 624 LINE",
"1000 780 LINE",
"390 780 LINE",
"488 1244 LINE",
"1144 1244 LINE",
"1144 1400 LINE",
"354 1400 LINE",
"56 0 LINE",
"56 0 LINE",
"892 0 LINE"
);
}
);
width = 1224;
},
{
layerId = "612FA678-EA3C-4672-88DD-29ED08259473";
paths = (
{
closed = 1;
nodes = (
"938 252 LINE",
"348 252 LINE",
"416 576 LINE",
"1012 576 LINE",
"1012 828 LINE",
"470 828 LINE",
"538 1148 LINE",
"1158 1148 LINE",
"1158 1400 LINE",
"328 1400 LINE",
"36 24 LINE",
"36 0 LINE",
"938 0 LINE"
);
}
);
width = 1224;
}
);
unicode = 0045;
},
{
glyphname = F;
lastChange = "2019-01-23 17:14:56 +0000";
layers = (
{
layerId = "FBAFFF81-1F8B-4B58-9158-C4AF3F48F88C";
paths = (
{
closed = 1;
nodes = (
"358 0 LINE",
"358 624 LINE",
"1038 624 LINE",
"1038 780 LINE",
"358 780 LINE",
"358 1244 LINE",
"1050 1244 LINE",
"1050 1400 LINE",
"190 1400 LINE",
"190 0 LINE"
);
}
);
width = 1224;
},
{
layerId = "50C9B437-FF28-4DF4-B0E6-290519DD406F";
paths = (
{
closed = 1;
nodes = (
"440 0 LINE",
"440 576 LINE",
"1060 576 LINE",
"1060 828 LINE",
"440 828 LINE",
"440 1148 LINE",
"1072 1148 LINE",
"1072 1400 LINE",
"176 1400 LINE",
"176 0 LINE"
);
}
);
width = 1224;
},
{
layerId = "6008D70E-46A9-43E5-86AA-D196D19196A4";
paths = (
{
closed = 1;
nodes = (
"218 0 LINE",
"350 624 LINE",
"1006 624 LINE",
"1006 780 LINE",
"384 780 LINE",
"482 1244 LINE",
"1150 1244 LINE",
"1150 1400 LINE",
"348 1400 LINE",
"50 0 LINE"
);
}
);
width = 1224;
},
{
layerId = "612FA678-EA3C-4672-88DD-29ED08259473";
paths = (
{
closed = 1;
nodes = (
"296 0 LINE",
"418 576 LINE",
"1038 576 LINE",
"1038 828 LINE",
"472 828 LINE",
"540 1148 LINE",
"1172 1148 LINE",
"1172 1400 LINE",
"330 1400 LINE",
"32 0 LINE"
);
}
);
width = 1224;
}
);
unicode = 0046;
},
{
color = 5;
glyphname = G;
lastChange = "2019-01-23 17:14:56 +0000";
layers = (
{
layerId = "FBAFFF81-1F8B-4B58-9158-C4AF3F48F88C";
paths = (
{
closed = 1;
nodes = (
"754 -28 OFFCURVE",
"878 52 OFFCURVE",
"922 168 CURVE",
"946 168 LINE",
"946 0 LINE",
"1102 0 LINE",
"1102 672 LINE",
"1102 672 LINE",
"478 672 LINE",
"478 516 LINE",
"934 516 LINE",
"934 492 LINE SMOOTH",
"934 264 OFFCURVE",
"812 128 OFFCURVE",
"614 128 CURVE SMOOTH",
"394 128 OFFCURVE",
"286 284 OFFCURVE",
"286 556 CURVE SMOOTH",
"286 844 LINE SMOOTH",
"286 1100 OFFCURVE",
"394 1272 OFFCURVE",
"610 1272 CURVE SMOOTH",
"838 1272 OFFCURVE",
"934 1104 OFFCURVE",
"934 920 CURVE SMOOTH",
"934 896 LINE",
"1102 896 LINE",
"1102 920 LINE SMOOTH",
"1102 1204 OFFCURVE",
"930 1428 OFFCURVE",
"610 1428 CURVE SMOOTH",
"302 1428 OFFCURVE",
"118 1216 OFFCURVE",
"118 856 CURVE SMOOTH",
"118 544 LINE SMOOTH",
"118 172 OFFCURVE",
"302 -28 OFFCURVE",
"602 -28 CURVE SMOOTH"
);
}
);
width = 1224;
},
{
layerId = "50C9B437-FF28-4DF4-B0E6-290519DD406F";
paths = (
{
closed = 1;
nodes = (
"728 -28 OFFCURVE",
"812 52 OFFCURVE",
"844 156 CURVE",
"880 156 LINE",
"880 0 LINE",
"1120 0 LINE",
"1120 708 LINE",
"1120 708 LINE",
"520 708 LINE",
"520 456 LINE",
"856 456 LINE",
"856 456 LINE",
"856 316 OFFCURVE",
"772 224 OFFCURVE",
"616 224 CURVE SMOOTH",
"440 224 OFFCURVE",
"352 332 OFFCURVE",
"352 548 CURVE SMOOTH",
"352 844 LINE SMOOTH",
"352 1088 OFFCURVE",
"460 1176 OFFCURVE",
"608 1176 CURVE SMOOTH",
"764 1176 OFFCURVE",
"856 1088 OFFCURVE",
"856 920 CURVE SMOOTH",
"856 896 LINE",
"1120 896 LINE",
"1120 920 LINE SMOOTH",
"1120 1204 OFFCURVE",
"932 1428 OFFCURVE",
"612 1428 CURVE SMOOTH",
"304 1428 OFFCURVE",
"88 1228 OFFCURVE",
"88 864 CURVE SMOOTH",
"88 536 LINE SMOOTH",
"88 164 OFFCURVE",
"292 -28 OFFCURVE",
"548 -28 CURVE SMOOTH"
);
}
);
width = 1224;
},
{
background = {
paths = (
{
closed = 1;
nodes = (
"608 -28 OFFCURVE",
"740 52 OFFCURVE",
"808 168 CURVE",
"832 168 LINE",
"792 0 LINE",
"952 0 LINE",
"1096 672 LINE",
"484 672 LINE",
"484 516 LINE",
"898 516 LINE",
"886 468 LINE SMOOTH",
"834 262 OFFCURVE",
"692 124 OFFCURVE",
"490 124 CURVE SMOOTH",
"318 124 OFFCURVE",
"236 222 OFFCURVE",
"236 396 CURVE SMOOTH",
"236 444 OFFCURVE",
"242 496 OFFCURVE",
"254 556 CURVE SMOOTH",
"316 844 LINE SMOOTH",
"370 1100 OFFCURVE",
"516 1276 OFFCURVE",
"732 1276 CURVE SMOOTH",
"914 1276 OFFCURVE",
"994 1174 OFFCURVE",
"994 1032 CURVE SMOOTH",
"994 996 OFFCURVE",
"990 960 OFFCURVE",
"980 920 CURVE SMOOTH",
"974 896 LINE",
"1142 896 LINE",
"1148 920 LINE SMOOTH",
"1158 960 OFFCURVE",
"1162 994 OFFCURVE",
"1162 1040 CURVE SMOOTH",
"1162 1264 OFFCURVE",
"1016 1428 OFFCURVE",
"760 1428 CURVE SMOOTH",
"436 1428 OFFCURVE",
"228 1228 OFFCURVE",
"150 856 CURVE SMOOTH",
"84 544 LINE SMOOTH",
"68 472 OFFCURVE",
"64 420 OFFCURVE",
"64 366 CURVE SMOOTH",
"64 108 OFFCURVE",
"222 -28 OFFCURVE",
"446 -28 CURVE SMOOTH"
);
}
);
};
layerId = "6008D70E-46A9-43E5-86AA-D196D19196A4";
paths = (
{
closed = 1;
nodes = (
"608 -28 OFFCURVE",
"740 52 OFFCURVE",
"808 168 CURVE",
"832 168 LINE",
"792 0 LINE",
"952 0 LINE",
"1096 672 LINE",
"1096 672 LINE",
"484 672 LINE",
"484 516 LINE",
"898 516 LINE",
"886 468 LINE SMOOTH",
"834 262 OFFCURVE",
"692 124 OFFCURVE",
"490 124 CURVE SMOOTH",
"262 124 OFFCURVE",
"202 294 OFFCURVE",
"254 556 CURVE SMOOTH",
"316 844 LINE SMOOTH",
"370 1100 OFFCURVE",
"516 1276 OFFCURVE",
"732 1276 CURVE SMOOTH",
"946 1276 OFFCURVE",
"1032 1128 OFFCURVE",
"980 920 CURVE SMOOTH",
"974 896 LINE",
"1142 896 LINE",
"1148 920 LINE SMOOTH",
"1216 1194 OFFCURVE",
"1058 1428 OFFCURVE",
"760 1428 CURVE SMOOTH",
"436 1428 OFFCURVE",
"228 1228 OFFCURVE",
"150 856 CURVE SMOOTH",
"84 544 LINE SMOOTH",
"12 222 OFFCURVE",
"132 -28 OFFCURVE",
"446 -28 CURVE SMOOTH"
);
}
);
width = 1224;
},
{
background = {
paths = (
{
closed = 1;
nodes = (
"580 -28 OFFCURVE",
"684 52 OFFCURVE",
"736 156 CURVE",
"772 156 LINE",
"738 0 LINE",
"978 0 LINE",
"1122 684 LINE",
"1122 708 LINE",
"504 708 LINE",
"504 456 LINE",
"812 456 LINE",
"804 426 LINE SMOOTH",
"770 300 OFFCURVE",
"666 224 OFFCURVE",
"522 224 CURVE SMOOTH",
"394 224 OFFCURVE",
"314 296 OFFCURVE",
"314 440 CURVE SMOOTH",
"314 472 OFFCURVE",
"316 500 OFFCURVE",
"326 548 CURVE SMOOTH",
"390 844 LINE SMOOTH",
"442 1088 OFFCURVE",
"568 1176 OFFCURVE",
"716 1176 CURVE SMOOTH",
"848 1176 OFFCURVE",
"920 1108 OFFCURVE",
"920 998 CURVE SMOOTH",
"920 974 OFFCURVE",
"918 952 OFFCURVE",
"910 920 CURVE SMOOTH",
"904 896 LINE",
"1168 896 LINE",
"1174 920 LINE SMOOTH",
"1182 954 OFFCURVE",
"1188 998 OFFCURVE",
"1188 1036 CURVE SMOOTH",
"1188 1250 OFFCURVE",
"1032 1428 OFFCURVE",
"764 1428 CURVE SMOOTH",
"428 1428 OFFCURVE",
"212 1248 OFFCURVE",
"130 864 CURVE SMOOTH",
"60 536 LINE SMOOTH",
"46 470 OFFCURVE",
"40 416 OFFCURVE",
"40 364 CURVE SMOOTH",
"40 108 OFFCURVE",
"190 -28 OFFCURVE",
"400 -28 CURVE SMOOTH"
);
}
);
};
layerId = "612FA678-EA3C-4672-88DD-29ED08259473";
paths = (
{
closed = 1;
nodes = (
"580 -28 OFFCURVE",
"684 52 OFFCURVE",
"736 156 CURVE",
"772 156 LINE",
"738 0 LINE",
"978 0 LINE",
"1122 684 LINE",
"1122 708 LINE",
"504 708 LINE",
"504 456 LINE",
"812 456 LINE",
"812 456 LINE",
"782 316 OFFCURVE",
"678 224 OFFCURVE",
"522 224 CURVE SMOOTH",
"348 224 OFFCURVE",
"286 352 OFFCURVE",
"326 548 CURVE SMOOTH",
"390 844 LINE SMOOTH",
"442 1088 OFFCURVE",
"568 1176 OFFCURVE",
"716 1176 CURVE SMOOTH",
"876 1176 OFFCURVE",
"948 1076 OFFCURVE",
"910 920 CURVE SMOOTH",
"904 896 LINE",
"1168 896 LINE",
"1174 920 LINE SMOOTH",
"1240 1200 OFFCURVE",
"1066 1428 OFFCURVE",
"764 1428 CURVE SMOOTH",
"428 1428 OFFCURVE",
"212 1248 OFFCURVE",
"130 864 CURVE SMOOTH",
"60 536 LINE SMOOTH",
"-14 192 OFFCURVE",
"126 -28 OFFCURVE",
"400 -28 CURVE SMOOTH"
);
}
);
width = 1224;
},
{
associatedMasterId = "6008D70E-46A9-43E5-86AA-D196D19196A4";
background = {
paths = (
{
closed = 1;
nodes = (
"608 -28 OFFCURVE",
"740 52 OFFCURVE",
"808 168 CURVE",
"832 168 LINE",
"792 0 LINE",
"952 0 LINE",
"1096 672 LINE",
"484 672 LINE",
"484 516 LINE",
"898 516 LINE",
"886 468 LINE SMOOTH",
"834 262 OFFCURVE",
"692 124 OFFCURVE",
"490 124 CURVE SMOOTH",
"318 124 OFFCURVE",
"236 222 OFFCURVE",
"236 396 CURVE SMOOTH",
"236 444 OFFCURVE",
"242 496 OFFCURVE",
"254 556 CURVE SMOOTH",
"316 844 LINE SMOOTH",
"370 1100 OFFCURVE",
"516 1276 OFFCURVE",
"732 1276 CURVE SMOOTH",
"914 1276 OFFCURVE",
"994 1174 OFFCURVE",
"994 1032 CURVE SMOOTH",
"994 996 OFFCURVE",
"990 960 OFFCURVE",
"980 920 CURVE SMOOTH",
"974 896 LINE",
"1142 896 LINE",
"1148 920 LINE SMOOTH",
"1158 960 OFFCURVE",
"1162 994 OFFCURVE",
"1162 1040 CURVE SMOOTH",
"1162 1264 OFFCURVE",
"1016 1428 OFFCURVE",
"760 1428 CURVE SMOOTH",
"436 1428 OFFCURVE",
"228 1228 OFFCURVE",
"150 856 CURVE SMOOTH",
"84 544 LINE SMOOTH",
"68 472 OFFCURVE",
"64 420 OFFCURVE",
"64 366 CURVE SMOOTH",
"64 108 OFFCURVE",
"222 -28 OFFCURVE",
"446 -28 CURVE SMOOTH"
);
}
);
};
layerId = "DC81FFCD-5F0B-41C9-AC52-3C157FFD93F5";
name = "F_slnt {84, 200, 0, 0, 0, 0}";
paths = (
{
closed = 1;
nodes = (
"724 -28 OFFCURVE",
"850 52 OFFCURVE",
"900 168 CURVE",
"924 168 LINE",
"916 0 LINE",
"1072 0 LINE",
"1100 672 LINE",
"1100 672 LINE",
"480 672 LINE",
"480 516 LINE",
"926 516 LINE",
"924 472 LINE",
"914 264 OFFCURVE",
"788 128 OFFCURVE",
"590 128 CURVE SMOOTH",
"368 128 OFFCURVE",
"270 286 OFFCURVE",
"280 556 CURVE SMOOTH",
"292 844 LINE SMOOTH",
"302 1100 OFFCURVE",
"418 1272 OFFCURVE",
"634 1272 CURVE SMOOTH",
"860 1272 OFFCURVE",
"954 1108 OFFCURVE",
"944 920 CURVE SMOOTH",
"942 896 LINE",
"1110 896 LINE",
"1112 920 LINE SMOOTH",
"1124 1202 OFFCURVE",
"956 1428 OFFCURVE",
"640 1428 CURVE SMOOTH",
"328 1428 OFFCURVE",
"140 1218 OFFCURVE",
"124 856 CURVE SMOOTH",
"112 544 LINE SMOOTH",
"96 182 OFFCURVE",
"268 -28 OFFCURVE",
"570 -28 CURVE SMOOTH"
);
}
);
width = 1224;
}
);
unicode = 0047;
},
{
glyphname = H;
lastChange = "2019-01-23 17:14:56 +0000";
layers = (
{
layerId = "FBAFFF81-1F8B-4B58-9158-C4AF3F48F88C";
paths = (
{
closed = 1;
nodes = (
"314 0 LINE",
"314 624 LINE",
"910 624 LINE",
"910 0 LINE",
"1078 0 LINE",
"1078 1400 LINE",
"910 1400 LINE",
"910 780 LINE",
"314 780 LINE",
"314 1400 LINE",
"146 1400 LINE",
"146 0 LINE"
);
}
);
width = 1224;
},
{
layerId = "50C9B437-FF28-4DF4-B0E6-290519DD406F";
paths = (
{
closed = 1;
nodes = (
"386 0 LINE",
"386 576 LINE",
"838 576 LINE",
"838 0 LINE",
"1102 0 LINE",
"1102 1400 LINE",
"838 1400 LINE",
"838 828 LINE",
"386 828 LINE",
"386 1400 LINE",
"122 1400 LINE",
"122 0 LINE"
);
}
);
width = 1224;
},
{
layerId = "6008D70E-46A9-43E5-86AA-D196D19196A4";
paths = (
{
closed = 1;
nodes = (
"186 0 LINE",
"318 624 LINE",
"870 624 LINE",
"738 0 LINE",
"910 0 LINE",
"1208 1400 LINE",
"1036 1400 LINE",
"904 780 LINE",
"352 780 LINE",
"484 1400 LINE",
"312 1400 LINE",
"16 0 LINE"
);
}
);
width = 1224;
},
{
layerId = "612FA678-EA3C-4672-88DD-29ED08259473";
paths = (
{
closed = 1;
nodes = (
"262 0 LINE",
"384 576 LINE",
"784 576 LINE",
"662 0 LINE",
"926 0 LINE",
"1224 1400 LINE",
"960 1400 LINE",
"838 828 LINE",
"438 828 LINE",
"560 1400 LINE",
"296 1400 LINE",
"0 0 LINE"
);
}
);
width = 1224;
}
);
unicode = 0048;
userData = {
com.typemytype.robofont.guides = (
{
angle = 0;
isGlobal = 0;
magnetic = 5;
x = 0;
y = 350;
}
);
};
},
{
color = 4;
glyphname = I;
lastChange = "2019-01-23 17:14:56 +0000";
layers = (
{
layerId = "FBAFFF81-1F8B-4B58-9158-C4AF3F48F88C";
paths = (
{
closed = 1;
nodes = (
"528 1244 LINE",
"528 156 LINE",
"168 156 LINE",
"168 0 LINE",
"1056 0 LINE",
"1056 156 LINE",
"696 156 LINE",
"696 1244 LINE",
"1056 1244 LINE",
"1056 1400 LINE",
"168 1400 LINE",
"168 1244 LINE"
);
}
);
width = 1224;
},
{
layerId = "50C9B437-FF28-4DF4-B0E6-290519DD406F";
paths = (
{
closed = 1;
nodes = (
"480 1148 LINE",
"480 252 LINE",
"144 252 LINE",
"144 0 LINE",
"1080 0 LINE",
"1080 252 LINE",
"744 252 LINE",
"744 1148 LINE",
"1080 1148 LINE",
"1080 1400 LINE",
"144 1400 LINE",
"144 1148 LINE"
);
}
);
width = 1224;
},
{
layerId = "6008D70E-46A9-43E5-86AA-D196D19196A4";
paths = (
{
closed = 1;
nodes = (
"642 1244 LINE",
"412 156 LINE",
"64 156 LINE",
"64 0 LINE",
"928 0 LINE",
"928 156 LINE",
"580 156 LINE",
"810 1244 LINE",
"1158 1244 LINE",
"1158 1400 LINE",
"294 1400 LINE",
"294 1244 LINE"
);
}
);
width = 1224;
},
{
layerId = "612FA678-EA3C-4672-88DD-29ED08259473";
paths = (
{
closed = 1;
nodes = (
"574 1148 LINE",
"384 252 LINE",
"60 252 LINE",
"60 0 LINE",
"972 0 LINE",
"972 252 LINE",
"648 252 LINE",
"838 1148 LINE",
"1162 1148 LINE",
"1162 1400 LINE",
"250 1400 LINE",
"250 1148 LINE"
);
}
);
width = 1224;
}
);
unicode = 0049;
},
{
glyphname = J;
lastChange = "2019-01-23 17:14:56 +0000";
layers = (
{
layerId = "FBAFFF81-1F8B-4B58-9158-C4AF3F48F88C";
paths = (
{
closed = 1;
nodes = (
"862 -28 OFFCURVE",
"1010 132 OFFCURVE",
"1010 420 CURVE SMOOTH",
"1010 1244 LINE",
"1130 1244 LINE",
"1130 1400 LINE",
"698 1400 LINE",
"698 1244 LINE",
"842 1244 LINE",
"842 420 LINE SMOOTH",
"842 244 OFFCURVE",
"776 128 OFFCURVE",
"590 128 CURVE SMOOTH",
"404 128 OFFCURVE",
"314 244 OFFCURVE",
"314 420 CURVE SMOOTH",
"314 528 LINE",
"146 528 LINE",
"146 420 LINE SMOOTH",
"146 132 OFFCURVE",
"318 -28 OFFCURVE",
"590 -28 CURVE SMOOTH"
);
}
);
width = 1224;
},
{
layerId = "50C9B437-FF28-4DF4-B0E6-290519DD406F";
paths = (
{
closed = 1;
nodes = (
"864 -28 OFFCURVE",
"1034 132 OFFCURVE",
"1034 420 CURVE SMOOTH",
"1034 1152 LINE",
"1154 1152 LINE",
"1154 1400 LINE",
"626 1400 LINE",
"626 1152 LINE",
"770 1152 LINE",
"770 420 LINE SMOOTH",
"770 292 OFFCURVE",
"700 220 OFFCURVE",
"584 220 CURVE SMOOTH",
"460 220 OFFCURVE",
"386 296 OFFCURVE",
"386 420 CURVE SMOOTH",
"386 552 LINE",
"122 552 LINE",
"122 420 LINE SMOOTH",
"122 128 OFFCURVE",
"312 -28 OFFCURVE",
"592 -28 CURVE SMOOTH"
);
}
);
width = 1224;
},
{
background = {
paths = (
{
closed = 1;
nodes = (
"732 -28 OFFCURVE",
"874 136 OFFCURVE",
"934 412 CURVE SMOOTH",
"1112 1244 LINE",
"1244 1244 LINE",
"1244 1400 LINE",
"788 1400 LINE",
"788 1244 LINE",
"944 1244 LINE",
"768 420 LINE SMOOTH",
"732 248 OFFCURVE",
"640 128 OFFCURVE",
"454 128 CURVE SMOOTH",
"300 128 OFFCURVE",
"228 194 OFFCURVE",
"228 320 CURVE SMOOTH",
"228 350 OFFCURVE",
"232 384 OFFCURVE",
"240 420 CURVE SMOOTH",
"264 528 LINE",
"96 528 LINE",
"72 420 LINE SMOOTH",
"64 382 OFFCURVE",
"60 344 OFFCURVE",
"60 310 CURVE SMOOTH",
"60 106 OFFCURVE",
"200 -28 OFFCURVE",
"432 -28 CURVE SMOOTH"
);
}
);
};
layerId = "6008D70E-46A9-43E5-86AA-D196D19196A4";
paths = (
{
closed = 1;
nodes = (
"732 -28 OFFCURVE",
"874 136 OFFCURVE",
"934 412 CURVE SMOOTH",
"1112 1244 LINE",
"1244 1244 LINE",
"1244 1400 LINE",
"788 1400 LINE",
"788 1244 LINE",
"944 1244 LINE",
"768 420 LINE SMOOTH",
"732 248 OFFCURVE",
"640 128 OFFCURVE",
"454 128 CURVE SMOOTH",
"264 128 OFFCURVE",
"198 232 OFFCURVE",
"240 420 CURVE SMOOTH",
"264 528 LINE",
"96 528 LINE",
"72 420 LINE SMOOTH",
"16 154 OFFCURVE",
"160 -28 OFFCURVE",
"432 -28 CURVE SMOOTH"
);
}
);
width = 1224;
},
{
background = {
paths = (
{
closed = 1;
nodes = (
"726 -28 OFFCURVE",
"884 104 OFFCURVE",
"952 420 CURVE SMOOTH",
"1108 1152 LINE",
"1242 1152 LINE",
"1242 1400 LINE",
"694 1400 LINE",
"694 1152 LINE",
"844 1152 LINE",
"688 420 LINE SMOOTH",
"662 292 OFFCURVE",
"580 220 OFFCURVE",
"466 220 CURVE SMOOTH",
"364 220 OFFCURVE",
"310 272 OFFCURVE",
"310 362 CURVE SMOOTH",
"310 380 OFFCURVE",
"312 402 OFFCURVE",
"316 420 CURVE SMOOTH",
"344 552 LINE",
"80 552 LINE",
"60 458 LINE SMOOTH",
"50 414 OFFCURVE",
"46 372 OFFCURVE",
"46 334 CURVE SMOOTH",
"46 102 OFFCURVE",
"208 -28 OFFCURVE",
"430 -28 CURVE SMOOTH"
);
}
);
};
layerId = "612FA678-EA3C-4672-88DD-29ED08259473";
paths = (
{
closed = 1;
nodes = (
"726 -28 OFFCURVE",
"884 104 OFFCURVE",
"952 420 CURVE SMOOTH",
"1108 1152 LINE",
"1242 1152 LINE",
"1242 1400 LINE",
"694 1400 LINE",
"694 1152 LINE",
"844 1152 LINE",
"688 420 LINE SMOOTH",
"662 292 OFFCURVE",
"580 220 OFFCURVE",
"466 220 CURVE SMOOTH",
"342 220 OFFCURVE",
"290 300 OFFCURVE",
"316 420 CURVE SMOOTH",
"344 552 LINE",
"80 552 LINE",
"60 458 LINE SMOOTH",
"-2 170 OFFCURVE",
"150 -28 OFFCURVE",
"430 -28 CURVE SMOOTH"
);
}
);
width = 1224;
}
);
unicode = 004A;
},
{
glyphname = K;
lastChange = "2019-01-23 17:14:56 +0000";
layers = (
{
layerId = "FBAFFF81-1F8B-4B58-9158-C4AF3F48F88C";
paths = (
{
closed = 1;
nodes = (
"392 624 LINE",
"950 0 LINE",
"1162 0 LINE",
"1162 12 LINE",
"558 688 LINE",
"558 712 LINE",
"1138 1388 LINE",
"1138 1400 LINE",
"930 1400 LINE",
"392 780 LINE",
"346 780 LINE",
"346 1400 LINE",
"178 1400 LINE",
"178 0 LINE",
"346 0 LINE",
"346 624 LINE"
);
}
);
width = 1224;
},
{
layerId = "50C9B437-FF28-4DF4-B0E6-290519DD406F";
paths = (
{
closed = 1;
nodes = (
"476 574 LINE",
"858 0 LINE",
"1168 0 LINE",
"1168 12 LINE",
"712 682 LINE",
"712 718 LINE",
"1144 1388 LINE",
"1144 1400 LINE",
"846 1400 LINE",
"476 826 LINE",
"418 826 LINE",
"418 1400 LINE",
"154 1400 LINE",
"154 0 LINE",
"418 0 LINE",
"418 574 LINE"
);
}
);
width = 1224;
},
{
layerId = "6008D70E-46A9-43E5-86AA-D196D19196A4";
paths = (
{
closed = 1;
nodes = (
"394 624 LINE",
"796 0 LINE",
"986 0 LINE",
"986 12 LINE",
"550 688 LINE",
"550 712 LINE",
"1224 1376 LINE",
"1224 1400 LINE",
"1030 1400 LINE",
"400 780 LINE",
"348 780 LINE",
"480 1400 LINE",
"308 1400 LINE",
"10 0 LINE",
"182 0 LINE",
"314 624 LINE"
);
}
);
width = 1224;
},
{
layerId = "612FA678-EA3C-4672-88DD-29ED08259473";
paths = (
{
closed = 1;
nodes = (
"460 574 LINE",
"752 0 LINE",
"1044 0 LINE",
"1044 12 LINE",
"708 676 LINE",
"708 712 LINE",
"1240 1376 LINE",
"1240 1400 LINE",
"932 1400 LINE",
"480 826 LINE",
"432 826 LINE",
"554 1400 LINE",
"290 1400 LINE",
"-8 0 LINE",
"256 0 LINE",
"376 574 LINE"
);
}
);
width = 1224;
}
);
unicode = 004B;
userData = {
com.typemytype.robofont.guides = (
{
angle = 0;
isGlobal = 0;
magnetic = 5;
x = 0;
y = 356;
},
{
angle = 0;
isGlobal = 0;
magnetic = 5;
x = 0;
y = 344;
},
{
angle = 0;
isGlobal = 0;
magnetic = 5;
x = 0;
y = 359;
},
{
angle = 0;
isGlobal = 0;
magnetic = 5;
x = 0;
y = 341;
},
{
angle = 90;
isGlobal = 0;
magnetic = 5;
x = 185;
y = 0;
}
);
};
},
{
glyphname = L;
lastChange = "2019-01-25 00:31:19 +0000";
layers = (
{
layerId = "FBAFFF81-1F8B-4B58-9158-C4AF3F48F88C";
paths = (
{
closed = 1;
nodes = (
"1074 156 LINE",
"342 156 LINE",
"342 1400 LINE",
"174 1400 LINE",
"174 0 LINE",
"174 0 LINE",
"1074 0 LINE"
);
}
);
width = 1224;
},
{
layerId = "50C9B437-FF28-4DF4-B0E6-290519DD406F";
paths = (
{
closed = 1;
nodes = (
"1064 252 LINE",
"428 252 LINE",
"428 1400 LINE",
"164 1400 LINE",
"164 0 LINE",
"164 0 LINE",
"1064 0 LINE"
);
}
);
width = 1224;
},
{
layerId = "6008D70E-46A9-43E5-86AA-D196D19196A4";
paths = (
{
closed = 1;
nodes = (
"970 156 LINE",
"250 156 LINE",
"514 1400 LINE",
"346 1400 LINE",
"48 0 LINE",
"48 0 LINE",
"970 0 LINE"
);
}
);
width = 1224;
},
{
layerId = "612FA678-EA3C-4672-88DD-29ED08259473";
paths = (
{
closed = 1;
nodes = (
"950 252 LINE",
"342 252 LINE",
"586 1400 LINE",
"322 1400 LINE",
"30 24 LINE",
"30 0 LINE",
"950 0 LINE"
);
}
);
width = 1224;
}
);
unicode = 004C;
},
{
color = 4;
glyphname = M;
lastChange = "2019-01-23 17:14:56 +0000";
layers = (
{
layerId = "FBAFFF81-1F8B-4B58-9158-C4AF3F48F88C";
paths = (
{
closed = 1;
nodes = (
"248 0 LINE",
"248 932 LINE",
"248 1328 LINE",
"272 1328 LINE",
"460 0 LINE",
"764 0 LINE",
"952 1328 LINE",
"976 1328 LINE",
"976 932 LINE",
"976 0 LINE",
"1132 0 LINE",
"1132 1400 LINE",
"812 1400 LINE",
"648 242 LINE",
"624 72 LINE",
"600 72 LINE",
"576 242 LINE",
"412 1400 LINE",
"92 1400 LINE",
"92 0 LINE"
);
}
);
width = 1224;
},
{
layerId = "50C9B437-FF28-4DF4-B0E6-290519DD406F";
paths = (
{
closed = 1;
nodes = (
"284 0 LINE",
"284 936 LINE",
"260 1256 LINE",
"308 1256 LINE",
"416 0 LINE",
"812 0 LINE",
"916 1256 LINE",
"964 1256 LINE",
"940 936 LINE",
"940 0 LINE",
"1180 0 LINE",
"1180 1400 LINE",
"716 1400 LINE",
"636 348 LINE",
"636 144 LINE",
"588 144 LINE",
"588 348 LINE",
"508 1400 LINE",
"44 1400 LINE",
"44 0 LINE"
);
}
);
width = 1224;
},
{
layerId = "6008D70E-46A9-43E5-86AA-D196D19196A4";
paths = (
{
closed = 1;
nodes = (
"122 0 LINE",
"328 970 LINE",
"404 1328 LINE",
"428 1328 LINE",
"314 0 LINE",
"622 0 LINE",
"1060 1328 LINE",
"1084 1328 LINE",
"1008 970 LINE",
"802 0 LINE",
"958 0 LINE",
"1256 1400 LINE",
"928 1400 LINE",
"546 242 LINE",
"490 72 LINE",
"466 72 LINE",
"480 232 LINE",
"582 1400 LINE",
"264 1400 LINE",
"-32 0 LINE"
);
}
);
width = 1224;
},
{
layerId = "612FA678-EA3C-4672-88DD-29ED08259473";
paths = (
{
closed = 1;
nodes = (
"158 0 LINE",
"358 932 LINE",
"398 1232 LINE",
"446 1232 LINE",
"288 0 LINE",
"646 0 LINE",
"1004 1232 LINE",
"1052 1232 LINE",
"962 920 LINE",
"766 0 LINE",
"994 0 LINE",
"1292 1400 LINE",
"852 1400 LINE",
"572 408 LINE",
"520 168 LINE",
"472 168 LINE",
"520 396 LINE",
"656 1400 LINE",
"228 1400 LINE",
"-68 0 LINE"
);
}
);
width = 1224;
}
);
unicode = 004D;
},
{
glyphname = N;
lastChange = "2019-01-23 17:14:56 +0000";
layers = (
{
layerId = "FBAFFF81-1F8B-4B58-9158-C4AF3F48F88C";
paths = (
{
closed = 1;
nodes = (
"146 1400 LINE",
"146 0 LINE",
"314 0 LINE",
"314 1328 LINE",
"338 1328 LINE",
"742 0 LINE",
"1078 0 LINE",
"1078 1400 LINE",
"910 1400 LINE",
"910 72 LINE",
"886 72 LINE",
"482 1400 LINE"
);
}
);
width = 1224;
},
{
layerId = "50C9B437-FF28-4DF4-B0E6-290519DD406F";
paths = (
{
closed = 1;
nodes = (
"122 1400 LINE",
"122 0 LINE",
"386 0 LINE",
"386 1268 LINE",
"422 1268 LINE",
"586 0 LINE",
"1102 0 LINE",
"1102 1400 LINE",
"838 1400 LINE",
"838 132 LINE",
"802 132 LINE",
"638 1400 LINE"
);
}
);
width = 1224;
},
{
layerId = "6008D70E-46A9-43E5-86AA-D196D19196A4";
paths = (
{
closed = 1;
nodes = (
"318 1400 LINE",
"20 0 LINE",
"188 0 LINE",
"470 1328 LINE",
"494 1328 LINE",
"574 0 LINE",
"904 0 LINE",
"1202 1400 LINE",
"1034 1400 LINE",
"752 72 LINE",
"728 72 LINE",
"648 1400 LINE"
);
}
);
width = 1224;
},
{
layerId = "612FA678-EA3C-4672-88DD-29ED08259473";
paths = (
{
closed = 1;
nodes = (
"282 1400 LINE",
"-14 0 LINE",
"236 0 LINE",
"506 1268 LINE",
"542 1268 LINE",
"448 0 LINE",
"940 0 LINE",
"1238 1400 LINE",
"986 1400 LINE",
"716 132 LINE",
"680 132 LINE",
"774 1400 LINE"
);
}
);
width = 1224;
},
{
associatedMasterId = "FBAFFF81-1F8B-4B58-9158-C4AF3F48F88C";
layerId = "9EB9AC70-0CBC-4C1D-9792-C869125549A2";
name = TEST;
paths = (
{
closed = 1;
nodes = (
"222 1400 LINE",
"222 0 LINE",
"390 0 LINE",
"390 1328 LINE",
"414 1328 LINE",
"1264 0 LINE",
"1614 0 LINE",
"1614 1400 LINE",
"1446 1400 LINE",
"1446 72 LINE",
"1422 72 LINE",
"572 1400 LINE"
);
}
);
width = 1836;
}
);
unicode = 004E;
},
{
color = 5;
glyphname = O;
lastChange = "2019-01-23 17:14:56 +0000";
layers = (
{
anchors = (
{
name = qtail;
position = "{612, 0}";
}
);
layerId = "FBAFFF81-1F8B-4B58-9158-C4AF3F48F88C";
paths = (
{
closed = 1;
nodes = (
"920 -28 OFFCURVE",
"1104 172 OFFCURVE",
"1104 544 CURVE SMOOTH",
"1104 856 LINE SMOOTH",
"1104 1216 OFFCURVE",
"920 1428 OFFCURVE",
"612 1428 CURVE SMOOTH",
"304 1428 OFFCURVE",
"120 1216 OFFCURVE",
"120 856 CURVE SMOOTH",
"120 544 LINE SMOOTH",
"120 172 OFFCURVE",
"304 -28 OFFCURVE",
"612 -28 CURVE SMOOTH"
);
},
{
closed = 1;
nodes = (
"396 128 OFFCURVE",
"288 284 OFFCURVE",
"288 556 CURVE SMOOTH",
"288 844 LINE SMOOTH",
"288 1100 OFFCURVE",
"396 1272 OFFCURVE",
"612 1272 CURVE SMOOTH",
"828 1272 OFFCURVE",
"936 1100 OFFCURVE",
"936 844 CURVE SMOOTH",
"936 556 LINE SMOOTH",
"936 284 OFFCURVE",
"828 128 OFFCURVE",
"612 128 CURVE SMOOTH"
);
}
);
width = 1224;
},
{
anchors = (
{
name = qtail;
position = "{612, 0}";
}
);
layerId = "50C9B437-FF28-4DF4-B0E6-290519DD406F";
paths = (
{
closed = 1;
nodes = (
"932 -28 OFFCURVE",
"1128 172 OFFCURVE",
"1128 544 CURVE SMOOTH",
"1128 856 LINE SMOOTH",
"1128 1216 OFFCURVE",
"932 1428 OFFCURVE",
"612 1428 CURVE SMOOTH",
"292 1428 OFFCURVE",
"96 1216 OFFCURVE",
"96 856 CURVE SMOOTH",
"96 544 LINE SMOOTH",
"96 172 OFFCURVE",
"292 -28 OFFCURVE",
"612 -28 CURVE SMOOTH"
);
},
{
closed = 1;
nodes = (
"420 212 OFFCURVE",
"360 340 OFFCURVE",
"360 528 CURVE SMOOTH",
"360 872 LINE SMOOTH",
"360 1048 OFFCURVE",
"432 1188 OFFCURVE",
"612 1188 CURVE SMOOTH",
"792 1188 OFFCURVE",
"864 1048 OFFCURVE",
"864 872 CURVE SMOOTH",
"864 528 LINE SMOOTH",
"864 340 OFFCURVE",
"804 212 OFFCURVE",
"612 212 CURVE"
);
}
);
width = 1224;
},
{
anchors = (
{
name = qtail;
position = "{478, 0}";
}
);
background = {
paths = (
{
closed = 1;
nodes = (
"800 -28 OFFCURVE",
"994 172 OFFCURVE",
"1072 544 CURVE SMOOTH",
"1134 834 LINE SMOOTH",
"1148 896 OFFCURVE",
"1154 956 OFFCURVE",
"1154 1010 CURVE SMOOTH",
"1154 1270 OFFCURVE",
"1012 1428 OFFCURVE",
"754 1428 CURVE SMOOTH",
"426 1428 OFFCURVE",
"232 1228 OFFCURVE",
"154 856 CURVE SMOOTH",
"92 566 LINE SMOOTH",
"78 504 OFFCURVE",
"72 444 OFFCURVE",
"72 390 CURVE SMOOTH",
"72 130 OFFCURVE",
"214 -28 OFFCURVE",
"472 -28 CURVE SMOOTH"
);
},
{
closed = 1;
nodes = (
"326 124 OFFCURVE",
"240 232 OFFCURVE",
"240 404 CURVE SMOOTH",
"240 446 OFFCURVE",
"246 494 OFFCURVE",
"256 544 CURVE SMOOTH",
"320 844 LINE SMOOTH",
"376 1106 OFFCURVE",
"510 1276 OFFCURVE",
"730 1276 CURVE SMOOTH",
"900 1276 OFFCURVE",
"986 1168 OFFCURVE",
"986 996 CURVE SMOOTH",
"986 954 OFFCURVE",
"980 906 OFFCURVE",
"970 856 CURVE SMOOTH",
"906 556 LINE SMOOTH",
"850 296 OFFCURVE",
"716 124 OFFCURVE",
"496 124 CURVE SMOOTH"
);
}
);
};
layerId = "6008D70E-46A9-43E5-86AA-D196D19196A4";
paths = (
{
closed = 1;
nodes = (
"800 -28 OFFCURVE",
"994 172 OFFCURVE",
"1072 544 CURVE SMOOTH",
"1134 834 LINE SMOOTH",
"1204 1162 OFFCURVE",
"1092 1428 OFFCURVE",
"754 1428 CURVE SMOOTH",
"426 1428 OFFCURVE",
"232 1228 OFFCURVE",
"154 856 CURVE SMOOTH",
"92 566 LINE SMOOTH",
"22 240 OFFCURVE",
"134 -28 OFFCURVE",
"472 -28 CURVE SMOOTH"
);
},
{
closed = 1;
nodes = (
"282 124 OFFCURVE",
"202 292 OFFCURVE",
"256 544 CURVE SMOOTH",
"320 844 LINE SMOOTH",
"376 1106 OFFCURVE",
"510 1276 OFFCURVE",
"730 1276 CURVE SMOOTH",
"942 1276 OFFCURVE",
"1024 1108 OFFCURVE",
"970 856 CURVE SMOOTH",
"906 556 LINE SMOOTH",
"850 296 OFFCURVE",
"716 124 OFFCURVE",
"496 124 CURVE SMOOTH"
);
}
);
width = 1224;
},
{
anchors = (
{
name = qtail;
position = "{496, 0}";
}
);
background = {
paths = (
{
closed = 1;
nodes = (
"826 -28 OFFCURVE",
"1014 152 OFFCURVE",
"1096 544 CURVE SMOOTH",
"1162 856 LINE SMOOTH",
"1172 902 OFFCURVE",
"1176 948 OFFCURVE",
"1176 992 CURVE SMOOTH",
"1176 1240 OFFCURVE",
"1018 1428 OFFCURVE",
"736 1428 CURVE SMOOTH",
"400 1428 OFFCURVE",
"212 1248 OFFCURVE",
"130 856 CURVE SMOOTH",
"64 544 LINE SMOOTH",
"54 498 OFFCURVE",
"50 452 OFFCURVE",
"50 408 CURVE SMOOTH",
"50 160 OFFCURVE",
"208 -28 OFFCURVE",
"490 -28 CURVE SMOOTH"
);
},
{
closed = 1;
nodes = (
"386 212 OFFCURVE",
"312 294 OFFCURVE",
"312 428 CURVE SMOOTH",
"312 458 OFFCURVE",
"316 492 OFFCURVE",
"324 528 CURVE SMOOTH",
"398 872 LINE SMOOTH",
"436 1048 OFFCURVE",
"530 1188 OFFCURVE",
"712 1188 CURVE SMOOTH",
"840 1188 OFFCURVE",
"914 1106 OFFCURVE",
"914 972 CURVE SMOOTH",
"914 942 OFFCURVE",
"910 914 OFFCURVE",
"902 872 CURVE SMOOTH",
"828 528 LINE SMOOTH",
"790 352 OFFCURVE",
"696 212 OFFCURVE",
"514 212 CURVE SMOOTH"
);
}
);
};
layerId = "612FA678-EA3C-4672-88DD-29ED08259473";
paths = (
{
closed = 1;
nodes = (
"826 -28 OFFCURVE",
"1014 152 OFFCURVE",
"1096 544 CURVE SMOOTH",
"1162 856 LINE SMOOTH",
"1228 1166 OFFCURVE",
"1068 1428 OFFCURVE",
"736 1428 CURVE SMOOTH",
"400 1428 OFFCURVE",
"212 1248 OFFCURVE",
"130 856 CURVE SMOOTH",
"64 544 LINE SMOOTH",
"0 238 OFFCURVE",
"154 -28 OFFCURVE",
"490 -28 CURVE SMOOTH"
);
},
{
closed = 1;
nodes = (
"354 212 OFFCURVE",
"282 336 OFFCURVE",
"324 528 CURVE SMOOTH",
"398 872 LINE SMOOTH",
"436 1048 OFFCURVE",
"530 1188 OFFCURVE",
"712 1188 CURVE SMOOTH",
"870 1188 OFFCURVE",
"944 1066 OFFCURVE",
"902 872 CURVE SMOOTH",
"828 528 LINE SMOOTH",
"790 352 OFFCURVE",
"696 212 OFFCURVE",
"514 212 CURVE SMOOTH"
);
}
);
width = 1224;
},
{
anchors = (
{
name = qtail;
position = "{612, 0}";
}
);
associatedMasterId = "FBAFFF81-1F8B-4B58-9158-C4AF3F48F88C";
layerId = "D6B02E1A-3147-424A-AE6C-96D4B95DED0E";
name = TEST;
paths = (
{
closed = 1;
nodes = (
"166 226 OFFCURVE",
"490 -28 OFFCURVE",
"918 -28 CURVE SMOOTH",
"1346 -28 OFFCURVE",
"1670 226 OFFCURVE",
"1670 644 CURVE SMOOTH",
"1670 756 LINE SMOOTH",
"1670 1158 OFFCURVE",
"1346 1428 OFFCURVE",
"918 1428 CURVE SMOOTH",
"490 1428 OFFCURVE",
"166 1158 OFFCURVE",
"166 756 CURVE SMOOTH",
"166 644 LINE SMOOTH"
);
},
{
closed = 1;
nodes = (
"572 124 OFFCURVE",
"334 342 OFFCURVE",
"334 656 CURVE SMOOTH",
"334 744 LINE SMOOTH",
"334 1040 OFFCURVE",
"572 1276 OFFCURVE",
"918 1276 CURVE SMOOTH",
"1264 1276 OFFCURVE",
"1502 1040 OFFCURVE",
"1502 744 CURVE SMOOTH",
"1502 656 LINE SMOOTH",
"1502 342 OFFCURVE",
"1264 124 OFFCURVE",
"918 124 CURVE SMOOTH"
);
}
);
width = 1836;
}
);
unicode = 004F;
},
{
glyphname = P;
lastChange = "2019-01-23 17:14:56 +0000";
layers = (
{
layerId = "FBAFFF81-1F8B-4B58-9158-C4AF3F48F88C";
paths = (
{
closed = 1;
nodes = (
"338 0 LINE",
"338 576 LINE",
"670 576 LINE SMOOTH",
"954 576 OFFCURVE",
"1098 756 OFFCURVE",
"1098 960 CURVE SMOOTH",
"1098 1020 LINE SMOOTH",
"1098 1222 OFFCURVE",
"956 1400 OFFCURVE",
"670 1400 CURVE SMOOTH",
"170 1400 LINE",
"170 0 LINE"
);
},
{
closed = 1;
nodes = (
"338 1244 LINE",
"650 1244 LINE SMOOTH",
"838 1244 OFFCURVE",
"930 1148 OFFCURVE",
"930 1008 CURVE SMOOTH",
"930 972 LINE SMOOTH",
"930 812 OFFCURVE",
"838 732 OFFCURVE",
"650 732 CURVE SMOOTH",
"338 732 LINE"
);
}
);
width = 1224;
},
{
layerId = "50C9B437-FF28-4DF4-B0E6-290519DD406F";
paths = (
{
closed = 1;
nodes = (
"408 0 LINE",
"408 528 LINE",
"692 528 LINE SMOOTH",
"978 528 OFFCURVE",
"1120 738 OFFCURVE",
"1120 946 CURVE SMOOTH",
"1120 994 LINE SMOOTH",
"1120 1196 OFFCURVE",
"978 1400 OFFCURVE",
"692 1400 CURVE SMOOTH",
"144 1400 LINE",
"144 0 LINE"
);
},
{
closed = 1;
nodes = (
"408 1148 LINE",
"666 1148 LINE SMOOTH",
"782 1148 OFFCURVE",
"856 1078 OFFCURVE",
"856 976 CURVE SMOOTH",
"856 952 LINE SMOOTH",
"856 850 OFFCURVE",
"782 780 OFFCURVE",
"666 780 CURVE SMOOTH",
"408 780 LINE"
);
}
);
width = 1224;
},
{
layerId = "6008D70E-46A9-43E5-86AA-D196D19196A4";
paths = (
{
closed = 1;
nodes = (
"192 0 LINE",
"314 576 LINE",
"634 576 LINE SMOOTH",
"962 576 OFFCURVE",
"1162 788 OFFCURVE",
"1162 1066 CURVE SMOOTH",
"1162 1066 LINE SMOOTH",
"1162 1260 OFFCURVE",
"1016 1400 OFFCURVE",
"778 1400 CURVE SMOOTH",
"322 1400 LINE",
"24 0 LINE"
);
},
{
closed = 1;
nodes = (
"456 1244 LINE",
"754 1244 LINE SMOOTH",
"906 1244 OFFCURVE",
"990 1176 OFFCURVE",
"990 1036 CURVE SMOOTH",
"990 1036 LINE SMOOTH",
"990 848 OFFCURVE",
"846 732 OFFCURVE",
"648 732 CURVE SMOOTH",
"348 732 LINE"
);
}
);
width = 1224;
},
{
layerId = "612FA678-EA3C-4672-88DD-29ED08259473";
paths = (
{
closed = 1;
nodes = (
"262 0 LINE",
"374 528 LINE",
"648 528 LINE SMOOTH",
"968 528 OFFCURVE",
"1180 728 OFFCURVE",
"1180 1028 CURVE SMOOTH",
"1180 1028 LINE SMOOTH",
"1180 1240 OFFCURVE",
"1032 1400 OFFCURVE",
"796 1400 CURVE SMOOTH",
"296 1400 LINE",
"0 0 LINE"
);
},
{
closed = 1;
nodes = (
"506 1148 LINE",
"740 1148 LINE SMOOTH",
"840 1148 OFFCURVE",
"910 1094 OFFCURVE",
"910 996 CURVE SMOOTH",
"910 996 LINE SMOOTH",
"910 870 OFFCURVE",
"806 780 OFFCURVE",
"672 780 CURVE SMOOTH",
"428 780 LINE"
);
}
);
width = 1224;
}
);
unicode = 0050;
},
{
color = 5;
glyphname = Q;
lastChange = "2019-01-23 17:14:56 +0000";
layers = (
{
components = (
{
name = O;
},
{
name = _tail.Q;
}
);
layerId = "50C9B437-FF28-4DF4-B0E6-290519DD406F";
width = 1224;
},
{
components = (
{
name = O;
},
{
name = _tail.Q;
}
);
layerId = "6008D70E-46A9-43E5-86AA-D196D19196A4";
width = 1224;
},
{
components = (
{
name = O;
},
{
name = _tail.Q;
}
);
layerId = "612FA678-EA3C-4672-88DD-29ED08259473";
width = 1224;
},
{
associatedMasterId = "FBAFFF81-1F8B-4B58-9158-C4AF3F48F88C";
layerId = "587BB6D3-CFF2-45C1-BACF-1D2E48042002";
name = "Sep 16 18, 09:07";
paths = (
{
closed = 1;
nodes = (
"120 204 OFFCURVE",
"272 8 OFFCURVE",
"534 -24 CURVE",
"534 -156 LINE SMOOTH",
"534 -246 OFFCURVE",
"598 -312 OFFCURVE",
"688 -312 CURVE SMOOTH",
"912 -312 LINE",
"912 -168 LINE",
"744 -168 LINE SMOOTH",
"706 -168 OFFCURVE",
"690 -146 OFFCURVE",
"690 -108 CURVE SMOOTH",
"690 -24 LINE",
"950 6 OFFCURVE",
"1104 204 OFFCURVE",
"1104 544 CURVE SMOOTH",
"1104 856 LINE SMOOTH",
"1104 1216 OFFCURVE",
"920 1428 OFFCURVE",
"612 1428 CURVE SMOOTH",
"304 1428 OFFCURVE",
"120 1216 OFFCURVE",
"120 856 CURVE SMOOTH",
"120 544 LINE SMOOTH"
);
},
{
closed = 1;
nodes = (
"396 128 OFFCURVE",
"288 284 OFFCURVE",
"288 556 CURVE SMOOTH",
"288 844 LINE SMOOTH",
"288 1100 OFFCURVE",
"396 1272 OFFCURVE",
"612 1272 CURVE SMOOTH",
"828 1272 OFFCURVE",
"936 1100 OFFCURVE",
"936 844 CURVE SMOOTH",
"936 556 LINE SMOOTH",
"936 284 OFFCURVE",
"828 128 OFFCURVE",
"612 128 CURVE SMOOTH"
);
}
);
width = 1224;
},
{
components = (
{
name = O;
},
{
name = _tail.Q;
}
);
layerId = "FBAFFF81-1F8B-4B58-9158-C4AF3F48F88C";
width = 1224;
},
{
associatedMasterId = "6008D70E-46A9-43E5-86AA-D196D19196A4";
layerId = "F3F960E5-F7DA-4D10-999A-C68F40EF91CC";
name = "Sep 16 18, 09:08";
paths = (
{
closed = 1;
nodes = (
"78 504 OFFCURVE",
"72 444 OFFCURVE",
"72 390 CURVE SMOOTH",
"72 166 OFFCURVE",
"176 18 OFFCURVE",
"368 -18 CURVE",
"344 -132 LINE SMOOTH",
"340 -152 OFFCURVE",
"340 -158 OFFCURVE",
"340 -170 CURVE SMOOTH",
"340 -252 OFFCURVE",
"402 -312 OFFCURVE",
"488 -312 CURVE SMOOTH",
"716 -312 LINE",
"716 -168 LINE",
"548 -168 LINE SMOOTH",
"518 -168 OFFCURVE",
"504 -154 OFFCURVE",
"504 -128 CURVE SMOOTH",
"504 -124 OFFCURVE",
"504 -120 OFFCURVE",
"506 -108 CURVE SMOOTH",
"524 -26 LINE",
"820 -6 OFFCURVE",
"998 192 OFFCURVE",
"1072 544 CURVE SMOOTH",
"1134 834 LINE SMOOTH",
"1148 896 OFFCURVE",
"1154 956 OFFCURVE",
"1154 1010 CURVE SMOOTH",
"1154 1270 OFFCURVE",
"1012 1428 OFFCURVE",
"754 1428 CURVE SMOOTH",
"426 1428 OFFCURVE",
"232 1228 OFFCURVE",
"154 856 CURVE SMOOTH",
"92 566 LINE SMOOTH"
);
},
{
closed = 1;
nodes = (
"326 124 OFFCURVE",
"240 232 OFFCURVE",
"240 404 CURVE SMOOTH",
"240 446 OFFCURVE",
"246 494 OFFCURVE",
"256 544 CURVE SMOOTH",
"320 844 LINE SMOOTH",
"376 1106 OFFCURVE",
"510 1276 OFFCURVE",
"730 1276 CURVE SMOOTH",
"900 1276 OFFCURVE",
"986 1168 OFFCURVE",
"986 996 CURVE SMOOTH",
"986 954 OFFCURVE",
"980 906 OFFCURVE",
"970 856 CURVE SMOOTH",
"906 556 LINE SMOOTH",
"850 296 OFFCURVE",
"716 124 OFFCURVE",
"496 124 CURVE SMOOTH"
);
}
);
width = 1224;
},
{
associatedMasterId = "612FA678-EA3C-4672-88DD-29ED08259473";
layerId = "61624741-A30D-4629-BD93-ABE96194AA10";
name = "Sep 16 18, 09:10";
paths = (
{
closed = 1;
nodes = (
"54 498 OFFCURVE",
"50 452 OFFCURVE",
"50 408 CURVE SMOOTH",
"50 218 OFFCURVE",
"140 64 OFFCURVE",
"308 2 CURVE",
"280 -120 LINE SMOOTH",
"276 -140 OFFCURVE",
"272 -160 OFFCURVE",
"272 -180 CURVE SMOOTH",
"272 -278 OFFCURVE",
"348 -348 OFFCURVE",
"460 -348 CURVE SMOOTH",
"698 -348 LINE",
"698 -108 LINE",
"586 -108 LINE SMOOTH",
"558 -108 OFFCURVE",
"542 -94 OFFCURVE",
"542 -70 CURVE SMOOTH",
"542 -64 OFFCURVE",
"542 -62 OFFCURVE",
"544 -52 CURVE SMOOTH",
"550 -26 LINE",
"848 -4 OFFCURVE",
"1018 176 OFFCURVE",
"1096 544 CURVE SMOOTH",
"1162 856 LINE SMOOTH",
"1172 902 OFFCURVE",
"1176 948 OFFCURVE",
"1176 992 CURVE SMOOTH",
"1176 1240 OFFCURVE",
"1018 1428 OFFCURVE",
"736 1428 CURVE SMOOTH",
"400 1428 OFFCURVE",
"212 1248 OFFCURVE",
"130 856 CURVE SMOOTH",
"64 544 LINE SMOOTH"
);
},
{
closed = 1;
nodes = (
"386 212 OFFCURVE",
"312 294 OFFCURVE",
"312 428 CURVE SMOOTH",
"312 458 OFFCURVE",
"316 492 OFFCURVE",
"324 528 CURVE SMOOTH",
"398 872 LINE SMOOTH",
"436 1048 OFFCURVE",
"530 1188 OFFCURVE",
"712 1188 CURVE SMOOTH",
"840 1188 OFFCURVE",
"914 1106 OFFCURVE",
"914 972 CURVE SMOOTH",
"914 942 OFFCURVE",
"910 914 OFFCURVE",
"902 872 CURVE SMOOTH",
"828 528 LINE SMOOTH",
"790 352 OFFCURVE",
"696 212 OFFCURVE",
"514 212 CURVE SMOOTH"
);
}
);
width = 1224;
},
{
associatedMasterId = "50C9B437-FF28-4DF4-B0E6-290519DD406F";
layerId = "42E14310-08EF-4656-8E7F-E582C14BD3BB";
name = "Sep 16 18, 09:10";
paths = (
{
closed = 1;
nodes = (
"486 -264 OFFCURVE",
"568 -348 OFFCURVE",
"676 -348 CURVE SMOOTH",
"912 -348 LINE",
"912 -108 LINE",
"788 -108 LINE SMOOTH",
"752 -108 OFFCURVE",
"738 -88 OFFCURVE",
"738 -52 CURVE SMOOTH",
"738 -16 LINE",
"982 30 OFFCURVE",
"1128 224 OFFCURVE",
"1128 544 CURVE SMOOTH",
"1128 856 LINE SMOOTH",
"1128 1216 OFFCURVE",
"932 1428 OFFCURVE",
"612 1428 CURVE SMOOTH",
"292 1428 OFFCURVE",
"96 1216 OFFCURVE",
"96 856 CURVE SMOOTH",
"96 544 LINE SMOOTH",
"96 224 OFFCURVE",
"240 30 OFFCURVE",
"486 -16 CURVE",
"486 -156 LINE SMOOTH"
);
},
{
closed = 1;
nodes = (
"420 212 OFFCURVE",
"360 344 OFFCURVE",
"360 532 CURVE SMOOTH",
"360 868 LINE SMOOTH",
"360 1044 OFFCURVE",
"432 1188 OFFCURVE",
"612 1188 CURVE SMOOTH",
"792 1188 OFFCURVE",
"864 1044 OFFCURVE",
"864 868 CURVE SMOOTH",
"864 532 LINE SMOOTH",
"864 344 OFFCURVE",
"804 212 OFFCURVE",
"612 212 CURVE SMOOTH"
);
}
);
width = 1224;
}
);
unicode = 0051;
},
{
glyphname = R;
lastChange = "2019-01-23 17:14:56 +0000";
layers = (
{
layerId = "FBAFFF81-1F8B-4B58-9158-C4AF3F48F88C";
paths = (
{
closed = 1;
nodes = (
"338 0 LINE",
"338 576 LINE",
"774 576 LINE SMOOTH",
"854 576 OFFCURVE",
"882 536 OFFCURVE",
"882 468 CURVE SMOOTH",
"882 0 LINE",
"1050 0 LINE",
"1050 504 LINE SMOOTH",
"1050 596 OFFCURVE",
"1002 648 OFFCURVE",
"922 660 CURVE",
"922 684 LINE",
"1042 740 OFFCURVE",
"1098 856 OFFCURVE",
"1098 960 CURVE SMOOTH",
"1098 1020 LINE SMOOTH",
"1098 1222 OFFCURVE",
"956 1400 OFFCURVE",
"670 1400 CURVE SMOOTH",
"170 1400 LINE",
"170 0 LINE"
);
},
{
closed = 1;
nodes = (
"338 1244 LINE",
"650 1244 LINE SMOOTH",
"838 1244 OFFCURVE",
"930 1148 OFFCURVE",
"930 1008 CURVE SMOOTH",
"930 972 LINE SMOOTH",
"930 816 OFFCURVE",
"838 732 OFFCURVE",
"650 732 CURVE SMOOTH",
"338 732 LINE"
);
}
);
width = 1224;
},
{
layerId = "50C9B437-FF28-4DF4-B0E6-290519DD406F";
paths = (
{
closed = 1;
nodes = (
"410 0 LINE",
"410 528 LINE",
"714 528 LINE SMOOTH",
"790 528 OFFCURVE",
"822 484 OFFCURVE",
"822 420 CURVE SMOOTH",
"822 0 LINE",
"1086 0 LINE",
"1086 484 LINE SMOOTH",
"1086 576 OFFCURVE",
"1028 644 OFFCURVE",
"934 654 CURVE",
"934 690 LINE",
"1060 744 OFFCURVE",
"1122 852 OFFCURVE",
"1122 966 CURVE SMOOTH",
"1122 1014 LINE SMOOTH",
"1122 1228 OFFCURVE",
"968 1400 OFFCURVE",
"682 1400 CURVE SMOOTH",
"146 1400 LINE",
"146 0 LINE"
);
},
{
closed = 1;
nodes = (
"410 1148 LINE",
"662 1148 LINE SMOOTH",
"790 1148 OFFCURVE",
"858 1068 OFFCURVE",
"858 976 CURVE SMOOTH",
"858 952 LINE SMOOTH",
"858 844 OFFCURVE",
"790 780 OFFCURVE",
"662 780 CURVE SMOOTH",
"410 780 LINE"
);
}
);
width = 1224;
},
{
background = {
paths = (
{
closed = 1;
nodes = (
"184 0 LINE",
"306 576 LINE",
"748 576 LINE SMOOTH",
"808 576 OFFCURVE",
"832 550 OFFCURVE",
"832 506 CURVE SMOOTH",
"832 490 OFFCURVE",
"830 476 OFFCURVE",
"828 468 CURVE SMOOTH",
"728 0 LINE",
"896 0 LINE",
"1004 504 LINE SMOOTH",
"1008 522 OFFCURVE",
"1010 534 OFFCURVE",
"1010 548 CURVE SMOOTH",
"1010 614 OFFCURVE",
"970 654 OFFCURVE",
"904 660 CURVE",
"904 684 LINE",
"1064 750 OFFCURVE",
"1164 882 OFFCURVE",
"1164 1058 CURVE SMOOTH",
"1164 1272 OFFCURVE",
"1024 1400 OFFCURVE",
"788 1400 CURVE SMOOTH",
"314 1400 LINE",
"16 0 LINE"
);
},
{
closed = 1;
nodes = (
"448 1244 LINE",
"756 1244 LINE SMOOTH",
"912 1244 OFFCURVE",
"994 1172 OFFCURVE",
"994 1040 CURVE SMOOTH",
"994 864 OFFCURVE",
"848 732 OFFCURVE",
"648 732 CURVE SMOOTH",
"340 732 LINE"
);
}
);
};
layerId = "6008D70E-46A9-43E5-86AA-D196D19196A4";
paths = (
{
closed = 1;
nodes = (
"184 0 LINE",
"306 576 LINE",
"748 576 LINE SMOOTH",
"824 576 OFFCURVE",
"842 532 OFFCURVE",
"828 468 CURVE SMOOTH",
"728 0 LINE",
"896 0 LINE",
"1004 504 LINE SMOOTH",
"1024 594 OFFCURVE",
"988 652 OFFCURVE",
"904 660 CURVE",
"904 684 LINE",
"1064 750 OFFCURVE",
"1164 882 OFFCURVE",
"1164 1058 CURVE SMOOTH",
"1164 1058 LINE SMOOTH",
"1164 1272 OFFCURVE",
"1024 1400 OFFCURVE",
"788 1400 CURVE SMOOTH",
"314 1400 LINE",
"16 0 LINE"
);
},
{
closed = 1;
nodes = (
"448 1244 LINE",
"756 1244 LINE SMOOTH",
"912 1244 OFFCURVE",
"994 1172 OFFCURVE",
"994 1040 CURVE SMOOTH",
"994 1040 LINE SMOOTH",
"994 864 OFFCURVE",
"848 732 OFFCURVE",
"648 732 CURVE SMOOTH",
"340 732 LINE"
);
}
);
width = 1224;
},
{
background = {
paths = (
{
closed = 1;
nodes = (
"262 0 LINE",
"374 528 LINE",
"664 528 LINE SMOOTH",
"726 528 OFFCURVE",
"754 498 OFFCURVE",
"754 452 CURVE SMOOTH",
"754 442 OFFCURVE",
"752 430 OFFCURVE",
"750 420 CURVE SMOOTH",
"660 0 LINE",
"928 0 LINE",
"1032 484 LINE SMOOTH",
"1034 494 OFFCURVE",
"1036 508 OFFCURVE",
"1036 524 CURVE SMOOTH",
"1036 596 OFFCURVE",
"994 646 OFFCURVE",
"916 654 CURVE",
"916 690 LINE",
"1098 750 OFFCURVE",
"1188 870 OFFCURVE",
"1188 1064 CURVE SMOOTH",
"1188 1248 OFFCURVE",
"1052 1400 OFFCURVE",
"788 1400 CURVE SMOOTH",
"296 1400 LINE",
"0 0 LINE"
);
},
{
closed = 1;
nodes = (
"506 1148 LINE",
"744 1148 LINE SMOOTH",
"856 1148 OFFCURVE",
"910 1088 OFFCURVE",
"910 988 CURVE SMOOTH",
"910 862 OFFCURVE",
"808 780 OFFCURVE",
"668 780 CURVE SMOOTH",
"428 780 LINE"
);
}
);
};
layerId = "612FA678-EA3C-4672-88DD-29ED08259473";
paths = (
{
closed = 1;
nodes = (
"262 0 LINE",
"374 528 LINE",
"664 528 LINE SMOOTH",
"728 528 OFFCURVE",
"766 496 OFFCURVE",
"750 420 CURVE SMOOTH",
"660 0 LINE",
"928 0 LINE",
"1032 484 LINE SMOOTH",
"1050 576 OFFCURVE",
"1008 644 OFFCURVE",
"916 654 CURVE",
"916 690 LINE",
"1098 750 OFFCURVE",
"1188 870 OFFCURVE",
"1188 1064 CURVE SMOOTH",
"1188 1064 LINE SMOOTH",
"1188 1248 OFFCURVE",
"1052 1400 OFFCURVE",
"788 1400 CURVE SMOOTH",
"296 1400 LINE",
"0 0 LINE"
);
},
{
closed = 1;
nodes = (
"506 1148 LINE",
"744 1148 LINE SMOOTH",
"856 1148 OFFCURVE",
"910 1088 OFFCURVE",
"910 988 CURVE SMOOTH",
"910 988 LINE SMOOTH",
"910 862 OFFCURVE",
"808 780 OFFCURVE",
"668 780 CURVE SMOOTH",
"428 780 LINE"
);
}
);
width = 1224;
}
);
unicode = 0052;
},
{
color = 2;
glyphname = S;
lastChange = "2019-01-23 17:14:56 +0000";
layers = (
{
layerId = "FBAFFF81-1F8B-4B58-9158-C4AF3F48F88C";
paths = (
{
closed = 1;
nodes = (
"954 -28 OFFCURVE",
"1122 138 OFFCURVE",
"1122 380 CURVE SMOOTH",
"1122 404 LINE SMOOTH",
"1122 616 OFFCURVE",
"986 744 OFFCURVE",
"694 788 CURVE SMOOTH",
"444 826 OFFCURVE",
"318 884 OFFCURVE",
"318 1038 CURVE SMOOTH",
"318 1050 LINE SMOOTH",
"318 1192 OFFCURVE",
"458 1272 OFFCURVE",
"610 1272 CURVE SMOOTH",
"786 1272 OFFCURVE",
"942 1178 OFFCURVE",
"942 996 CURVE SMOOTH",
"942 924 LINE",
"1110 924 LINE",
"1110 1008 LINE SMOOTH",
"1110 1234 OFFCURVE",
"928 1428 OFFCURVE",
"612 1428 CURVE SMOOTH",
"340 1428 OFFCURVE",
"150 1274 OFFCURVE",
"150 1056 CURVE SMOOTH",
"150 1032 LINE SMOOTH",
"150 792 OFFCURVE",
"330 684 OFFCURVE",
"610 644 CURVE SMOOTH",
"852 610 OFFCURVE",
"954 538 OFFCURVE",
"954 392 CURVE SMOOTH",
"954 380 LINE SMOOTH",
"954 230 OFFCURVE",
"848 128 OFFCURVE",
"640 128 CURVE SMOOTH",
"402 128 OFFCURVE",
"258 252 OFFCURVE",
"258 496 CURVE SMOOTH",
"258 544 LINE",
"90 544 LINE",
"90 484 LINE SMOOTH",
"90 192 OFFCURVE",
"282 -28 OFFCURVE",
"640 -28 CURVE SMOOTH"
);
}
);
width = 1224;
},
{
layerId = "50C9B437-FF28-4DF4-B0E6-290519DD406F";
paths = (
{
closed = 1;
nodes = (
"946 -28 OFFCURVE",
"1140 140 OFFCURVE",
"1140 400 CURVE SMOOTH",
"1140 424 LINE SMOOTH",
"1140 668 OFFCURVE",
"980 784 OFFCURVE",
"688 836 CURVE SMOOTH",
"456 878 OFFCURVE",
"388 932 OFFCURVE",
"388 1028 CURVE SMOOTH",
"388 1028 LINE SMOOTH",
"388 1120 OFFCURVE",
"472 1180 OFFCURVE",
"604 1180 CURVE SMOOTH",
"760 1180 OFFCURVE",
"852 1084 OFFCURVE",
"852 972 CURVE SMOOTH",
"852 924 LINE",
"1116 924 LINE",
"1116 996 LINE SMOOTH",
"1116 1224 OFFCURVE",
"936 1428 OFFCURVE",
"604 1428 CURVE SMOOTH",
"312 1428 OFFCURVE",
"120 1256 OFFCURVE",
"120 1028 CURVE SMOOTH",
"120 1016 LINE SMOOTH",
"120 740 OFFCURVE",
"324 644 OFFCURVE",
"604 596 CURVE SMOOTH",
"820 560 OFFCURVE",
"872 488 OFFCURVE",
"872 396 CURVE SMOOTH",
"872 396 LINE SMOOTH",
"872 300 OFFCURVE",
"796 220 OFFCURVE",
"636 220 CURVE SMOOTH",
"432 220 OFFCURVE",
"336 328 OFFCURVE",
"336 496 CURVE SMOOTH",
"336 544 LINE",
"72 544 LINE",
"72 484 LINE SMOOTH",
"72 192 OFFCURVE",
"264 -28 OFFCURVE",
"632 -28 CURVE SMOOTH"
);
}
);
width = 1224;
},
{
background = {
paths = (
{
closed = 1;
nodes = (
"818 -28 OFFCURVE",
"1062 136 OFFCURVE",
"1062 434 CURVE SMOOTH",
"1062 628 OFFCURVE",
"950 748 OFFCURVE",
"706 788 CURVE SMOOTH",
"490 824 OFFCURVE",
"364 872 OFFCURVE",
"364 1026 CURVE SMOOTH",
"364 1184 OFFCURVE",
"542 1272 OFFCURVE",
"720 1272 CURVE SMOOTH",
"874 1272 OFFCURVE",
"1002 1198 OFFCURVE",
"1002 1044 CURVE SMOOTH",
"1002 1022 OFFCURVE",
"1000 1006 OFFCURVE",
"994 976 CURVE SMOOTH",
"982 924 LINE",
"1150 924 LINE",
"1166 996 LINE SMOOTH",
"1172 1022 OFFCURVE",
"1174 1050 OFFCURVE",
"1174 1076 CURVE SMOOTH",
"1174 1270 OFFCURVE",
"1012 1428 OFFCURVE",
"734 1428 CURVE SMOOTH",
"430 1428 OFFCURVE",
"192 1272 OFFCURVE",
"192 1000 CURVE SMOOTH",
"192 788 OFFCURVE",
"348 688 OFFCURVE",
"570 652 CURVE SMOOTH",
"802 616 OFFCURVE",
"888 562 OFFCURVE",
"888 414 CURVE SMOOTH",
"888 236 OFFCURVE",
"710 128 OFFCURVE",
"518 128 CURVE SMOOTH",
"320 128 OFFCURVE",
"208 210 OFFCURVE",
"208 386 CURVE SMOOTH",
"208 420 OFFCURVE",
"212 456 OFFCURVE",
"220 496 CURVE SMOOTH",
"230 544 LINE",
"62 544 LINE",
"50 484 LINE SMOOTH",
"42 442 OFFCURVE",
"38 400 OFFCURVE",
"38 362 CURVE SMOOTH",
"38 134 OFFCURVE",
"192 -28 OFFCURVE",
"498 -28 CURVE SMOOTH"
);
}
);
};
layerId = "6008D70E-46A9-43E5-86AA-D196D19196A4";
paths = (
{
closed = 1;
nodes = (
"818 -28 OFFCURVE",
"1062 136 OFFCURVE",
"1062 434 CURVE SMOOTH",
"1062 434 LINE SMOOTH",
"1062 628 OFFCURVE",
"950 748 OFFCURVE",
"706 788 CURVE SMOOTH",
"490 824 OFFCURVE",
"364 872 OFFCURVE",
"364 1026 CURVE SMOOTH",
"364 1026 LINE SMOOTH",
"364 1184 OFFCURVE",
"542 1272 OFFCURVE",
"720 1272 CURVE SMOOTH",
"902 1272 OFFCURVE",
"1038 1170 OFFCURVE",
"994 976 CURVE SMOOTH",
"982 924 LINE",
"1150 924 LINE",
"1166 996 LINE SMOOTH",
"1216 1224 OFFCURVE",
"1050 1428 OFFCURVE",
"734 1428 CURVE SMOOTH",
"430 1428 OFFCURVE",
"192 1272 OFFCURVE",
"192 1000 CURVE SMOOTH",
"192 1000 LINE SMOOTH",
"192 788 OFFCURVE",
"348 688 OFFCURVE",
"570 652 CURVE SMOOTH",
"802 616 OFFCURVE",
"888 562 OFFCURVE",
"888 414 CURVE",
"888 414 LINE",
"888 236 OFFCURVE",
"710 128 OFFCURVE",
"518 128 CURVE SMOOTH",
"278 128 OFFCURVE",
"170 248 OFFCURVE",
"220 496 CURVE SMOOTH",
"230 544 LINE",
"62 544 LINE",
"50 484 LINE SMOOTH",
"-12 164 OFFCURVE",
"168 -28 OFFCURVE",
"498 -28 CURVE SMOOTH"
);
}
);
width = 1224;
},
{
background = {
paths = (
{
closed = 1;
nodes = (
"876 -28 OFFCURVE",
"1100 160 OFFCURVE",
"1100 462 CURVE SMOOTH",
"1100 690 OFFCURVE",
"948 800 OFFCURVE",
"700 840 CURVE SMOOTH",
"524 868 OFFCURVE",
"450 918 OFFCURVE",
"450 1012 CURVE SMOOTH",
"450 1126 OFFCURVE",
"568 1180 OFFCURVE",
"692 1180 CURVE SMOOTH",
"846 1180 OFFCURVE",
"920 1108 OFFCURVE",
"920 1004 CURVE SMOOTH",
"920 986 OFFCURVE",
"918 970 OFFCURVE",
"914 950 CURVE SMOOTH",
"908 924 LINE",
"1172 924 LINE",
"1180 960 LINE SMOOTH",
"1188 998 OFFCURVE",
"1190 1024 OFFCURVE",
"1190 1054 CURVE SMOOTH",
"1190 1268 OFFCURVE",
"1014 1428 OFFCURVE",
"716 1428 CURVE SMOOTH",
"366 1428 OFFCURVE",
"174 1240 OFFCURVE",
"174 988 CURVE SMOOTH",
"174 742 OFFCURVE",
"360 636 OFFCURVE",
"546 608 CURVE SMOOTH",
"742 578 OFFCURVE",
"820 526 OFFCURVE",
"820 426 CURVE SMOOTH",
"820 298 OFFCURVE",
"714 220 OFFCURVE",
"540 220 CURVE SMOOTH",
"378 220 OFFCURVE",
"296 298 OFFCURVE",
"296 424 CURVE SMOOTH",
"296 456 OFFCURVE",
"298 482 OFFCURVE",
"304 510 CURVE SMOOTH",
"312 544 LINE",
"48 544 LINE",
"38 498 LINE SMOOTH",
"30 462 OFFCURVE",
"28 426 OFFCURVE",
"28 392 CURVE SMOOTH",
"28 160 OFFCURVE",
"186 -28 OFFCURVE",
"524 -28 CURVE SMOOTH"
);
}
);
};
layerId = "612FA678-EA3C-4672-88DD-29ED08259473";
paths = (
{
closed = 1;
nodes = (
"876 -28 OFFCURVE",
"1100 160 OFFCURVE",
"1100 462 CURVE SMOOTH",
"1100 462 LINE SMOOTH",
"1100 690 OFFCURVE",
"948 800 OFFCURVE",
"700 840 CURVE SMOOTH",
"524 868 OFFCURVE",
"450 918 OFFCURVE",
"450 1012 CURVE SMOOTH",
"450 1012 LINE SMOOTH",
"450 1126 OFFCURVE",
"568 1180 OFFCURVE",
"692 1180 CURVE SMOOTH",
"846 1180 OFFCURVE",
"946 1106 OFFCURVE",
"914 950 CURVE SMOOTH",
"908 924 LINE",
"1172 924 LINE",
"1180 960 LINE SMOOTH",
"1240 1240 OFFCURVE",
"1034 1428 OFFCURVE",
"716 1428 CURVE SMOOTH",
"366 1428 OFFCURVE",
"174 1240 OFFCURVE",
"174 988 CURVE SMOOTH",
"174 988 LINE SMOOTH",
"174 742 OFFCURVE",
"360 636 OFFCURVE",
"546 608 CURVE SMOOTH",
"742 578 OFFCURVE",
"820 526 OFFCURVE",
"820 426 CURVE SMOOTH",
"820 426 LINE SMOOTH",
"820 298 OFFCURVE",
"714 220 OFFCURVE",
"540 220 CURVE SMOOTH",
"348 220 OFFCURVE",
"266 330 OFFCURVE",
"304 510 CURVE SMOOTH",
"312 544 LINE",
"48 544 LINE",
"38 498 LINE SMOOTH",
"-20 228 OFFCURVE",
"136 -28 OFFCURVE",
"524 -28 CURVE SMOOTH"
);
}
);
width = 1224;
}
);
unicode = 0053;
},
{
glyphname = T;
lastChange = "2019-01-23 17:14:56 +0000";
layers = (
{
layerId = "FBAFFF81-1F8B-4B58-9158-C4AF3F48F88C";
paths = (
{
closed = 1;
nodes = (
"696 0 LINE",
"696 1244 LINE",
"1104 1244 LINE",
"1104 1400 LINE",
"120 1400 LINE",
"120 1244 LINE",
"528 1244 LINE",
"528 0 LINE"
);
}
);
width = 1224;
},
{
layerId = "50C9B437-FF28-4DF4-B0E6-290519DD406F";
paths = (
{
closed = 1;
nodes = (
"744 0 LINE",
"744 1148 LINE",
"1116 1148 LINE",
"1116 1400 LINE",
"108 1400 LINE",
"108 1148 LINE",
"480 1148 LINE",
"480 0 LINE"
);
}
);
width = 1224;
},
{
layerId = "6008D70E-46A9-43E5-86AA-D196D19196A4";
paths = (
{
closed = 1;
nodes = (
"542 0 LINE",
"806 1244 LINE",
"1212 1244 LINE",
"1212 1400 LINE",
"206 1400 LINE",
"206 1244 LINE",
"638 1244 LINE",
"374 0 LINE"
);
}
);
width = 1224;
},
{
layerId = "612FA678-EA3C-4672-88DD-29ED08259473";
paths = (
{
closed = 1;
nodes = (
"592 0 LINE",
"836 1148 LINE",
"1208 1148 LINE",
"1208 1400 LINE",
"200 1400 LINE",
"200 1148 LINE",
"572 1148 LINE",
"328 0 LINE"
);
}
);
width = 1224;
}
);
unicode = 0054;
},
{
glyphname = U;
lastChange = "2019-01-23 17:14:56 +0000";
layers = (
{
layerId = "FBAFFF81-1F8B-4B58-9158-C4AF3F48F88C";
paths = (
{
closed = 1;
nodes = (
"908 -28 OFFCURVE",
"1092 148 OFFCURVE",
"1092 472 CURVE SMOOTH",
"1092 1400 LINE",
"924 1400 LINE",
"924 472 LINE SMOOTH",
"924 248 OFFCURVE",
"816 128 OFFCURVE",
"612 128 CURVE SMOOTH",
"408 128 OFFCURVE",
"300 248 OFFCURVE",
"300 472 CURVE SMOOTH",
"300 1400 LINE",
"132 1400 LINE",
"132 472 LINE SMOOTH",
"132 148 OFFCURVE",
"316 -28 OFFCURVE",
"612 -28 CURVE SMOOTH"
);
}
);
width = 1224;
},
{
layerId = "50C9B437-FF28-4DF4-B0E6-290519DD406F";
paths = (
{
closed = 1;
nodes = (
"944 -28 OFFCURVE",
"1116 166 OFFCURVE",
"1116 484 CURVE SMOOTH",
"1116 1400 LINE",
"852 1400 LINE",
"852 484 LINE SMOOTH",
"852 320 OFFCURVE",
"776 220 OFFCURVE",
"612 220 CURVE SMOOTH",
"448 220 OFFCURVE",
"372 320 OFFCURVE",
"372 484 CURVE SMOOTH",
"372 1400 LINE",
"108 1400 LINE",
"108 484 LINE SMOOTH",
"108 166 OFFCURVE",
"280 -28 OFFCURVE",
"612 -28 CURVE SMOOTH"
);
}
);
width = 1224;
},
{
background = {
paths = (
{
closed = 1;
nodes = (
"790 -28 OFFCURVE",
"966 140 OFFCURVE",
"1036 472 CURVE SMOOTH",
"1232 1400 LINE",
"1064 1400 LINE",
"868 472 LINE SMOOTH",
"820 244 OFFCURVE",
"686 124 OFFCURVE",
"488 124 CURVE SMOOTH",
"326 124 OFFCURVE",
"242 204 OFFCURVE",
"242 356 CURVE SMOOTH",
"242 390 OFFCURVE",
"248 430 OFFCURVE",
"256 472 CURVE SMOOTH",
"452 1400 LINE",
"284 1400 LINE",
"90 484 LINE SMOOTH",
"78 432 OFFCURVE",
"74 384 OFFCURVE",
"74 340 CURVE SMOOTH",
"74 102 OFFCURVE",
"234 -28 OFFCURVE",
"464 -28 CURVE SMOOTH"
);
}
);
};
layerId = "6008D70E-46A9-43E5-86AA-D196D19196A4";
paths = (
{
closed = 1;
nodes = (
"790 -28 OFFCURVE",
"966 140 OFFCURVE",
"1036 472 CURVE SMOOTH",
"1232 1400 LINE",
"1064 1400 LINE",
"868 472 LINE SMOOTH",
"820 244 OFFCURVE",
"686 124 OFFCURVE",
"488 124 CURVE SMOOTH",
"278 124 OFFCURVE",
"210 256 OFFCURVE",
"256 472 CURVE SMOOTH",
"452 1400 LINE",
"284 1400 LINE",
"90 484 LINE SMOOTH",
"24 194 OFFCURVE",
"156 -28 OFFCURVE",
"464 -28 CURVE SMOOTH"
);
}
);
width = 1224;
},
{
background = {
paths = (
{
closed = 1;
nodes = (
"812 -28 OFFCURVE",
"982 124 OFFCURVE",
"1058 484 CURVE SMOOTH",
"1252 1400 LINE",
"988 1400 LINE",
"794 484 LINE SMOOTH",
"756 304 OFFCURVE",
"676 220 OFFCURVE",
"516 220 CURVE SMOOTH",
"392 220 OFFCURVE",
"328 288 OFFCURVE",
"328 402 CURVE SMOOTH",
"328 428 OFFCURVE",
"332 454 OFFCURVE",
"338 484 CURVE SMOOTH",
"532 1400 LINE",
"268 1400 LINE",
"80 508 LINE SMOOTH",
"68 454 OFFCURVE",
"66 416 OFFCURVE",
"66 374 CURVE SMOOTH",
"66 118 OFFCURVE",
"246 -28 OFFCURVE",
"488 -28 CURVE SMOOTH"
);
}
);
};
layerId = "612FA678-EA3C-4672-88DD-29ED08259473";
paths = (
{
closed = 1;
nodes = (
"812 -28 OFFCURVE",
"982 124 OFFCURVE",
"1058 484 CURVE SMOOTH",
"1252 1400 LINE",
"988 1400 LINE",
"794 484 LINE SMOOTH",
"756 304 OFFCURVE",
"676 220 OFFCURVE",
"516 220 CURVE SMOOTH",
"370 220 OFFCURVE",
"302 312 OFFCURVE",
"338 484 CURVE SMOOTH",
"532 1400 LINE",
"268 1400 LINE",
"80 508 LINE SMOOTH",
"16 208 OFFCURVE",
"170 -28 OFFCURVE",
"488 -28 CURVE SMOOTH"
);
}
);
width = 1224;
}
);
unicode = 0055;
},
{
glyphname = V;
lastChange = "2019-01-23 17:14:56 +0000";
layers = (
{
layerId = "FBAFFF81-1F8B-4B58-9158-C4AF3F48F88C";
paths = (
{
closed = 1;
nodes = (
"774 0 LINE",
"1170 1400 LINE",
"990 1400 LINE",
"624 72 LINE",
"600 72 LINE",
"234 1400 LINE",
"54 1400 LINE",
"450 0 LINE"
);
}
);
width = 1224;
},
{
layerId = "50C9B437-FF28-4DF4-B0E6-290519DD406F";
paths = (
{
closed = 1;
nodes = (
"860 0 LINE",
"1176 1400 LINE",
"904 1400 LINE",
"630 132 LINE",
"594 132 LINE",
"320 1400 LINE",
"48 1400 LINE",
"364 0 LINE"
);
}
);
width = 1224;
},
{
layerId = "6008D70E-46A9-43E5-86AA-D196D19196A4";
paths = (
{
closed = 1;
nodes = (
"600 0 LINE",
"1270 1400 LINE",
"1080 1400 LINE",
"456 72 LINE",
"432 72 LINE",
"372 1400 LINE",
"204 1400 LINE",
"278 0 LINE"
);
}
);
width = 1224;
},
{
layerId = "612FA678-EA3C-4672-88DD-29ED08259473";
paths = (
{
closed = 1;
nodes = (
"680 0 LINE",
"1294 1400 LINE",
"1008 1400 LINE",
"470 132 LINE",
"434 132 LINE",
"388 1400 LINE",
"120 1400 LINE",
"188 0 LINE"
);
}
);
width = 1224;
}
);
unicode = 0056;
},
{
color = 4;
glyphname = W;
lastChange = "2019-01-23 17:14:56 +0000";
layers = (
{
layerId = "FBAFFF81-1F8B-4B58-9158-C4AF3F48F88C";
paths = (
{
closed = 1;
nodes = (
"470 0 LINE",
"580 1124 LINE",
"600 1328 LINE",
"624 1328 LINE",
"644 1124 LINE",
"754 0 LINE",
"1060 0 LINE",
"1202 1400 LINE",
"1050 1400 LINE",
"938 290 LINE",
"916 72 LINE",
"892 72 LINE",
"872 282 LINE",
"766 1400 LINE",
"458 1400 LINE",
"352 282 LINE",
"332 72 LINE",
"308 72 LINE",
"286 290 LINE",
"174 1400 LINE",
"22 1400 LINE",
"164 0 LINE"
);
}
);
width = 1224;
},
{
layerId = "50C9B437-FF28-4DF4-B0E6-290519DD406F";
paths = (
{
closed = 1;
nodes = (
"524 0 LINE",
"588 1064 LINE",
"588 1256 LINE",
"636 1256 LINE",
"636 1064 LINE",
"700 0 LINE",
"1160 0 LINE",
"1208 1400 LINE",
"968 1400 LINE",
"936 336 LINE",
"936 156 LINE",
"888 156 LINE",
"888 336 LINE",
"824 1400 LINE",
"400 1400 LINE",
"336 336 LINE",
"336 156 LINE",
"288 156 LINE",
"288 336 LINE",
"256 1400 LINE",
"16 1400 LINE",
"64 0 LINE"
);
}
);
width = 1224;
},
{
layerId = "6008D70E-46A9-43E5-86AA-D196D19196A4";
paths = (
{
closed = 1;
nodes = (
"332 0 LINE",
"670 1128 LINE",
"730 1328 LINE",
"754 1328 LINE",
"730 1130 LINE",
"592 0 LINE",
"900 0 LINE",
"1328 1400 LINE",
"1172 1400 LINE",
"830 276 LINE",
"768 72 LINE",
"744 72 LINE",
"770 278 LINE",
"912 1400 LINE",
"600 1400 LINE",
"270 282 LINE",
"208 72 LINE",
"184 72 LINE",
"210 290 LINE",
"342 1400 LINE",
"190 1400 LINE",
"24 0 LINE"
);
}
);
width = 1224;
},
{
layerId = "612FA678-EA3C-4672-88DD-29ED08259473";
paths = (
{
closed = 1;
nodes = (
"392 0 LINE",
"662 1040 LINE",
"702 1256 LINE",
"750 1256 LINE",
"706 1016 LINE",
"572 0 LINE",
"1010 0 LINE",
"1356 1400 LINE",
"1116 1400 LINE",
"880 384 LINE",
"834 156 LINE",
"786 156 LINE",
"828 360 LINE",
"964 1400 LINE",
"544 1400 LINE",
"272 360 LINE",
"230 156 LINE",
"182 156 LINE",
"228 384 LINE",
"390 1400 LINE",
"150 1400 LINE",
"-40 0 LINE"
);
}
);
width = 1224;
}
);
unicode = 0057;
},
{
glyphname = X;
lastChange = "2019-01-23 17:14:56 +0000";
layers = (
{
layerId = "FBAFFF81-1F8B-4B58-9158-C4AF3F48F88C";
paths = (
{
closed = 1;
nodes = (
"280 0 LINE",
"594 624 LINE",
"630 624 LINE",
"944 0 LINE",
"1128 0 LINE",
"778 690 LINE",
"778 714 LINE",
"1128 1400 LINE",
"944 1400 LINE",
"630 780 LINE",
"594 780 LINE",
"280 1400 LINE",
"96 1400 LINE",
"446 714 LINE",
"446 690 LINE",
"96 0 LINE"
);
}
);
width = 1224;
},
{
layerId = "50C9B437-FF28-4DF4-B0E6-290519DD406F";
paths = (
{
closed = 1;
nodes = (
"352 0 LINE",
"588 576 LINE",
"636 576 LINE",
"872 0 LINE",
"1158 0 LINE",
"870 684 LINE",
"870 720 LINE",
"1158 1400 LINE",
"872 1400 LINE",
"636 828 LINE",
"588 828 LINE",
"352 1400 LINE",
"66 1400 LINE",
"354 720 LINE",
"354 684 LINE",
"66 0 LINE"
);
}
);
width = 1224;
},
{
layerId = "6008D70E-46A9-43E5-86AA-D196D19196A4";
paths = (
{
closed = 1;
nodes = (
"150 0 LINE",
"588 624 LINE",
"624 624 LINE",
"806 0 LINE",
"978 0 LINE",
"774 676 LINE",
"774 700 LINE",
"1276 1400 LINE",
"1078 1400 LINE",
"640 780 LINE",
"604 780 LINE",
"422 1400 LINE",
"250 1400 LINE",
"454 724 LINE",
"454 700 LINE",
"-46 0 LINE"
);
}
);
width = 1224;
},
{
layerId = "612FA678-EA3C-4672-88DD-29ED08259473";
paths = (
{
closed = 1;
nodes = (
"244 0 LINE",
"592 576 LINE",
"628 576 LINE",
"772 0 LINE",
"1052 0 LINE",
"872 672 LINE",
"872 708 LINE",
"1322 1400 LINE",
"1008 1400 LINE",
"660 828 LINE",
"624 828 LINE",
"472 1400 LINE",
"196 1400 LINE",
"380 732 LINE",
"380 696 LINE",
"-66 0 LINE"
);
}
);
width = 1224;
}
);
unicode = 0058;
userData = {
com.typemytype.robofont.guides = (
{
angle = 0;
isGlobal = 0;
magnetic = 5;
x = 0;
y = 390;
},
{
angle = 0;
isGlobal = 0;
magnetic = 5;
x = 0;
y = 312;
},
{
angle = 0;
isGlobal = 0;
magnetic = 5;
x = 0;
y = 351;
}
);
};
},
{
glyphname = Y;
lastChange = "2019-01-23 17:14:56 +0000";
layers = (
{
layerId = "FBAFFF81-1F8B-4B58-9158-C4AF3F48F88C";
paths = (
{
closed = 1;
nodes = (
"696 0 LINE",
"696 492 LINE",
"732 492 LINE",
"1170 1400 LINE",
"982 1400 LINE",
"624 636 LINE",
"600 636 LINE",
"242 1400 LINE",
"54 1400 LINE",
"492 492 LINE",
"528 492 LINE",
"528 0 LINE"
);
}
);
width = 1224;
},
{
layerId = "50C9B437-FF28-4DF4-B0E6-290519DD406F";
paths = (
{
closed = 1;
nodes = (
"744 0 LINE",
"744 492 LINE",
"804 492 LINE",
"1206 1400 LINE",
"918 1400 LINE",
"630 732 LINE",
"594 732 LINE",
"306 1400 LINE",
"18 1400 LINE",
"420 492 LINE",
"480 492 LINE",
"480 0 LINE"
);
}
);
width = 1224;
},
{
layerId = "6008D70E-46A9-43E5-86AA-D196D19196A4";
paths = (
{
closed = 1;
nodes = (
"536 0 LINE",
"640 492 LINE",
"676 492 LINE",
"1308 1400 LINE",
"1106 1400 LINE",
"586 636 LINE",
"562 636 LINE",
"366 1400 LINE",
"192 1400 LINE",
"436 492 LINE",
"472 492 LINE",
"368 0 LINE"
);
}
);
width = 1224;
},
{
layerId = "612FA678-EA3C-4672-88DD-29ED08259473";
paths = (
{
closed = 1;
nodes = (
"584 0 LINE",
"688 492 LINE",
"748 492 LINE",
"1344 1400 LINE",
"1040 1400 LINE",
"612 732 LINE",
"576 732 LINE",
"424 1400 LINE",
"144 1400 LINE",
"364 492 LINE",
"424 492 LINE",
"320 0 LINE"
);
}
);
width = 1224;
}
);
unicode = 0059;
userData = {
com.typemytype.robofont.guides = (
{
angle = 0;
isGlobal = 0;
magnetic = 5;
x = 0;
y = 246;
}
);
};
},
{
glyphname = Z;
lastChange = "2019-01-23 17:14:56 +0000";
layers = (
{
layerId = "FBAFFF81-1F8B-4B58-9158-C4AF3F48F88C";
paths = (
{
closed = 1;
nodes = (
"1114 0 LINE",
"1114 156 LINE",
"250 156 LINE",
"250 180 LINE",
"1090 1148 LINE",
"1090 1400 LINE",
"154 1400 LINE",
"154 1244 LINE",
"946 1244 LINE",
"946 1220 LINE",
"106 252 LINE",
"106 0 LINE"
);
}
);
width = 1224;
},
{
layerId = "50C9B437-FF28-4DF4-B0E6-290519DD406F";
paths = (
{
closed = 1;
nodes = (
"1126 0 LINE",
"1126 252 LINE",
"310 252 LINE",
"310 288 LINE",
"1102 968 LINE",
"1102 1400 LINE",
"106 1400 LINE",
"106 1148 LINE",
"886 1148 LINE",
"886 1112 LINE",
"94 432 LINE",
"94 0 LINE"
);
}
);
width = 1224;
},
{
layerId = "6008D70E-46A9-43E5-86AA-D196D19196A4";
paths = (
{
closed = 1;
nodes = (
"998 0 LINE",
"998 156 LINE",
"154 156 LINE",
"154 180 LINE",
"1184 1148 LINE",
"1184 1400 LINE",
"268 1400 LINE",
"268 1244 LINE",
"1040 1244 LINE",
"1040 1220 LINE",
"10 252 LINE",
"10 0 LINE"
);
}
);
width = 1224;
},
{
layerId = "612FA678-EA3C-4672-88DD-29ED08259473";
paths = (
{
closed = 1;
nodes = (
"1010 0 LINE",
"1010 252 LINE",
"242 252 LINE",
"242 288 LINE",
"1200 968 LINE",
"1200 1400 LINE",
"252 1400 LINE",
"252 1148 LINE",
"984 1148 LINE",
"984 1112 LINE",
"24 432 LINE",
"24 0 LINE"
);
}
);
width = 1224;
}
);
unicode = 005A;
},
{
color = 6;
export = 0;
glyphname = Aogonek;
lastChange = "2019-01-23 17:14:57 +0000";
layers = (
{
layerId = "FBAFFF81-1F8B-4B58-9158-C4AF3F48F88C";
paths = (
{
closed = 1;
nodes = (
"986 -132 LINE SMOOTH",
"982 -152 OFFCURVE",
"980 -166 OFFCURVE",
"980 -180 CURVE SMOOTH",
"980 -278 OFFCURVE",
"1058 -328 OFFCURVE",
"1136 -328 CURVE SMOOTH",
"1248 -328 LINE",
"1248 -196 LINE",
"1164 -196 LINE SMOOTH",
"1136 -196 OFFCURVE",
"1118 -180 OFFCURVE",
"1118 -152 CURVE SMOOTH",
"1118 -150 OFFCURVE",
"1118 -146 OFFCURVE",
"1120 -136 CURVE SMOOTH",
"1152 0 LINE",
"1194 0 LINE",
"770 1400 LINE",
"454 1400 LINE",
"30 0 LINE",
"210 0 LINE",
"312 348 LINE",
"912 348 LINE",
"1014 0 LINE"
);
},
{
closed = 1;
nodes = (
"866 504 LINE",
"358 504 LINE",
"600 1328 LINE",
"624 1328 LINE"
);
}
);
width = 1224;
},
{
layerId = "50C9B437-FF28-4DF4-B0E6-290519DD406F";
paths = (
{
closed = 1;
nodes = (
"886 -144 LINE SMOOTH",
"882 -162 OFFCURVE",
"880 -176 OFFCURVE",
"880 -190 CURVE SMOOTH",
"880 -288 OFFCURVE",
"960 -340 OFFCURVE",
"1040 -340 CURVE SMOOTH",
"1200 -340 LINE",
"1200 -172 LINE",
"1108 -172 LINE SMOOTH",
"1080 -172 OFFCURVE",
"1062 -156 OFFCURVE",
"1062 -128 CURVE SMOOTH",
"1062 -124 OFFCURVE",
"1062 -122 OFFCURVE",
"1064 -112 CURVE SMOOTH",
"1090 0 LINE",
"1194 0 LINE",
"860 1400 LINE",
"364 1400 LINE",
"30 0 LINE",
"306 0 LINE",
"374 300 LINE",
"850 300 LINE",
"918 0 LINE"
);
},
{
closed = 1;
nodes = (
"630 1268 LINE",
"792 552 LINE",
"430 552 LINE",
"594 1268 LINE"
);
}
);
width = 1224;
},
{
layerId = "6008D70E-46A9-43E5-86AA-D196D19196A4";
paths = (
{
closed = 1;
nodes = (
"804 -132 LINE SMOOTH",
"792 -160 OFFCURVE",
"788 -184 OFFCURVE",
"788 -206 CURVE SMOOTH",
"788 -282 OFFCURVE",
"846 -328 OFFCURVE",
"912 -328 CURVE SMOOTH",
"1052 -328 LINE",
"1052 -196 LINE",
"968 -196 LINE SMOOTH",
"944 -196 OFFCURVE",
"930 -184 OFFCURVE",
"930 -162 CURVE SMOOTH",
"930 -152 OFFCURVE",
"932 -146 OFFCURVE",
"936 -136 CURVE SMOOTH",
"996 0 LINE",
"1030 0 LINE",
"930 1400 LINE",
"610 1400 LINE",
"-84 0 LINE",
"106 0 LINE",
"276 348 LINE",
"838 348 LINE",
"860 0 LINE"
);
},
{
closed = 1;
nodes = (
"776 1326 LINE",
"828 504 LINE",
"352 504 LINE",
"752 1326 LINE"
);
}
);
width = 1224;
},
{
layerId = "612FA678-EA3C-4672-88DD-29ED08259473";
paths = (
{
closed = 1;
nodes = (
"1008 1400 LINE",
"520 1400 LINE",
"-96 0 LINE",
"186 0 LINE",
"314 300 LINE",
"776 300 LINE",
"780 0 LINE",
"722 -132 LINE SMOOTH",
"708 -164 OFFCURVE",
"702 -192 OFFCURVE",
"702 -218 CURVE SMOOTH",
"702 -294 OFFCURVE",
"758 -340 OFFCURVE",
"842 -340 CURVE SMOOTH",
"1006 -340 LINE",
"1006 -172 LINE",
"932 -172 LINE SMOOTH",
"906 -172 OFFCURVE",
"894 -160 OFFCURVE",
"894 -140 CURVE SMOOTH",
"894 -130 OFFCURVE",
"896 -122 OFFCURVE",
"900 -112 CURVE SMOOTH",
"950 0 LINE",
"1042 0 LINE"
);
},
{
closed = 1;
nodes = (
"762 1268 LINE",
"772 552 LINE",
"420 552 LINE",
"726 1268 LINE"
);
}
);
width = 1224;
}
);
unicode = 0104;
},
{
export = 0;
glyphname = AE;
lastChange = "2019-01-23 17:14:57 +0000";
layers = (
{
layerId = "FBAFFF81-1F8B-4B58-9158-C4AF3F48F88C";
paths = (
{
closed = 1;
nodes = (
"1092 0 LINE",
"1092 156 LINE",
"768 156 LINE",
"768 624 LINE",
"1068 624 LINE",
"1068 780 LINE",
"768 780 LINE",
"768 1244 LINE",
"1080 1244 LINE",
"1080 1400 LINE",
"454 1400 LINE",
"30 0 LINE",
"210 0 LINE",
"312 348 LINE",
"600 348 LINE",
"600 0 LINE"
);
},
{
closed = 1;
nodes = (
"600 1244 LINE",
"600 504 LINE",
"358 504 LINE",
"576 1244 LINE"
);
}
);
width = 1224;
},
{
layerId = "50C9B437-FF28-4DF4-B0E6-290519DD406F";
paths = (
{
closed = 1;
nodes = (
"1192 0 LINE",
"1192 252 LINE",
"836 252 LINE",
"836 576 LINE",
"1168 576 LINE",
"1168 828 LINE",
"836 828 LINE",
"836 1148 LINE",
"1180 1148 LINE",
"1180 1400 LINE",
"334 1400 LINE",
"0 0 LINE",
"276 0 LINE",
"344 300 LINE",
"572 300 LINE",
"572 0 LINE"
);
},
{
closed = 1;
nodes = (
"572 1148 LINE",
"572 552 LINE",
"400 552 LINE",
"536 1148 LINE"
);
}
);
width = 1224;
},
{
layerId = "6008D70E-46A9-43E5-86AA-D196D19196A4";
paths = (
{
closed = 1;
nodes = (
"946 0 LINE",
"946 156 LINE",
"680 156 LINE",
"778 624 LINE",
"1054 624 LINE",
"1054 780 LINE",
"812 780 LINE",
"910 1244 LINE",
"1198 1244 LINE",
"1198 1400 LINE",
"624 1400 LINE",
"-96 0 LINE",
"88 0 LINE",
"264 348 LINE",
"552 348 LINE",
"478 0 LINE"
);
},
{
closed = 1;
nodes = (
"742 1244 LINE",
"586 504 LINE",
"344 504 LINE",
"718 1244 LINE"
);
}
);
width = 1224;
},
{
layerId = "612FA678-EA3C-4672-88DD-29ED08259473";
paths = (
{
closed = 1;
nodes = (
"1036 0 LINE",
"1036 252 LINE",
"740 252 LINE",
"808 576 LINE",
"1134 576 LINE",
"1134 828 LINE",
"862 828 LINE",
"930 1148 LINE",
"1256 1148 LINE",
"1256 1400 LINE",
"482 1400 LINE",
"-136 24 LINE",
"-136 0 LINE",
"126 0 LINE",
"258 300 LINE",
"486 300 LINE",
"428 24 LINE",
"428 0 LINE"
);
},
{
closed = 1;
nodes = (
"666 1148 LINE",
"540 552 LINE",
"368 552 LINE",
"630 1148 LINE"
);
}
);
width = 1224;
}
);
unicode = 00C6;
userData = {
com.typemytype.robofont.guides = (
{
angle = 0;
isGlobal = 0;
magnetic = 5;
x = 0;
y = 622;
}
);
};
},
{
color = 6;
export = 0;
glyphname = Ccedilla;
lastChange = "2019-01-23 17:14:57 +0000";
layers = (
{
layerId = "FBAFFF81-1F8B-4B58-9158-C4AF3F48F88C";
paths = (
{
closed = 1;
nodes = (
"404 128 OFFCURVE",
"296 284 OFFCURVE",
"296 556 CURVE SMOOTH",
"296 844 LINE SMOOTH",
"296 1100 OFFCURVE",
"404 1272 OFFCURVE",
"620 1272 CURVE SMOOTH",
"848 1272 OFFCURVE",
"940 1104 OFFCURVE",
"944 920 CURVE SMOOTH",
"944 896 LINE",
"1112 896 LINE",
"1112 920 LINE SMOOTH",
"1112 1204 OFFCURVE",
"940 1428 OFFCURVE",
"620 1428 CURVE SMOOTH",
"312 1428 OFFCURVE",
"128 1216 OFFCURVE",
"128 856 CURVE SMOOTH",
"128 544 LINE SMOOTH",
"128 218 OFFCURVE",
"268 24 OFFCURVE",
"508 -18 CURVE",
"472 -184 LINE",
"472 -196 LINE",
"624 -196 LINE",
"632 -180 OFFCURVE",
"650 -168 OFFCURVE",
"674 -168 CURVE SMOOTH",
"712 -168 OFFCURVE",
"744 -196 OFFCURVE",
"744 -244 CURVE SMOOTH",
"744 -302 OFFCURVE",
"704 -328 OFFCURVE",
"664 -328 CURVE SMOOTH",
"606 -328 OFFCURVE",
"576 -288 OFFCURVE",
"568 -248 CURVE",
"472 -284 LINE",
"492 -364 OFFCURVE",
"552 -424 OFFCURVE",
"666 -424 CURVE SMOOTH",
"770 -424 OFFCURVE",
"852 -352 OFFCURVE",
"852 -242 CURVE SMOOTH",
"852 -150 OFFCURVE",
"792 -72 OFFCURVE",
"700 -72 CURVE SMOOTH",
"644 -72 OFFCURVE",
"608 -96 OFFCURVE",
"592 -136 CURVE",
"580 -136 LINE",
"604 -28 LINE",
"620 -28 LINE SMOOTH",
"940 -28 OFFCURVE",
"1112 196 OFFCURVE",
"1112 480 CURVE SMOOTH",
"1112 504 LINE",
"944 504 LINE",
"944 480 LINE SMOOTH",
"944 296 OFFCURVE",
"848 128 OFFCURVE",
"620 128 CURVE SMOOTH"
);
}
);
width = 1224;
},
{
layerId = "50C9B437-FF28-4DF4-B0E6-290519DD406F";
paths = (
{
closed = 1;
nodes = (
"428 212 OFFCURVE",
"360 342 OFFCURVE",
"360 524 CURVE SMOOTH",
"360 876 LINE SMOOTH",
"360 1044 OFFCURVE",
"440 1188 OFFCURVE",
"616 1188 CURVE SMOOTH",
"808 1188 OFFCURVE",
"864 1040 OFFCURVE",
"864 908 CURVE SMOOTH",
"864 872 LINE",
"1128 872 LINE",
"1128 908 LINE SMOOTH",
"1128 1228 OFFCURVE",
"948 1428 OFFCURVE",
"616 1428 CURVE SMOOTH",
"296 1428 OFFCURVE",
"96 1216 OFFCURVE",
"96 856 CURVE SMOOTH",
"96 544 LINE SMOOTH",
"96 202 OFFCURVE",
"264 6 OFFCURVE",
"540 -24 CURVE",
"506 -184 LINE",
"506 -208 LINE",
"700 -208 LINE",
"704 -192 OFFCURVE",
"718 -180 OFFCURVE",
"740 -180 CURVE SMOOTH",
"766 -180 OFFCURVE",
"780 -200 OFFCURVE",
"780 -224 CURVE SMOOTH",
"780 -256 OFFCURVE",
"752 -276 OFFCURVE",
"712 -276 CURVE SMOOTH",
"676 -276 OFFCURVE",
"642 -266 OFFCURVE",
"612 -248 CURVE",
"560 -384 LINE",
"604 -408 OFFCURVE",
"652 -424 OFFCURVE",
"728 -424 CURVE SMOOTH",
"852 -424 OFFCURVE",
"948 -348 OFFCURVE",
"948 -224 CURVE SMOOTH",
"948 -128 OFFCURVE",
"892 -48 OFFCURVE",
"782 -48 CURVE SMOOTH",
"732 -48 OFFCURVE",
"704 -68 OFFCURVE",
"690 -92 CURVE",
"666 -92 LINE",
"680 -26 LINE",
"970 -2 OFFCURVE",
"1128 182 OFFCURVE",
"1128 492 CURVE SMOOTH",
"1128 528 LINE",
"864 528 LINE",
"864 492 LINE SMOOTH",
"864 348 OFFCURVE",
"820 212 OFFCURVE",
"616 212 CURVE SMOOTH"
);
}
);
width = 1224;
},
{
layerId = "6008D70E-46A9-43E5-86AA-D196D19196A4";
paths = (
{
closed = 1;
nodes = (
"324 128 OFFCURVE",
"246 216 OFFCURVE",
"246 394 CURVE SMOOTH",
"246 442 OFFCURVE",
"254 496 OFFCURVE",
"266 556 CURVE SMOOTH",
"328 844 LINE SMOOTH",
"382 1100 OFFCURVE",
"526 1276 OFFCURVE",
"738 1276 CURVE SMOOTH",
"918 1276 OFFCURVE",
"996 1184 OFFCURVE",
"996 1044 CURVE SMOOTH",
"996 1006 OFFCURVE",
"992 970 OFFCURVE",
"980 920 CURVE SMOOTH",
"974 896 LINE",
"1142 896 LINE",
"1148 920 LINE SMOOTH",
"1160 968 OFFCURVE",
"1166 1012 OFFCURVE",
"1166 1056 CURVE SMOOTH",
"1166 1272 OFFCURVE",
"1020 1428 OFFCURVE",
"764 1428 CURVE SMOOTH",
"440 1428 OFFCURVE",
"242 1232 OFFCURVE",
"162 856 CURVE SMOOTH",
"96 544 LINE SMOOTH",
"82 476 OFFCURVE",
"76 412 OFFCURVE",
"76 356 CURVE SMOOTH",
"76 148 OFFCURVE",
"194 6 OFFCURVE",
"398 -24 CURVE",
"346 -172 LINE",
"346 -196 LINE",
"496 -196 LINE",
"506 -180 OFFCURVE",
"522 -168 OFFCURVE",
"550 -168 CURVE SMOOTH",
"584 -168 OFFCURVE",
"614 -188 OFFCURVE",
"614 -236 CURVE SMOOTH",
"614 -292 OFFCURVE",
"578 -328 OFFCURVE",
"518 -328 CURVE SMOOTH",
"458 -328 OFFCURVE",
"430 -292 OFFCURVE",
"426 -250 CURVE",
"326 -284 LINE",
"338 -366 OFFCURVE",
"406 -424 OFFCURVE",
"514 -424 CURVE SMOOTH",
"654 -424 OFFCURVE",
"722 -340 OFFCURVE",
"722 -220 CURVE SMOOTH",
"722 -140 OFFCURVE",
"674 -72 OFFCURVE",
"586 -72 CURVE SMOOTH",
"534 -72 OFFCURVE",
"500 -94 OFFCURVE",
"478 -136 CURVE",
"466 -136 LINE",
"504 -28 LINE",
"836 -22 OFFCURVE",
"978 176 OFFCURVE",
"1054 480 CURVE SMOOTH",
"1060 504 LINE",
"892 504 LINE",
"886 480 LINE SMOOTH",
"834 272 OFFCURVE",
"728 128 OFFCURVE",
"496 128 CURVE SMOOTH"
);
}
);
width = 1224;
},
{
layerId = "612FA678-EA3C-4672-88DD-29ED08259473";
paths = (
{
closed = 1;
nodes = (
"364 212 OFFCURVE",
"306 290 OFFCURVE",
"306 410 CURVE SMOOTH",
"306 444 OFFCURVE",
"312 484 OFFCURVE",
"320 524 CURVE SMOOTH",
"394 876 LINE SMOOTH",
"430 1044 OFFCURVE",
"540 1188 OFFCURVE",
"716 1188 CURVE SMOOTH",
"866 1188 OFFCURVE",
"918 1104 OFFCURVE",
"918 1000 CURVE SMOOTH",
"918 970 OFFCURVE",
"914 940 OFFCURVE",
"906 908 CURVE SMOOTH",
"898 872 LINE",
"1162 872 LINE",
"1170 908 LINE SMOOTH",
"1178 948 OFFCURVE",
"1184 984 OFFCURVE",
"1184 1022 CURVE SMOOTH",
"1184 1248 OFFCURVE",
"1026 1428 OFFCURVE",
"758 1428 CURVE SMOOTH",
"422 1428 OFFCURVE",
"208 1240 OFFCURVE",
"126 856 CURVE SMOOTH",
"60 544 LINE SMOOTH",
"48 484 OFFCURVE",
"42 438 OFFCURVE",
"42 390 CURVE SMOOTH",
"42 160 OFFCURVE",
"170 14 OFFCURVE",
"368 -20 CURVE",
"310 -184 LINE",
"310 -208 LINE",
"504 -208 LINE",
"512 -192 OFFCURVE",
"524 -180 OFFCURVE",
"546 -180 CURVE SMOOTH",
"568 -180 OFFCURVE",
"582 -194 OFFCURVE",
"582 -218 CURVE SMOOTH",
"582 -256 OFFCURVE",
"548 -276 OFFCURVE",
"502 -276 CURVE SMOOTH",
"460 -276 OFFCURVE",
"426 -264 OFFCURVE",
"400 -246 CURVE",
"326 -384 LINE",
"366 -408 OFFCURVE",
"422 -424 OFFCURVE",
"512 -424 CURVE SMOOTH",
"666 -424 OFFCURVE",
"754 -340 OFFCURVE",
"754 -204 CURVE SMOOTH",
"754 -104 OFFCURVE",
"698 -48 OFFCURVE",
"620 -48 CURVE SMOOTH",
"570 -48 OFFCURVE",
"538 -68 OFFCURVE",
"518 -92 CURVE",
"494 -92 LINE",
"522 -26 LINE",
"852 -10 OFFCURVE",
"1008 164 OFFCURVE",
"1080 492 CURVE SMOOTH",
"1088 528 LINE",
"824 528 LINE",
"816 492 LINE SMOOTH",
"784 352 OFFCURVE",
"710 212 OFFCURVE",
"510 212 CURVE SMOOTH"
);
}
);
width = 1224;
}
);
unicode = 00C7;
userData = {
com.typemytype.robofont.guides = (
{
angle = 90;
isGlobal = 0;
magnetic = 5;
x = 310;
y = 0;
}
);
};
},
{
color = 6;
export = 0;
glyphname = Eogonek;
lastChange = "2019-01-23 17:14:57 +0000";
layers = (
{
layerId = "FBAFFF81-1F8B-4B58-9158-C4AF3F48F88C";
paths = (
{
closed = 1;
nodes = (
"910 0 LINE",
"882 -132 LINE SMOOTH",
"878 -152 OFFCURVE",
"876 -166 OFFCURVE",
"876 -180 CURVE SMOOTH",
"876 -278 OFFCURVE",
"952 -328 OFFCURVE",
"1032 -328 CURVE SMOOTH",
"1144 -328 LINE",
"1144 -196 LINE",
"1060 -196 LINE SMOOTH",
"1032 -196 OFFCURVE",
"1014 -180 OFFCURVE",
"1014 -152 CURVE SMOOTH",
"1014 -150 OFFCURVE",
"1014 -146 OFFCURVE",
"1016 -136 CURVE SMOOTH",
"1048 0 LINE",
"1048 156 LINE",
"356 156 LINE",
"356 624 LINE",
"1024 624 LINE",
"1024 780 LINE",
"356 780 LINE",
"356 1244 LINE",
"1036 1244 LINE",
"1036 1400 LINE",
"188 1400 LINE",
"188 0 LINE"
);
}
);
width = 1224;
},
{
layerId = "50C9B437-FF28-4DF4-B0E6-290519DD406F";
paths = (
{
closed = 1;
nodes = (
"900 0 LINE",
"868 -144 LINE SMOOTH",
"864 -162 OFFCURVE",
"862 -176 OFFCURVE",
"862 -190 CURVE SMOOTH",
"862 -288 OFFCURVE",
"942 -340 OFFCURVE",
"1022 -340 CURVE SMOOTH",
"1182 -340 LINE",
"1182 -172 LINE",
"1090 -172 LINE SMOOTH",
"1062 -172 OFFCURVE",
"1044 -156 OFFCURVE",
"1044 -128 CURVE SMOOTH",
"1044 -124 OFFCURVE",
"1044 -122 OFFCURVE",
"1046 -112 CURVE SMOOTH",
"1072 0 LINE",
"1072 252 LINE",
"428 252 LINE",
"428 576 LINE",
"1024 576 LINE",
"1024 828 LINE",
"428 828 LINE",
"428 1148 LINE",
"1048 1148 LINE",
"1048 1400 LINE",
"164 1400 LINE",
"164 0 LINE"
);
}
);
width = 1224;
},
{
layerId = "6008D70E-46A9-43E5-86AA-D196D19196A4";
paths = (
{
closed = 1;
nodes = (
"754 0 LINE",
"698 -132 LINE SMOOTH",
"686 -160 OFFCURVE",
"682 -184 OFFCURVE",
"682 -206 CURVE SMOOTH",
"682 -282 OFFCURVE",
"740 -328 OFFCURVE",
"806 -328 CURVE SMOOTH",
"946 -328 LINE",
"946 -196 LINE",
"862 -196 LINE SMOOTH",
"838 -196 OFFCURVE",
"824 -184 OFFCURVE",
"824 -162 CURVE SMOOTH",
"824 -152 OFFCURVE",
"826 -146 OFFCURVE",
"830 -136 CURVE SMOOTH",
"892 0 LINE",
"892 156 LINE",
"258 156 LINE",
"356 624 LINE",
"1000 624 LINE",
"1000 780 LINE",
"390 780 LINE",
"488 1244 LINE",
"1144 1244 LINE",
"1144 1400 LINE",
"354 1400 LINE",
"56 0 LINE"
);
}
);
width = 1224;
},
{
layerId = "612FA678-EA3C-4672-88DD-29ED08259473";
paths = (
{
closed = 1;
nodes = (
"766 0 LINE",
"708 -132 LINE SMOOTH",
"694 -164 OFFCURVE",
"688 -192 OFFCURVE",
"688 -218 CURVE SMOOTH",
"688 -294 OFFCURVE",
"744 -340 OFFCURVE",
"828 -340 CURVE SMOOTH",
"992 -340 LINE",
"992 -172 LINE",
"918 -172 LINE SMOOTH",
"892 -172 OFFCURVE",
"880 -160 OFFCURVE",
"880 -140 CURVE SMOOTH",
"880 -128 OFFCURVE",
"882 -122 OFFCURVE",
"886 -112 CURVE SMOOTH",
"938 0 LINE",
"938 252 LINE",
"348 252 LINE",
"416 576 LINE",
"1012 576 LINE",
"1012 828 LINE",
"470 828 LINE",
"538 1148 LINE",
"1158 1148 LINE",
"1158 1400 LINE",
"328 1400 LINE",
"36 24 LINE",
"36 0 LINE"
);
}
);
width = 1224;
}
);
unicode = 0118;
userData = {
com.typemytype.robofont.guides = (
{
angle = 90;
isGlobal = 0;
magnetic = 5;
x = 309;
y = 0;
}
);
};
},
{
color = 6;
export = 0;
glyphname = Hbar;
lastChange = "2019-01-23 17:14:57 +0000";
layers = (
{
layerId = "FBAFFF81-1F8B-4B58-9158-C4AF3F48F88C";
paths = (
{
closed = 1;
nodes = (
"314 0 LINE",
"314 624 LINE",
"910 624 LINE",
"910 0 LINE",
"1078 0 LINE",
"1078 992 LINE",
"1198 992 LINE",
"1198 1148 LINE",
"1078 1148 LINE",
"1078 1400 LINE",
"910 1400 LINE",
"910 1148 LINE",
"314 1148 LINE",
"314 1400 LINE",
"146 1400 LINE",
"146 1148 LINE",
"26 1148 LINE",
"26 992 LINE",
"146 992 LINE",
"146 0 LINE"
);
},
{
closed = 1;
nodes = (
"314 992 LINE",
"910 992 LINE",
"910 780 LINE",
"314 780 LINE"
);
}
);
width = 1224;
},
{
layerId = "50C9B437-FF28-4DF4-B0E6-290519DD406F";
paths = (
{
closed = 1;
nodes = (
"410 0 LINE",
"410 576 LINE",
"814 576 LINE",
"814 0 LINE",
"1078 0 LINE",
"1078 992 LINE",
"1198 992 LINE",
"1198 1232 LINE",
"1078 1232 LINE",
"1078 1400 LINE",
"814 1400 LINE",
"814 1232 LINE",
"410 1232 LINE",
"410 1400 LINE",
"146 1400 LINE",
"146 1232 LINE",
"26 1232 LINE",
"26 992 LINE",
"146 992 LINE",
"146 0 LINE"
);
},
{
closed = 1;
nodes = (
"410 992 LINE",
"814 992 LINE",
"814 828 LINE",
"410 828 LINE"
);
}
);
width = 1224;
},
{
layerId = "6008D70E-46A9-43E5-86AA-D196D19196A4";
paths = (
{
closed = 1;
nodes = (
"186 0 LINE",
"318 624 LINE",
"870 624 LINE",
"738 0 LINE",
"910 0 LINE",
"1120 992 LINE",
"1260 992 LINE",
"1260 1148 LINE",
"1154 1148 LINE",
"1208 1400 LINE",
"1036 1400 LINE",
"982 1148 LINE",
"430 1148 LINE",
"484 1400 LINE",
"312 1400 LINE",
"258 1148 LINE",
"108 1148 LINE",
"108 992 LINE",
"226 992 LINE",
"16 0 LINE"
);
},
{
closed = 1;
nodes = (
"396 992 LINE",
"948 992 LINE",
"904 780 LINE",
"352 780 LINE"
);
}
);
width = 1224;
},
{
layerId = "612FA678-EA3C-4672-88DD-29ED08259473";
paths = (
{
closed = 1;
nodes = (
"210 992 LINE",
"0 0 LINE",
"262 0 LINE",
"384 576 LINE",
"772 576 LINE",
"650 0 LINE",
"914 0 LINE",
"1124 992 LINE",
"1286 992 LINE",
"1286 1232 LINE",
"1176 1232 LINE",
"1212 1400 LINE",
"948 1400 LINE",
"912 1232 LINE",
"524 1232 LINE",
"560 1400 LINE",
"296 1400 LINE",
"260 1232 LINE",
"100 1232 LINE",
"100 992 LINE"
);
},
{
closed = 1;
nodes = (
"472 992 LINE",
"860 992 LINE",
"826 828 LINE",
"438 828 LINE"
);
}
);
width = 1224;
}
);
unicode = 0126;
},
{
color = 6;
export = 0;
glyphname = IJ;
lastChange = "2019-01-23 17:14:57 +0000";
layers = (
{
layerId = "FBAFFF81-1F8B-4B58-9158-C4AF3F48F88C";
paths = (
{
closed = 1;
nodes = (
"314 684 LINE",
"314 1400 LINE",
"146 1400 LINE",
"146 684 LINE"
);
},
{
closed = 1;
nodes = (
"1130 1244 LINE",
"1130 1400 LINE",
"698 1400 LINE",
"698 1244 LINE",
"842 1244 LINE",
"842 420 LINE SMOOTH",
"842 244 OFFCURVE",
"776 128 OFFCURVE",
"590 128 CURVE SMOOTH",
"404 128 OFFCURVE",
"314 244 OFFCURVE",
"314 420 CURVE SMOOTH",
"314 528 LINE",
"146 528 LINE",
"146 420 LINE SMOOTH",
"146 132 OFFCURVE",
"318 -28 OFFCURVE",
"590 -28 CURVE SMOOTH",
"862 -28 OFFCURVE",
"1010 132 OFFCURVE",
"1010 420 CURVE",
"1010 1244 LINE"
);
}
);
width = 1224;
},
{
layerId = "50C9B437-FF28-4DF4-B0E6-290519DD406F";
paths = (
{
closed = 1;
nodes = (
"116 684 LINE",
"380 684 LINE",
"380 1400 LINE",
"116 1400 LINE"
);
},
{
closed = 1;
nodes = (
"1148 1152 LINE",
"1148 1400 LINE",
"620 1400 LINE",
"620 1152 LINE",
"764 1152 LINE",
"764 420 LINE SMOOTH",
"764 292 OFFCURVE",
"694 220 OFFCURVE",
"578 220 CURVE SMOOTH",
"454 220 OFFCURVE",
"380 296 OFFCURVE",
"380 420 CURVE SMOOTH",
"380 552 LINE",
"116 552 LINE",
"116 420 LINE SMOOTH",
"116 128 OFFCURVE",
"306 -28 OFFCURVE",
"586 -28 CURVE SMOOTH",
"858 -28 OFFCURVE",
"1028 132 OFFCURVE",
"1028 420 CURVE SMOOTH",
"1028 1152 LINE"
);
}
);
width = 1224;
},
{
layerId = "6008D70E-46A9-43E5-86AA-D196D19196A4";
paths = (
{
closed = 1;
nodes = (
"314 684 LINE",
"466 1400 LINE",
"298 1400 LINE",
"146 684 LINE"
);
},
{
closed = 1;
nodes = (
"804 1400 LINE",
"804 1244 LINE",
"960 1244 LINE",
"784 420 LINE SMOOTH",
"748 248 OFFCURVE",
"656 128 OFFCURVE",
"470 128 CURVE SMOOTH",
"316 128 OFFCURVE",
"244 194 OFFCURVE",
"244 320 CURVE SMOOTH",
"244 350 OFFCURVE",
"248 384 OFFCURVE",
"256 420 CURVE SMOOTH",
"280 528 LINE",
"112 528 LINE",
"88 420 LINE SMOOTH",
"80 382 OFFCURVE",
"76 344 OFFCURVE",
"76 310 CURVE SMOOTH",
"76 106 OFFCURVE",
"216 -28 OFFCURVE",
"448 -28 CURVE SMOOTH",
"748 -28 OFFCURVE",
"890 136 OFFCURVE",
"950 412 CURVE SMOOTH",
"1128 1244 LINE",
"1260 1244 LINE",
"1260 1400 LINE"
);
}
);
width = 1224;
},
{
layerId = "612FA678-EA3C-4672-88DD-29ED08259473";
paths = (
{
closed = 1;
nodes = (
"114 684 LINE",
"378 684 LINE",
"530 1400 LINE",
"266 1400 LINE"
);
},
{
closed = 1;
nodes = (
"1248 1152 LINE",
"1248 1400 LINE",
"700 1400 LINE",
"700 1152 LINE",
"850 1152 LINE",
"694 420 LINE SMOOTH",
"668 292 OFFCURVE",
"586 220 OFFCURVE",
"472 220 CURVE SMOOTH",
"370 220 OFFCURVE",
"316 272 OFFCURVE",
"316 362 CURVE SMOOTH",
"316 380 OFFCURVE",
"318 402 OFFCURVE",
"322 420 CURVE SMOOTH",
"350 552 LINE",
"86 552 LINE",
"66 458 LINE SMOOTH",
"56 414 OFFCURVE",
"52 372 OFFCURVE",
"52 334 CURVE SMOOTH",
"52 102 OFFCURVE",
"214 -28 OFFCURVE",
"436 -28 CURVE SMOOTH",
"732 -28 OFFCURVE",
"890 104 OFFCURVE",
"958 420 CURVE SMOOTH",
"1114 1152 LINE"
);
}
);
width = 1224;
}
);
unicode = 0132;
},
{
color = 6;
export = 0;
glyphname = Iogonek;
lastChange = "2019-01-23 17:14:57 +0000";
layers = (
{
layerId = "FBAFFF81-1F8B-4B58-9158-C4AF3F48F88C";
paths = (
{
closed = 1;
nodes = (
"528 1244 LINE",
"528 156 LINE",
"168 156 LINE",
"168 0 LINE",
"918 0 LINE",
"890 -132 LINE SMOOTH",
"886 -152 OFFCURVE",
"884 -166 OFFCURVE",
"884 -180 CURVE SMOOTH",
"884 -278 OFFCURVE",
"960 -328 OFFCURVE",
"1040 -328 CURVE SMOOTH",
"1152 -328 LINE",
"1152 -196 LINE",
"1068 -196 LINE SMOOTH",
"1040 -196 OFFCURVE",
"1022 -180 OFFCURVE",
"1022 -152 CURVE SMOOTH",
"1022 -150 OFFCURVE",
"1022 -146 OFFCURVE",
"1024 -136 CURVE SMOOTH",
"1056 0 LINE",
"1056 156 LINE",
"696 156 LINE",
"696 1244 LINE",
"1056 1244 LINE",
"1056 1400 LINE",
"168 1400 LINE",
"168 1244 LINE"
);
}
);
width = 1224;
},
{
layerId = "50C9B437-FF28-4DF4-B0E6-290519DD406F";
paths = (
{
closed = 1;
nodes = (
"480 1148 LINE",
"480 252 LINE",
"144 252 LINE",
"144 0 LINE",
"908 0 LINE",
"876 -144 LINE SMOOTH",
"872 -162 OFFCURVE",
"870 -176 OFFCURVE",
"870 -190 CURVE SMOOTH",
"870 -288 OFFCURVE",
"950 -340 OFFCURVE",
"1030 -340 CURVE SMOOTH",
"1190 -340 LINE",
"1190 -172 LINE",
"1098 -172 LINE SMOOTH",
"1070 -172 OFFCURVE",
"1052 -156 OFFCURVE",
"1052 -128 CURVE SMOOTH",
"1052 -124 OFFCURVE",
"1052 -122 OFFCURVE",
"1054 -112 CURVE SMOOTH",
"1080 0 LINE",
"1080 252 LINE",
"744 252 LINE",
"744 1148 LINE",
"1080 1148 LINE",
"1080 1400 LINE",
"144 1400 LINE",
"144 1148 LINE"
);
}
);
width = 1224;
},
{
layerId = "6008D70E-46A9-43E5-86AA-D196D19196A4";
paths = (
{
closed = 1;
nodes = (
"642 1244 LINE",
"412 156 LINE",
"64 156 LINE",
"64 0 LINE",
"790 0 LINE",
"734 -132 LINE SMOOTH",
"722 -160 OFFCURVE",
"718 -184 OFFCURVE",
"718 -206 CURVE SMOOTH",
"718 -282 OFFCURVE",
"776 -328 OFFCURVE",
"842 -328 CURVE SMOOTH",
"982 -328 LINE",
"982 -196 LINE",
"898 -196 LINE SMOOTH",
"874 -196 OFFCURVE",
"860 -184 OFFCURVE",
"860 -162 CURVE SMOOTH",
"860 -152 OFFCURVE",
"862 -146 OFFCURVE",
"866 -136 CURVE SMOOTH",
"928 0 LINE",
"928 156 LINE",
"580 156 LINE",
"810 1244 LINE",
"1158 1244 LINE",
"1158 1400 LINE",
"294 1400 LINE",
"294 1244 LINE"
);
}
);
width = 1224;
},
{
layerId = "612FA678-EA3C-4672-88DD-29ED08259473";
paths = (
{
closed = 1;
nodes = (
"574 1148 LINE",
"384 252 LINE",
"60 252 LINE",
"60 0 LINE",
"800 0 LINE",
"742 -132 LINE SMOOTH",
"728 -164 OFFCURVE",
"722 -192 OFFCURVE",
"722 -218 CURVE SMOOTH",
"722 -294 OFFCURVE",
"778 -340 OFFCURVE",
"862 -340 CURVE SMOOTH",
"1026 -340 LINE",
"1026 -172 LINE",
"952 -172 LINE SMOOTH",
"926 -172 OFFCURVE",
"914 -160 OFFCURVE",
"914 -140 CURVE SMOOTH",
"914 -128 OFFCURVE",
"916 -122 OFFCURVE",
"920 -112 CURVE SMOOTH",
"972 0 LINE",
"972 252 LINE",
"648 252 LINE",
"838 1148 LINE",
"1162 1148 LINE",
"1162 1400 LINE",
"250 1400 LINE",
"250 1148 LINE"
);
}
);
width = 1224;
}
);
unicode = 012E;
userData = {
com.typemytype.robofont.guides = (
{
angle = 90;
isGlobal = 0;
magnetic = 5;
x = 306;
y = 0;
}
);
};
},
{
export = 0;
glyphname = Lcaron;
lastChange = "2019-01-23 17:14:57 +0000";
layers = (
{
components = (
{
name = L;
},
{
name = quoteright;
transform = "{1, 0, 0, 1, 322, -28}";
}
);
layerId = "FBAFFF81-1F8B-4B58-9158-C4AF3F48F88C";
width = 1224;
},
{
components = (
{
name = L;
}
);
layerId = "50C9B437-FF28-4DF4-B0E6-290519DD406F";
paths = (
{
closed = 1;
nodes = (
"1062 1320 OFFCURVE",
"982 1400 OFFCURVE",
"888 1400 CURVE SMOOTH",
"794 1400 OFFCURVE",
"714 1320 OFFCURVE",
"714 1226 CURVE SMOOTH",
"714 1132 OFFCURVE",
"794 1052 OFFCURVE",
"888 1052 CURVE SMOOTH",
"906 1052 LINE",
"906 1028 LINE SMOOTH",
"906 990 OFFCURVE",
"890 968 OFFCURVE",
"852 968 CURVE SMOOTH",
"762 968 LINE",
"762 812 LINE",
"882 812 LINE SMOOTH",
"984 812 OFFCURVE",
"1062 890 OFFCURVE",
"1062 992 CURVE SMOOTH",
"1062 1226 LINE SMOOTH"
);
}
);
width = 1224;
},
{
components = (
{
name = L;
},
{
name = quoteright;
transform = "{1, 0, 0, 1, 308, -28}";
}
);
layerId = "6008D70E-46A9-43E5-86AA-D196D19196A4";
width = 1224;
},
{
layerId = "612FA678-EA3C-4672-88DD-29ED08259473";
paths = (
{
closed = 1;
nodes = (
"950 0 LINE",
"950 252 LINE",
"342 252 LINE",
"586 1400 LINE",
"322 1400 LINE",
"30 24 LINE",
"30 0 LINE"
);
},
{
closed = 1;
nodes = (
"830 1100 OFFCURVE",
"918 1046 OFFCURVE",
"1006 1046 CURVE",
"1000 1016 LINE SMOOTH",
"994 982 OFFCURVE",
"972 968 OFFCURVE",
"934 968 CURVE SMOOTH",
"784 968 LINE",
"784 812 LINE",
"940 812 LINE SMOOTH",
"1044 812 OFFCURVE",
"1122 856 OFFCURVE",
"1142 952 CURVE SMOOTH",
"1190 1180 LINE SMOOTH",
"1192 1192 OFFCURVE",
"1194 1206 OFFCURVE",
"1194 1218 CURVE SMOOTH",
"1194 1320 OFFCURVE",
"1110 1400 OFFCURVE",
"1012 1400 CURVE SMOOTH",
"912 1400 OFFCURVE",
"830 1324 OFFCURVE",
"830 1220 CURVE SMOOTH"
);
}
);
width = 1224;
}
);
unicode = 013D;
userData = {
com.typemytype.robofont.guides = (
{
angle = 90;
isGlobal = 0;
magnetic = 5;
x = 537;
y = 0;
}
);
};
},
{
color = 6;
export = 0;
glyphname = Lslash;
lastChange = "2019-01-25 00:32:07 +0000";
layers = (
{
layerId = "FBAFFF81-1F8B-4B58-9158-C4AF3F48F88C";
paths = (
{
closed = 1;
nodes = (
"118 486 LINE",
"240 548 LINE",
"240 0 LINE",
"1104 0 LINE",
"1104 156 LINE",
"408 156 LINE",
"408 634 LINE",
"598 732 LINE",
"530 866 LINE",
"408 804 LINE",
"408 1400 LINE",
"240 1400 LINE",
"240 718 LINE",
"48 622 LINE"
);
}
);
width = 1224;
},
{
layerId = "50C9B437-FF28-4DF4-B0E6-290519DD406F";
paths = (
{
closed = 1;
nodes = (
"1084 0 LINE",
"1084 252 LINE",
"448 252 LINE",
"448 602 LINE",
"662 710 LINE",
"554 924 LINE",
"448 870 LINE",
"448 1400 LINE",
"184 1400 LINE",
"184 736 LINE",
"0 644 LINE",
"108 430 LINE",
"184 468 LINE",
"184 0 LINE"
);
}
);
width = 1224;
},
{
layerId = "6008D70E-46A9-43E5-86AA-D196D19196A4";
paths = (
{
closed = 1;
nodes = (
"994 0 LINE",
"994 156 LINE",
"274 156 LINE",
"370 614 LINE",
"608 680 LINE",
"568 824 LINE",
"406 780 LINE",
"538 1400 LINE",
"370 1400 LINE",
"228 734 LINE",
"24 680 LINE",
"64 532 LINE",
"192 566 LINE",
"72 0 LINE"
);
}
);
width = 1224;
},
{
layerId = "612FA678-EA3C-4672-88DD-29ED08259473";
paths = (
{
closed = 1;
nodes = (
"950 0 LINE",
"950 252 LINE",
"342 252 LINE",
"414 592 LINE",
"674 664 LINE",
"616 878 LINE",
"466 836 LINE",
"586 1400 LINE",
"322 1400 LINE",
"186 758 LINE",
"-26 700 LINE",
"28 486 LINE",
"134 514 LINE",
"30 24 LINE",
"30 0 LINE"
);
}
);
width = 1224;
},
{
associatedMasterId = "FBAFFF81-1F8B-4B58-9158-C4AF3F48F88C";
layerId = "BB5DC8DA-A904-4A6C-8F43-DE313C7F80B7";
name = "Jan 24 19, 19:30";
paths = (
{
closed = 1;
nodes = (
"118 486 LINE",
"240 548 LINE",
"240 0 LINE",
"1104 0 LINE",
"1104 156 LINE",
"408 156 LINE",
"408 634 LINE",
"598 732 LINE",
"530 866 LINE",
"408 804 LINE",
"408 1400 LINE",
"240 1400 LINE",
"240 718 LINE",
"48 622 LINE"
);
}
);
visible = 1;
width = 1224;
},
{
associatedMasterId = "6008D70E-46A9-43E5-86AA-D196D19196A4";
layerId = "20E651A4-647A-4415-8620-FCB855ADE9C3";
name = "Jan 24 19, 19:30";
paths = (
{
closed = 1;
nodes = (
"994 0 LINE",
"994 156 LINE",
"274 156 LINE",
"370 614 LINE",
"608 680 LINE",
"568 824 LINE",
"406 780 LINE",
"538 1400 LINE",
"370 1400 LINE",
"228 734 LINE",
"24 680 LINE",
"64 532 LINE",
"192 566 LINE",
"72 0 LINE"
);
}
);
width = 1224;
},
{
associatedMasterId = "50C9B437-FF28-4DF4-B0E6-290519DD406F";
layerId = "CDB28D4A-8CB1-4664-8302-38662B652E08";
name = "Jan 24 19, 19:30";
paths = (
{
closed = 1;
nodes = (
"1084 0 LINE",
"1084 252 LINE",
"448 252 LINE",
"448 602 LINE",
"662 710 LINE",
"554 924 LINE",
"448 870 LINE",
"448 1400 LINE",
"184 1400 LINE",
"184 736 LINE",
"0 644 LINE",
"108 430 LINE",
"184 468 LINE",
"184 0 LINE"
);
}
);
width = 1224;
},
{
associatedMasterId = "612FA678-EA3C-4672-88DD-29ED08259473";
layerId = "6DFE3C3D-962A-42D4-858D-7E89E3F1929E";
name = "Jan 24 19, 19:30";
paths = (
{
closed = 1;
nodes = (
"950 0 LINE",
"950 252 LINE",
"342 252 LINE",
"414 592 LINE",
"674 664 LINE",
"616 878 LINE",
"466 836 LINE",
"586 1400 LINE",
"322 1400 LINE",
"186 758 LINE",
"-26 700 LINE",
"28 486 LINE",
"134 514 LINE",
"30 24 LINE",
"30 0 LINE"
);
}
);
width = 1224;
}
);
unicode = 0141;
userData = {
com.typemytype.robofont.guides = (
{
angle = 0;
isGlobal = 0;
magnetic = 5;
x = 0;
y = 350;
}
);
};
},
{
color = 6;
export = 0;
glyphname = Eng;
lastChange = "2019-01-23 17:14:57 +0000";
layers = (
{
layerId = "FBAFFF81-1F8B-4B58-9158-C4AF3F48F88C";
paths = (
{
closed = 1;
nodes = (
"146 1400 LINE",
"146 0 LINE",
"314 0 LINE",
"314 1328 LINE",
"338 1328 LINE",
"742 0 LINE",
"910 0 LINE",
"910 -136 LINE SMOOTH",
"910 -204 OFFCURVE",
"882 -244 OFFCURVE",
"802 -244 CURVE SMOOTH",
"482 -244 LINE",
"482 -400 LINE",
"838 -400 LINE SMOOTH",
"994 -400 OFFCURVE",
"1078 -316 OFFCURVE",
"1078 -160 CURVE SMOOTH",
"1078 1400 LINE",
"910 1400 LINE",
"910 72 LINE",
"886 72 LINE",
"482 1400 LINE"
);
}
);
width = 1224;
},
{
layerId = "50C9B437-FF28-4DF4-B0E6-290519DD406F";
paths = (
{
closed = 1;
nodes = (
"122 1400 LINE",
"122 0 LINE",
"386 0 LINE",
"386 1268 LINE",
"422 1268 LINE",
"590 0 LINE",
"838 0 LINE",
"838 -82 LINE SMOOTH",
"838 -124 OFFCURVE",
"820 -148 OFFCURVE",
"778 -148 CURVE SMOOTH",
"488 -148 LINE",
"488 -400 LINE",
"900 -400 LINE SMOOTH",
"1020 -400 OFFCURVE",
"1102 -334 OFFCURVE",
"1102 -196 CURVE SMOOTH",
"1102 1400 LINE",
"838 1400 LINE",
"838 132 LINE",
"802 132 LINE",
"634 1400 LINE"
);
}
);
width = 1224;
},
{
layerId = "6008D70E-46A9-43E5-86AA-D196D19196A4";
paths = (
{
closed = 1;
nodes = (
"318 1400 LINE",
"20 0 LINE",
"188 0 LINE",
"470 1328 LINE",
"494 1328 LINE",
"574 0 LINE",
"736 0 LINE",
"708 -136 LINE SMOOTH",
"692 -216 OFFCURVE",
"656 -244 OFFCURVE",
"576 -244 CURVE SMOOTH",
"256 -244 LINE",
"256 -400 LINE",
"580 -400 LINE SMOOTH",
"736 -400 OFFCURVE",
"834 -332 OFFCURVE",
"870 -160 CURVE SMOOTH",
"1202 1400 LINE",
"1034 1400 LINE",
"752 72 LINE",
"728 72 LINE",
"648 1400 LINE"
);
}
);
width = 1224;
},
{
layerId = "612FA678-EA3C-4672-88DD-29ED08259473";
paths = (
{
closed = 1;
nodes = (
"282 1400 LINE",
"-14 0 LINE",
"236 0 LINE",
"506 1268 LINE",
"542 1268 LINE",
"448 0 LINE",
"690 0 LINE",
"670 -94 LINE SMOOTH",
"662 -136 OFFCURVE",
"638 -160 OFFCURVE",
"596 -160 CURVE SMOOTH",
"294 -160 LINE",
"294 -400 LINE",
"652 -400 LINE SMOOTH",
"772 -400 OFFCURVE",
"868 -334 OFFCURVE",
"898 -196 CURVE SMOOTH",
"1238 1400 LINE",
"986 1400 LINE",
"716 132 LINE",
"680 132 LINE",
"774 1400 LINE"
);
}
);
width = 1224;
}
);
unicode = 014A;
userData = {
com.typemytype.robofont.guides = (
{
angle = 90;
isGlobal = 0;
magnetic = 5;
x = 241;
y = 0;
}
);
};
},
{
export = 0;
glyphname = Oacute;
lastChange = "2019-01-23 17:14:57 +0000";
layers = (
{
components = (
{
name = O;
},
{
name = acute;
transform = "{1, 0, 0, 1, 88, 408}";
}
);
layerId = "FBAFFF81-1F8B-4B58-9158-C4AF3F48F88C";
width = 1224;
},
{
components = (
{
name = O;
},
{
name = acute;
transform = "{1, 0, 0, 1, 78, 408}";
}
);
layerId = "50C9B437-FF28-4DF4-B0E6-290519DD406F";
width = 1224;
},
{
components = (
{
name = O;
},
{
name = acute;
transform = "{1, 0, 0, 1, 130, 408}";
}
);
layerId = "6008D70E-46A9-43E5-86AA-D196D19196A4";
width = 1224;
},
{
components = (
{
name = O;
},
{
name = acute;
transform = "{1, 0, 0, 1, 150, 408}";
}
);
layerId = "612FA678-EA3C-4672-88DD-29ED08259473";
width = 1224;
},
{
associatedMasterId = "FBAFFF81-1F8B-4B58-9158-C4AF3F48F88C";
layerId = "218320C1-4A64-4171-A136-AF4E202A6253";
name = "Sep 16 18, 07:37";
paths = (
{
closed = 1;
nodes = (
"920 -28 OFFCURVE",
"1104 172 OFFCURVE",
"1104 544 CURVE SMOOTH",
"1104 768 LINE SMOOTH",
"1104 798 OFFCURVE",
"1104 826 OFFCURVE",
"1104 856 CURVE SMOOTH",
"1104 1216 OFFCURVE",
"920 1400 OFFCURVE",
"612 1400 CURVE SMOOTH",
"304 1400 OFFCURVE",
"120 1216 OFFCURVE",
"120 856 CURVE SMOOTH",
"120 632 LINE SMOOTH",
"120 602 OFFCURVE",
"120 574 OFFCURVE",
"120 544 CURVE SMOOTH",
"120 172 OFFCURVE",
"304 -28 OFFCURVE",
"612 -28 CURVE SMOOTH"
);
},
{
closed = 1;
nodes = (
"396 128 OFFCURVE",
"288 284 OFFCURVE",
"288 556 CURVE SMOOTH",
"288 586 OFFCURVE",
"288 618 OFFCURVE",
"288 648 CURVE SMOOTH",
"288 844 LINE SMOOTH",
"288 1100 OFFCURVE",
"396 1272 OFFCURVE",
"612 1272 CURVE SMOOTH",
"828 1272 OFFCURVE",
"936 1100 OFFCURVE",
"936 844 CURVE SMOOTH",
"936 814 OFFCURVE",
"936 784 OFFCURVE",
"936 754 CURVE SMOOTH",
"936 556 LINE SMOOTH",
"936 284 OFFCURVE",
"828 128 OFFCURVE",
"612 128 CURVE"
);
},
{
closed = 1;
nodes = (
"548 1548 LINE",
"692 1548 LINE",
"860 1784 LINE",
"680 1784 LINE"
);
}
);
width = 1224;
}
);
unicode = 00D3;
},
{
color = 6;
export = 0;
glyphname = Oslash;
lastChange = "2019-01-25 00:34:01 +0000";
layers = (
{
components = (
{
name = O;
},
{
name = slashlongcomb.case;
transform = "{1, 0, 0, 1, -4, 0}";
}
);
layerId = "FBAFFF81-1F8B-4B58-9158-C4AF3F48F88C";
width = 1224;
},
{
components = (
{
name = O;
},
{
name = slashlongcomb.case;
transform = "{1, 0, 0, 1, 1, 0}";
}
);
layerId = "50C9B437-FF28-4DF4-B0E6-290519DD406F";
width = 1224;
},
{
components = (
{
name = O;
},
{
name = slashlongcomb.case;
transform = "{1, 0, 0, 1, -45, 0}";
}
);
layerId = "6008D70E-46A9-43E5-86AA-D196D19196A4";
width = 1224;
},
{
components = (
{
name = O;
},
{
name = slashlongcomb.case;
transform = "{1, 0, 0, 1, -40, 0}";
}
);
layerId = "612FA678-EA3C-4672-88DD-29ED08259473";
width = 1224;
},
{
associatedMasterId = "FBAFFF81-1F8B-4B58-9158-C4AF3F48F88C";
layerId = "1456D5BF-F429-4CB5-A810-A399C90270C5";
name = "Jan 24 19, 19:32";
paths = (
{
closed = 1;
nodes = (
"404 -172 LINE",
"458 -8 LINE",
"504 -22 OFFCURVE",
"556 -28 OFFCURVE",
"612 -28 CURVE SMOOTH",
"920 -28 OFFCURVE",
"1104 172 OFFCURVE",
"1104 544 CURVE SMOOTH",
"1104 856 LINE SMOOTH",
"1104 1082 OFFCURVE",
"1030 1248 OFFCURVE",
"900 1342 CURVE",
"954 1504 LINE",
"814 1548 LINE",
"768 1406 LINE",
"720 1420 OFFCURVE",
"668 1428 OFFCURVE",
"612 1428 CURVE SMOOTH",
"304 1428 OFFCURVE",
"120 1216 OFFCURVE",
"120 856 CURVE SMOOTH",
"120 544 LINE SMOOTH",
"120 310 OFFCURVE",
"192 144 OFFCURVE",
"322 54 CURVE",
"262 -128 LINE"
);
},
{
closed = 1;
nodes = (
"288 844 LINE SMOOTH",
"288 1100 OFFCURVE",
"396 1272 OFFCURVE",
"612 1272 CURVE SMOOTH",
"650 1272 OFFCURVE",
"686 1266 OFFCURVE",
"718 1256 CURVE",
"378 226 LINE",
"318 300 OFFCURVE",
"288 412 OFFCURVE",
"288 556 CURVE"
);
},
{
closed = 1;
nodes = (
"574 128 OFFCURVE",
"538 132 OFFCURVE",
"508 142 CURVE",
"844 1168 LINE",
"904 1092 OFFCURVE",
"936 980 OFFCURVE",
"936 844 CURVE SMOOTH",
"936 556 LINE SMOOTH",
"936 284 OFFCURVE",
"828 128 OFFCURVE",
"612 128 CURVE SMOOTH"
);
}
);
width = 1224;
},
{
associatedMasterId = "6008D70E-46A9-43E5-86AA-D196D19196A4";
layerId = "FC129DC7-3674-4291-B980-E941E85E5F19";
name = "Jan 24 19, 19:32";
paths = (
{
closed = 1;
nodes = (
"78 504 OFFCURVE",
"72 444 OFFCURVE",
"72 390 CURVE SMOOTH",
"72 248 OFFCURVE",
"114 138 OFFCURVE",
"192 66 CURVE",
"102 -102 LINE",
"222 -172 LINE",
"312 -4 LINE",
"360 -20 OFFCURVE",
"412 -28 OFFCURVE",
"472 -28 CURVE SMOOTH",
"800 -28 OFFCURVE",
"994 172 OFFCURVE",
"1072 544 CURVE SMOOTH",
"1134 834 LINE SMOOTH",
"1148 896 OFFCURVE",
"1154 956 OFFCURVE",
"1154 1010 CURVE SMOOTH",
"1154 1150 OFFCURVE",
"1112 1260 OFFCURVE",
"1034 1332 CURVE",
"1114 1480 LINE",
"994 1548 LINE",
"914 1402 LINE",
"868 1418 OFFCURVE",
"814 1428 OFFCURVE",
"754 1428 CURVE SMOOTH",
"426 1428 OFFCURVE",
"232 1228 OFFCURVE",
"154 856 CURVE SMOOTH",
"92 566 LINE SMOOTH"
);
},
{
closed = 1;
nodes = (
"240 446 OFFCURVE",
"246 494 OFFCURVE",
"256 544 CURVE SMOOTH",
"320 844 LINE SMOOTH",
"376 1106 OFFCURVE",
"510 1276 OFFCURVE",
"730 1276 CURVE SMOOTH",
"770 1276 OFFCURVE",
"806 1270 OFFCURVE",
"836 1258 CURVE",
"280 230 LINE",
"252 276 OFFCURVE",
"240 334 OFFCURVE",
"240 404 CURVE SMOOTH"
);
},
{
closed = 1;
nodes = (
"456 124 OFFCURVE",
"420 130 OFFCURVE",
"390 140 CURVE",
"946 1168 LINE",
"972 1122 OFFCURVE",
"986 1064 OFFCURVE",
"986 996 CURVE SMOOTH",
"986 954 OFFCURVE",
"980 906 OFFCURVE",
"970 856 CURVE SMOOTH",
"906 556 LINE SMOOTH",
"850 296 OFFCURVE",
"716 124 OFFCURVE",
"496 124 CURVE SMOOTH"
);
}
);
width = 1224;
},
{
associatedMasterId = "50C9B437-FF28-4DF4-B0E6-290519DD406F";
layerId = "640F4913-CB25-4672-B7A3-4ED393918642";
name = "Jan 24 19, 19:32";
paths = (
{
closed = 1;
nodes = (
"96 322 OFFCURVE",
"164 162 OFFCURVE",
"288 68 CURVE",
"228 -118 LINE",
"448 -186 LINE",
"502 -20 LINE",
"536 -26 OFFCURVE",
"572 -28 OFFCURVE",
"612 -28 CURVE SMOOTH",
"932 -28 OFFCURVE",
"1128 172 OFFCURVE",
"1128 544 CURVE SMOOTH",
"1128 856 LINE SMOOTH",
"1128 1066 OFFCURVE",
"1060 1224 OFFCURVE",
"942 1322 CURVE",
"998 1494 LINE",
"780 1562 LINE",
"732 1416 LINE",
"694 1424 OFFCURVE",
"654 1428 OFFCURVE",
"612 1428 CURVE SMOOTH",
"292 1428 OFFCURVE",
"96 1216 OFFCURVE",
"96 856 CURVE SMOOTH",
"96 544 LINE SMOOTH"
);
},
{
closed = 1;
nodes = (
"360 872 LINE SMOOTH",
"360 1048 OFFCURVE",
"432 1188 OFFCURVE",
"612 1188 CURVE SMOOTH",
"626 1188 OFFCURVE",
"642 1186 OFFCURVE",
"656 1184 CURVE",
"384 358 LINE",
"366 406 OFFCURVE",
"360 462 OFFCURVE",
"360 528 CURVE"
);
},
{
closed = 1;
nodes = (
"578 212 LINE",
"842 1020 LINE",
"858 976 OFFCURVE",
"864 926 OFFCURVE",
"864 872 CURVE SMOOTH",
"864 528 LINE SMOOTH",
"864 340 OFFCURVE",
"804 212 OFFCURVE",
"612 212 CURVE"
);
}
);
width = 1224;
},
{
associatedMasterId = "612FA678-EA3C-4672-88DD-29ED08259473";
layerId = "9E331FBA-BCF3-47F1-A6F5-969CA87419CD";
name = "Jan 24 19, 19:32";
paths = (
{
closed = 1;
nodes = (
"54 498 OFFCURVE",
"50 452 OFFCURVE",
"50 408 CURVE SMOOTH",
"50 280 OFFCURVE",
"92 170 OFFCURVE",
"170 92 CURVE",
"80 -74 LINE",
"262 -186 LINE",
"356 -12 LINE",
"396 -22 OFFCURVE",
"440 -28 OFFCURVE",
"490 -28 CURVE SMOOTH",
"826 -28 OFFCURVE",
"1014 152 OFFCURVE",
"1096 544 CURVE SMOOTH",
"1162 856 LINE SMOOTH",
"1172 902 OFFCURVE",
"1176 948 OFFCURVE",
"1176 992 CURVE SMOOTH",
"1176 1114 OFFCURVE",
"1136 1222 OFFCURVE",
"1064 1300 CURVE",
"1148 1456 LINE",
"964 1562 LINE",
"880 1408 LINE",
"836 1420 OFFCURVE",
"788 1428 OFFCURVE",
"736 1428 CURVE SMOOTH",
"400 1428 OFFCURVE",
"212 1248 OFFCURVE",
"130 856 CURVE SMOOTH",
"64 544 LINE SMOOTH"
);
},
{
closed = 1;
nodes = (
"312 458 OFFCURVE",
"316 492 OFFCURVE",
"324 528 CURVE SMOOTH",
"398 872 LINE SMOOTH",
"436 1048 OFFCURVE",
"530 1188 OFFCURVE",
"712 1188 CURVE SMOOTH",
"728 1188 OFFCURVE",
"744 1186 OFFCURVE",
"760 1184 CURVE",
"318 366 LINE",
"314 384 OFFCURVE",
"312 406 OFFCURVE",
"312 428 CURVE SMOOTH"
);
},
{
closed = 1;
nodes = (
"502 212 OFFCURVE",
"488 212 OFFCURVE",
"478 214 CURVE",
"910 1016 LINE",
"912 1002 OFFCURVE",
"914 988 OFFCURVE",
"914 972 CURVE SMOOTH",
"914 942 OFFCURVE",
"910 914 OFFCURVE",
"902 872 CURVE SMOOTH",
"828 528 LINE SMOOTH",
"790 352 OFFCURVE",
"696 212 OFFCURVE",
"514 212 CURVE SMOOTH"
);
}
);
width = 1224;
}
);
unicode = 00D8;
userData = {
com.typemytype.robofont.guides = (
{
angle = 90;
isGlobal = 0;
magnetic = 5;
x = 306;
y = 0;
}
);
};
},
{
export = 0;
glyphname = OE;
lastChange = "2019-01-23 17:14:57 +0000";
layers = (
{
layerId = "FBAFFF81-1F8B-4B58-9158-C4AF3F48F88C";
paths = (
{
closed = 1;
nodes = (
"1092 0 LINE",
"1092 156 LINE",
"768 156 LINE",
"768 624 LINE",
"1068 624 LINE",
"1068 780 LINE",
"768 780 LINE",
"768 1244 LINE",
"1080 1244 LINE",
"1080 1400 LINE",
"600 1400 LINE SMOOTH",
"292 1400 OFFCURVE",
"108 1188 OFFCURVE",
"108 828 CURVE SMOOTH",
"108 572 LINE SMOOTH",
"108 200 OFFCURVE",
"292 0 OFFCURVE",
"600 0 CURVE"
);
},
{
closed = 1;
nodes = (
"384 156 OFFCURVE",
"276 312 OFFCURVE",
"276 584 CURVE SMOOTH",
"276 816 LINE SMOOTH",
"276 1072 OFFCURVE",
"384 1244 OFFCURVE",
"600 1244 CURVE",
"600 156 LINE"
);
}
);
width = 1224;
},
{
layerId = "50C9B437-FF28-4DF4-B0E6-290519DD406F";
paths = (
{
closed = 1;
nodes = (
"1184 0 LINE",
"1184 252 LINE",
"828 252 LINE",
"828 576 LINE",
"1160 576 LINE",
"1160 828 LINE",
"828 828 LINE",
"828 1148 LINE",
"1172 1148 LINE",
"1172 1400 LINE",
"564 1400 LINE SMOOTH",
"244 1400 OFFCURVE",
"48 1188 OFFCURVE",
"48 828 CURVE SMOOTH",
"48 572 LINE SMOOTH",
"48 200 OFFCURVE",
"244 0 OFFCURVE",
"564 0 CURVE"
);
},
{
closed = 1;
nodes = (
"372 252 OFFCURVE",
"312 368 OFFCURVE",
"312 556 CURVE SMOOTH",
"312 844 LINE SMOOTH",
"312 1020 OFFCURVE",
"384 1148 OFFCURVE",
"564 1148 CURVE",
"564 252 LINE"
);
}
);
width = 1224;
},
{
layerId = "6008D70E-46A9-43E5-86AA-D196D19196A4";
paths = (
{
closed = 1;
nodes = (
"958 156 LINE",
"654 156 LINE",
"752 624 LINE",
"1066 624 LINE",
"1066 780 LINE",
"786 780 LINE",
"884 1244 LINE",
"1210 1244 LINE",
"1210 1400 LINE",
"750 1400 LINE SMOOTH",
"418 1400 OFFCURVE",
"220 1204 OFFCURVE",
"146 848 CURVE SMOOTH",
"88 572 LINE SMOOTH",
"74 500 OFFCURVE",
"68 452 OFFCURVE",
"68 398 CURVE SMOOTH",
"68 148 OFFCURVE",
"208 0 OFFCURVE",
"466 0 CURVE",
"958 0 LINE"
);
},
{
closed = 1;
nodes = (
"320 156 OFFCURVE",
"234 238 OFFCURVE",
"234 406 CURVE SMOOTH",
"234 452 OFFCURVE",
"242 504 OFFCURVE",
"254 564 CURVE SMOOTH",
"312 832 LINE SMOOTH",
"370 1100 OFFCURVE",
"506 1244 OFFCURVE",
"716 1244 CURVE",
"486 156 LINE"
);
}
);
width = 1224;
},
{
layerId = "612FA678-EA3C-4672-88DD-29ED08259473";
paths = (
{
closed = 1;
nodes = (
"362 1400 OFFCURVE",
"160 1234 OFFCURVE",
"74 828 CURVE SMOOTH",
"20 572 LINE SMOOTH",
"8 514 OFFCURVE",
"2 460 OFFCURVE",
"2 410 CURVE SMOOTH",
"2 148 OFFCURVE",
"174 0 OFFCURVE",
"422 0 CURVE SMOOTH",
"1028 0 LINE",
"1028 252 LINE",
"732 252 LINE",
"800 576 LINE",
"1126 576 LINE",
"1126 828 LINE",
"854 828 LINE",
"922 1148 LINE",
"1248 1148 LINE",
"1248 1400 LINE",
"712 1400 LINE SMOOTH"
);
},
{
closed = 1;
nodes = (
"324 252 OFFCURVE",
"268 334 OFFCURVE",
"268 456 CURVE SMOOTH",
"268 490 OFFCURVE",
"274 528 OFFCURVE",
"282 568 CURVE SMOOTH",
"340 832 LINE SMOOTH",
"380 1012 OFFCURVE",
"478 1146 OFFCURVE",
"658 1148 CURVE",
"468 252 LINE"
);
}
);
width = 1224;
}
);
unicode = 0152;
},
{
export = 0;
glyphname = Thorn;
lastChange = "2019-01-23 17:14:57 +0000";
layers = (
{
layerId = "FBAFFF81-1F8B-4B58-9158-C4AF3F48F88C";
paths = (
{
closed = 1;
nodes = (
"954 300 OFFCURVE",
"1098 480 OFFCURVE",
"1098 684 CURVE SMOOTH",
"1098 744 LINE SMOOTH",
"1098 946 OFFCURVE",
"956 1124 OFFCURVE",
"670 1124 CURVE SMOOTH",
"338 1124 LINE",
"338 1400 LINE",
"170 1400 LINE",
"170 0 LINE",
"338 0 LINE",
"338 300 LINE",
"670 300 LINE SMOOTH"
);
},
{
closed = 1;
nodes = (
"650 968 LINE SMOOTH",
"838 968 OFFCURVE",
"930 872 OFFCURVE",
"930 732 CURVE SMOOTH",
"930 696 LINE SMOOTH",
"930 536 OFFCURVE",
"838 456 OFFCURVE",
"650 456 CURVE SMOOTH",
"338 456 LINE",
"338 968 LINE"
);
}
);
width = 1224;
},
{
layerId = "50C9B437-FF28-4DF4-B0E6-290519DD406F";
paths = (
{
closed = 1;
nodes = (
"974 264 OFFCURVE",
"1116 474 OFFCURVE",
"1116 682 CURVE SMOOTH",
"1116 730 LINE SMOOTH",
"1116 932 OFFCURVE",
"974 1136 OFFCURVE",
"688 1136 CURVE SMOOTH",
"404 1136 LINE",
"404 1400 LINE",
"140 1400 LINE",
"140 0 LINE",
"404 0 LINE",
"404 264 LINE",
"688 264 LINE SMOOTH"
);
},
{
closed = 1;
nodes = (
"662 884 LINE SMOOTH",
"778 884 OFFCURVE",
"852 814 OFFCURVE",
"852 712 CURVE SMOOTH",
"852 688 LINE SMOOTH",
"852 586 OFFCURVE",
"778 516 OFFCURVE",
"662 516 CURVE SMOOTH",
"404 516 LINE",
"404 884 LINE"
);
}
);
width = 1224;
},
{
layerId = "6008D70E-46A9-43E5-86AA-D196D19196A4";
paths = (
{
closed = 1;
nodes = (
"904 300 OFFCURVE",
"1104 512 OFFCURVE",
"1104 790 CURVE SMOOTH",
"1104 984 OFFCURVE",
"958 1124 OFFCURVE",
"720 1124 CURVE SMOOTH",
"432 1124 LINE",
"490 1400 LINE",
"322 1400 LINE",
"24 0 LINE",
"192 0 LINE",
"256 300 LINE",
"576 300 LINE SMOOTH"
);
},
{
closed = 1;
nodes = (
"696 968 LINE SMOOTH",
"848 968 OFFCURVE",
"932 900 OFFCURVE",
"932 760 CURVE SMOOTH",
"932 572 OFFCURVE",
"788 456 OFFCURVE",
"590 456 CURVE SMOOTH",
"290 456 LINE",
"398 968 LINE"
);
}
);
width = 1224;
},
{
layerId = "612FA678-EA3C-4672-88DD-29ED08259473";
paths = (
{
closed = 1;
nodes = (
"952 264 OFFCURVE",
"1136 508 OFFCURVE",
"1136 796 CURVE SMOOTH",
"1136 980 OFFCURVE",
"996 1136 OFFCURVE",
"776 1136 CURVE SMOOTH",
"504 1136 LINE",
"560 1400 LINE",
"296 1400 LINE",
"0 0 LINE",
"262 0 LINE",
"318 264 LINE",
"602 264 LINE SMOOTH"
);
},
{
closed = 1;
nodes = (
"700 884 LINE SMOOTH",
"804 884 OFFCURVE",
"866 832 OFFCURVE",
"866 740 CURVE SMOOTH",
"866 608 OFFCURVE",
"758 516 OFFCURVE",
"630 516 CURVE SMOOTH",
"372 516 LINE",
"450 884 LINE"
);
}
);
width = 1224;
}
);
unicode = 00DE;
},
{
color = 6;
export = 0;
glyphname = Racute;
lastChange = "2019-01-23 17:14:57 +0000";
layers = (
{
components = (
{
name = acute;
transform = "{1, 0, 0, 1, 44, 408}";
}
);
layerId = "FBAFFF81-1F8B-4B58-9158-C4AF3F48F88C";
paths = (
{
closed = 1;
nodes = (
"1050 596 OFFCURVE",
"1002 648 OFFCURVE",
"922 660 CURVE",
"922 684 LINE",
"1042 740 OFFCURVE",
"1098 856 OFFCURVE",
"1098 960 CURVE SMOOTH",
"1098 1020 LINE SMOOTH",
"1098 1222 OFFCURVE",
"956 1400 OFFCURVE",
"670 1400 CURVE SMOOTH",
"170 1400 LINE",
"170 0 LINE",
"338 0 LINE",
"338 576 LINE",
"774 576 LINE SMOOTH",
"854 576 OFFCURVE",
"882 536 OFFCURVE",
"882 468 CURVE SMOOTH",
"882 0 LINE",
"1050 0 LINE",
"1050 504 LINE SMOOTH"
);
},
{
closed = 1;
nodes = (
"650 1244 LINE SMOOTH",
"838 1244 OFFCURVE",
"930 1148 OFFCURVE",
"930 1008 CURVE SMOOTH",
"930 972 LINE SMOOTH",
"930 816 OFFCURVE",
"838 732 OFFCURVE",
"650 732 CURVE SMOOTH",
"338 732 LINE",
"338 1244 LINE"
);
}
);
width = 1224;
},
{
components = (
{
name = R;
},
{
name = acute;
transform = "{1, 0, 0, 1, 44, 408}";
}
);
layerId = "50C9B437-FF28-4DF4-B0E6-290519DD406F";
width = 1224;
},
{
components = (
{
name = R;
},
{
name = acute;
transform = "{1, 0, 0, 1, 84, 408}";
}
);
layerId = "6008D70E-46A9-43E5-86AA-D196D19196A4";
width = 1224;
},
{
components = (
{
alignment = -1;
name = R;
transform = "{1, 0, 0, 1, -2, 0}";
},
{
alignment = -1;
name = acute;
transform = "{1, 0, 0, 1, 72, 408}";
}
);
layerId = "612FA678-EA3C-4672-88DD-29ED08259473";
width = 1224;
}
);
unicode = 0154;
userData = {
com.typemytype.robofont.guides = (
{
angle = 90;
isGlobal = 0;
magnetic = 5;
x = 335;
y = 0;
},
{
angle = 90;
isGlobal = 0;
magnetic = 5;
x = 325;
y = 0;
}
);
};
},
{
color = 6;
export = 0;
glyphname = Sacute;
lastChange = "2019-01-23 17:14:57 +0000";
layers = (
{
components = (
{
name = acute;
transform = "{1, 0, 0, 1, 56, 408}";
}
);
layerId = "FBAFFF81-1F8B-4B58-9158-C4AF3F48F88C";
paths = (
{
closed = 1;
nodes = (
"1110 924 LINE",
"1110 1008 LINE SMOOTH",
"1110 1234 OFFCURVE",
"928 1428 OFFCURVE",
"612 1428 CURVE SMOOTH",
"340 1428 OFFCURVE",
"150 1274 OFFCURVE",
"150 1056 CURVE SMOOTH",
"150 1032 LINE SMOOTH",
"150 792 OFFCURVE",
"330 684 OFFCURVE",
"610 644 CURVE SMOOTH",
"852 610 OFFCURVE",
"954 538 OFFCURVE",
"954 392 CURVE SMOOTH",
"954 380 LINE SMOOTH",
"954 230 OFFCURVE",
"848 128 OFFCURVE",
"640 128 CURVE SMOOTH",
"402 128 OFFCURVE",
"258 252 OFFCURVE",
"258 496 CURVE SMOOTH",
"258 544 LINE",
"90 544 LINE",
"90 484 LINE SMOOTH",
"90 192 OFFCURVE",
"282 -28 OFFCURVE",
"640 -28 CURVE SMOOTH",
"954 -28 OFFCURVE",
"1122 138 OFFCURVE",
"1122 380 CURVE SMOOTH",
"1122 404 LINE SMOOTH",
"1122 616 OFFCURVE",
"986 744 OFFCURVE",
"694 788 CURVE SMOOTH",
"444 826 OFFCURVE",
"318 884 OFFCURVE",
"318 1038 CURVE SMOOTH",
"318 1050 LINE SMOOTH",
"318 1192 OFFCURVE",
"458 1272 OFFCURVE",
"610 1272 CURVE SMOOTH",
"786 1272 OFFCURVE",
"942 1178 OFFCURVE",
"942 996 CURVE SMOOTH",
"942 924 LINE"
);
}
);
width = 1224;
},
{
components = (
{
name = S;
},
{
name = acute;
transform = "{1, 0, 0, 1, 72, 408}";
}
);
layerId = "50C9B437-FF28-4DF4-B0E6-290519DD406F";
width = 1224;
},
{
components = (
{
name = S;
},
{
name = acute;
transform = "{1, 0, 0, 1, 128, 408}";
}
);
layerId = "6008D70E-46A9-43E5-86AA-D196D19196A4";
width = 1224;
},
{
components = (
{
name = S;
},
{
name = acute;
transform = "{1, 0, 0, 1, 100, 408}";
}
);
layerId = "612FA678-EA3C-4672-88DD-29ED08259473";
width = 1224;
}
);
unicode = 015A;
userData = {
com.typemytype.robofont.guides = (
{
angle = 90;
isGlobal = 0;
magnetic = 5;
x = 306;
y = 0;
}
);
};
},
{
color = 6;
export = 0;
glyphname = Scedilla;
lastChange = "2019-01-23 17:14:57 +0000";
layers = (
{
layerId = "FBAFFF81-1F8B-4B58-9158-C4AF3F48F88C";
paths = (
{
closed = 1;
nodes = (
"1110 924 LINE",
"1110 1008 LINE SMOOTH",
"1110 1234 OFFCURVE",
"928 1428 OFFCURVE",
"612 1428 CURVE SMOOTH",
"340 1428 OFFCURVE",
"150 1274 OFFCURVE",
"150 1056 CURVE SMOOTH",
"150 1032 LINE SMOOTH",
"150 792 OFFCURVE",
"330 684 OFFCURVE",
"610 644 CURVE SMOOTH",
"852 610 OFFCURVE",
"954 538 OFFCURVE",
"954 392 CURVE SMOOTH",
"954 380 LINE SMOOTH",
"954 230 OFFCURVE",
"848 128 OFFCURVE",
"640 128 CURVE SMOOTH",
"402 128 OFFCURVE",
"258 252 OFFCURVE",
"258 496 CURVE SMOOTH",
"258 544 LINE",
"90 544 LINE",
"90 484 LINE SMOOTH",
"90 224 OFFCURVE",
"242 22 OFFCURVE",
"528 -20 CURVE",
"492 -184 LINE",
"492 -196 LINE",
"644 -196 LINE",
"652 -180 OFFCURVE",
"670 -168 OFFCURVE",
"694 -168 CURVE SMOOTH",
"732 -168 OFFCURVE",
"764 -196 OFFCURVE",
"764 -244 CURVE SMOOTH",
"764 -302 OFFCURVE",
"724 -328 OFFCURVE",
"684 -328 CURVE SMOOTH",
"626 -328 OFFCURVE",
"596 -288 OFFCURVE",
"588 -248 CURVE",
"492 -284 LINE",
"512 -364 OFFCURVE",
"572 -424 OFFCURVE",
"686 -424 CURVE SMOOTH",
"790 -424 OFFCURVE",
"872 -352 OFFCURVE",
"872 -242 CURVE SMOOTH",
"872 -150 OFFCURVE",
"812 -72 OFFCURVE",
"720 -72 CURVE SMOOTH",
"664 -72 OFFCURVE",
"628 -96 OFFCURVE",
"612 -136 CURVE",
"600 -136 LINE",
"624 -28 LINE",
"640 -28 LINE SMOOTH",
"954 -28 OFFCURVE",
"1122 138 OFFCURVE",
"1122 380 CURVE SMOOTH",
"1122 404 LINE SMOOTH",
"1122 616 OFFCURVE",
"986 744 OFFCURVE",
"694 788 CURVE SMOOTH",
"444 826 OFFCURVE",
"318 884 OFFCURVE",
"318 1038 CURVE SMOOTH",
"318 1050 LINE SMOOTH",
"318 1192 OFFCURVE",
"458 1272 OFFCURVE",
"610 1272 CURVE SMOOTH",
"786 1272 OFFCURVE",
"942 1178 OFFCURVE",
"942 996 CURVE SMOOTH",
"942 924 LINE"
);
}
);
width = 1224;
},
{
layerId = "50C9B437-FF28-4DF4-B0E6-290519DD406F";
paths = (
{
closed = 1;
nodes = (
"1116 924 LINE",
"1116 996 LINE SMOOTH",
"1116 1224 OFFCURVE",
"936 1428 OFFCURVE",
"604 1428 CURVE SMOOTH",
"312 1428 OFFCURVE",
"120 1256 OFFCURVE",
"120 1028 CURVE SMOOTH",
"120 1016 LINE SMOOTH",
"120 740 OFFCURVE",
"324 644 OFFCURVE",
"604 596 CURVE SMOOTH",
"820 560 OFFCURVE",
"872 488 OFFCURVE",
"872 396 CURVE SMOOTH",
"872 300 OFFCURVE",
"796 220 OFFCURVE",
"636 220 CURVE SMOOTH",
"432 220 OFFCURVE",
"336 328 OFFCURVE",
"336 496 CURVE SMOOTH",
"336 544 LINE",
"72 544 LINE",
"72 484 LINE SMOOTH",
"72 236 OFFCURVE",
"208 40 OFFCURVE",
"474 -12 CURVE",
"438 -184 LINE",
"438 -208 LINE",
"632 -208 LINE",
"636 -192 OFFCURVE",
"650 -180 OFFCURVE",
"672 -180 CURVE SMOOTH",
"698 -180 OFFCURVE",
"712 -200 OFFCURVE",
"712 -224 CURVE SMOOTH",
"712 -256 OFFCURVE",
"684 -276 OFFCURVE",
"644 -276 CURVE SMOOTH",
"608 -276 OFFCURVE",
"574 -266 OFFCURVE",
"544 -248 CURVE",
"492 -384 LINE",
"536 -408 OFFCURVE",
"584 -424 OFFCURVE",
"660 -424 CURVE SMOOTH",
"784 -424 OFFCURVE",
"880 -348 OFFCURVE",
"880 -224 CURVE SMOOTH",
"880 -128 OFFCURVE",
"824 -48 OFFCURVE",
"714 -48 CURVE SMOOTH",
"664 -48 OFFCURVE",
"636 -68 OFFCURVE",
"622 -92 CURVE",
"598 -92 LINE",
"612 -28 LINE",
"632 -28 LINE SMOOTH",
"946 -28 OFFCURVE",
"1140 140 OFFCURVE",
"1140 400 CURVE SMOOTH",
"1140 424 LINE SMOOTH",
"1140 668 OFFCURVE",
"980 784 OFFCURVE",
"688 836 CURVE SMOOTH",
"456 878 OFFCURVE",
"388 932 OFFCURVE",
"388 1028 CURVE SMOOTH",
"388 1120 OFFCURVE",
"472 1180 OFFCURVE",
"604 1180 CURVE SMOOTH",
"760 1180 OFFCURVE",
"852 1084 OFFCURVE",
"852 972 CURVE SMOOTH",
"852 924 LINE"
);
}
);
width = 1224;
},
{
layerId = "6008D70E-46A9-43E5-86AA-D196D19196A4";
paths = (
{
closed = 1;
nodes = (
"1150 924 LINE",
"1166 996 LINE SMOOTH",
"1172 1022 OFFCURVE",
"1174 1050 OFFCURVE",
"1174 1076 CURVE SMOOTH",
"1174 1270 OFFCURVE",
"1012 1428 OFFCURVE",
"734 1428 CURVE SMOOTH",
"430 1428 OFFCURVE",
"192 1272 OFFCURVE",
"192 1000 CURVE SMOOTH",
"192 788 OFFCURVE",
"348 688 OFFCURVE",
"570 652 CURVE SMOOTH",
"802 616 OFFCURVE",
"888 562 OFFCURVE",
"888 414 CURVE SMOOTH",
"888 236 OFFCURVE",
"710 128 OFFCURVE",
"518 128 CURVE SMOOTH",
"320 128 OFFCURVE",
"208 210 OFFCURVE",
"208 386 CURVE SMOOTH",
"208 420 OFFCURVE",
"212 456 OFFCURVE",
"220 496 CURVE SMOOTH",
"230 544 LINE",
"62 544 LINE",
"50 484 LINE SMOOTH",
"42 442 OFFCURVE",
"38 400 OFFCURVE",
"38 362 CURVE SMOOTH",
"38 164 OFFCURVE",
"152 18 OFFCURVE",
"376 -18 CURVE",
"324 -172 LINE",
"324 -196 LINE",
"474 -196 LINE",
"484 -180 OFFCURVE",
"500 -168 OFFCURVE",
"528 -168 CURVE SMOOTH",
"562 -168 OFFCURVE",
"592 -188 OFFCURVE",
"592 -236 CURVE SMOOTH",
"592 -292 OFFCURVE",
"556 -328 OFFCURVE",
"496 -328 CURVE SMOOTH",
"436 -328 OFFCURVE",
"408 -292 OFFCURVE",
"404 -250 CURVE",
"304 -284 LINE",
"316 -366 OFFCURVE",
"384 -424 OFFCURVE",
"492 -424 CURVE SMOOTH",
"632 -424 OFFCURVE",
"700 -340 OFFCURVE",
"700 -220 CURVE SMOOTH",
"700 -140 OFFCURVE",
"652 -72 OFFCURVE",
"564 -72 CURVE SMOOTH",
"512 -72 OFFCURVE",
"478 -94 OFFCURVE",
"456 -136 CURVE",
"444 -136 LINE",
"482 -28 LINE",
"498 -28 LINE SMOOTH",
"818 -28 OFFCURVE",
"1062 136 OFFCURVE",
"1062 434 CURVE SMOOTH",
"1062 628 OFFCURVE",
"950 748 OFFCURVE",
"706 788 CURVE SMOOTH",
"490 824 OFFCURVE",
"364 872 OFFCURVE",
"364 1026 CURVE SMOOTH",
"364 1184 OFFCURVE",
"542 1272 OFFCURVE",
"720 1272 CURVE SMOOTH",
"874 1272 OFFCURVE",
"1002 1198 OFFCURVE",
"1002 1044 CURVE SMOOTH",
"1002 1022 OFFCURVE",
"1000 1006 OFFCURVE",
"994 976 CURVE SMOOTH",
"982 924 LINE"
);
}
);
width = 1224;
},
{
layerId = "612FA678-EA3C-4672-88DD-29ED08259473";
paths = (
{
closed = 1;
nodes = (
"1172 924 LINE",
"1180 960 LINE SMOOTH",
"1188 998 OFFCURVE",
"1190 1024 OFFCURVE",
"1190 1054 CURVE SMOOTH",
"1190 1268 OFFCURVE",
"1014 1428 OFFCURVE",
"716 1428 CURVE SMOOTH",
"366 1428 OFFCURVE",
"174 1240 OFFCURVE",
"174 988 CURVE SMOOTH",
"174 742 OFFCURVE",
"360 636 OFFCURVE",
"546 608 CURVE SMOOTH",
"742 578 OFFCURVE",
"820 526 OFFCURVE",
"820 426 CURVE SMOOTH",
"820 298 OFFCURVE",
"714 220 OFFCURVE",
"540 220 CURVE SMOOTH",
"378 220 OFFCURVE",
"296 298 OFFCURVE",
"296 424 CURVE SMOOTH",
"296 456 OFFCURVE",
"298 482 OFFCURVE",
"304 510 CURVE SMOOTH",
"312 544 LINE",
"48 544 LINE",
"38 498 LINE SMOOTH",
"30 462 OFFCURVE",
"28 426 OFFCURVE",
"28 392 CURVE SMOOTH",
"28 202 OFFCURVE",
"132 42 OFFCURVE",
"354 -10 CURVE",
"292 -184 LINE",
"292 -208 LINE",
"486 -208 LINE",
"494 -192 OFFCURVE",
"506 -180 OFFCURVE",
"528 -180 CURVE SMOOTH",
"550 -180 OFFCURVE",
"564 -194 OFFCURVE",
"564 -218 CURVE SMOOTH",
"564 -256 OFFCURVE",
"530 -276 OFFCURVE",
"484 -276 CURVE SMOOTH",
"442 -276 OFFCURVE",
"408 -264 OFFCURVE",
"382 -246 CURVE",
"308 -384 LINE",
"348 -408 OFFCURVE",
"404 -424 OFFCURVE",
"494 -424 CURVE SMOOTH",
"648 -424 OFFCURVE",
"736 -340 OFFCURVE",
"736 -204 CURVE SMOOTH",
"736 -104 OFFCURVE",
"680 -48 OFFCURVE",
"602 -48 CURVE SMOOTH",
"552 -48 OFFCURVE",
"520 -68 OFFCURVE",
"500 -92 CURVE",
"476 -92 LINE",
"504 -28 LINE",
"524 -28 LINE SMOOTH",
"876 -28 OFFCURVE",
"1100 160 OFFCURVE",
"1100 462 CURVE SMOOTH",
"1100 690 OFFCURVE",
"948 800 OFFCURVE",
"700 840 CURVE SMOOTH",
"524 868 OFFCURVE",
"450 918 OFFCURVE",
"450 1012 CURVE SMOOTH",
"450 1126 OFFCURVE",
"568 1180 OFFCURVE",
"692 1180 CURVE SMOOTH",
"846 1180 OFFCURVE",
"920 1108 OFFCURVE",
"920 1004 CURVE SMOOTH",
"920 986 OFFCURVE",
"918 970 OFFCURVE",
"914 950 CURVE SMOOTH",
"908 924 LINE"
);
}
);
width = 1224;
}
);
unicode = 015E;
userData = {
com.typemytype.robofont.guides = (
{
angle = 90;
isGlobal = 0;
magnetic = 5;
x = 320;
y = 0;
}
);
};
},
{
export = 0;
glyphname = uni1E9E;
lastChange = "2019-01-23 17:14:57 +0000";
layers = (
{
layerId = "FBAFFF81-1F8B-4B58-9158-C4AF3F48F88C";
paths = (
{
closed = 1;
nodes = (
"846 696 OFFCURVE",
"966 600 OFFCURVE",
"966 442 CURVE SMOOTH",
"966 430 LINE SMOOTH",
"966 272 OFFCURVE",
"830 156 OFFCURVE",
"654 156 CURVE SMOOTH",
"498 156 LINE",
"498 0 LINE",
"658 0 LINE SMOOTH",
"930 0 OFFCURVE",
"1134 188 OFFCURVE",
"1134 420 CURVE SMOOTH",
"1134 444 LINE SMOOTH",
"1134 692 OFFCURVE",
"940 828 OFFCURVE",
"722 828 CURVE SMOOTH",
"642 828 LINE",
"642 852 LINE",
"1026 1140 LINE",
"1026 1400 LINE",
"594 1400 LINE SMOOTH",
"356 1400 OFFCURVE",
"192 1256 OFFCURVE",
"192 992 CURVE",
"72 992 LINE",
"72 836 LINE",
"192 836 LINE",
"192 0 LINE",
"360 0 LINE",
"360 992 LINE SMOOTH",
"360 1164 OFFCURVE",
"460 1244 OFFCURVE",
"606 1244 CURVE SMOOTH",
"882 1244 LINE",
"882 1220 LINE",
"498 932 LINE",
"498 696 LINE",
"686 696 LINE SMOOTH"
);
}
);
width = 1224;
},
{
layerId = "50C9B437-FF28-4DF4-B0E6-290519DD406F";
paths = (
{
closed = 1;
nodes = (
"392 1400 OFFCURVE",
"188 1264 OFFCURVE",
"188 1000 CURVE SMOOTH",
"188 992 LINE",
"68 992 LINE",
"68 752 LINE",
"188 752 LINE",
"188 0 LINE",
"452 0 LINE",
"452 980 LINE SMOOTH",
"452 1108 OFFCURVE",
"528 1148 OFFCURVE",
"640 1148 CURVE SMOOTH",
"876 1148 LINE",
"876 1112 LINE",
"564 1004 LINE",
"564 576 LINE",
"732 576 LINE SMOOTH",
"848 576 OFFCURVE",
"912 512 OFFCURVE",
"912 414 CURVE SMOOTH",
"912 316 OFFCURVE",
"848 252 OFFCURVE",
"732 252 CURVE SMOOTH",
"564 252 LINE",
"564 0 LINE",
"742 0 LINE SMOOTH",
"1018 0 OFFCURVE",
"1176 176 OFFCURVE",
"1176 408 CURVE SMOOTH",
"1176 420 LINE SMOOTH",
"1176 652 OFFCURVE",
"1012 800 OFFCURVE",
"792 800 CURVE SMOOTH",
"756 800 LINE",
"756 836 LINE",
"1068 944 LINE",
"1068 1400 LINE",
"628 1400 LINE SMOOTH"
);
}
);
width = 1224;
},
{
layerId = "6008D70E-46A9-43E5-86AA-D196D19196A4";
paths = (
{
closed = 1;
nodes = (
"832 696 OFFCURVE",
"920 624 OFFCURVE",
"920 468 CURVE SMOOTH",
"920 276 OFFCURVE",
"764 156 OFFCURVE",
"538 156 CURVE SMOOTH",
"366 156 LINE",
"366 0 LINE",
"508 0 LINE SMOOTH",
"868 0 OFFCURVE",
"1088 192 OFFCURVE",
"1088 472 CURVE SMOOTH",
"1088 716 OFFCURVE",
"940 828 OFFCURVE",
"748 828 CURVE SMOOTH",
"656 828 LINE",
"656 852 LINE",
"1152 1152 LINE",
"1152 1400 LINE",
"732 1400 LINE SMOOTH",
"474 1400 OFFCURVE",
"314 1272 OFFCURVE",
"260 1020 CURVE SMOOTH",
"254 992 LINE",
"100 992 LINE",
"100 836 LINE",
"220 836 LINE",
"42 0 LINE",
"210 0 LINE",
"422 992 LINE SMOOTH",
"460 1168 OFFCURVE",
"560 1244 OFFCURVE",
"720 1244 CURVE SMOOTH",
"1008 1244 LINE",
"1008 1222 LINE",
"524 936 LINE",
"524 696 LINE",
"680 696 LINE SMOOTH"
);
}
);
width = 1224;
},
{
layerId = "612FA678-EA3C-4672-88DD-29ED08259473";
paths = (
{
closed = 1;
nodes = (
"476 1400 OFFCURVE",
"286 1264 OFFCURVE",
"230 1000 CURVE SMOOTH",
"230 992 LINE",
"82 992 LINE",
"82 752 LINE",
"178 752 LINE",
"18 0 LINE",
"282 0 LINE",
"490 980 LINE SMOOTH",
"518 1108 OFFCURVE",
"602 1148 OFFCURVE",
"714 1148 CURVE SMOOTH",
"944 1148 LINE",
"944 1112 LINE",
"560 1004 LINE",
"560 576 LINE",
"684 576 LINE SMOOTH",
"782 576 OFFCURVE",
"834 530 OFFCURVE",
"834 432 CURVE SMOOTH",
"834 304 OFFCURVE",
"724 252 OFFCURVE",
"616 252 CURVE SMOOTH",
"420 252 LINE",
"420 0 LINE",
"588 0 LINE SMOOTH",
"928 0 OFFCURVE",
"1106 204 OFFCURVE",
"1106 458 CURVE SMOOTH",
"1106 660 OFFCURVE",
"968 800 OFFCURVE",
"792 800 CURVE SMOOTH",
"760 800 LINE",
"760 836 LINE",
"1146 944 LINE",
"1146 1400 LINE",
"722 1400 LINE SMOOTH"
);
}
);
width = 1224;
}
);
unicode = 1E9E;
},
{
export = 0;
glyphname = uni018F;
lastChange = "2019-01-23 17:14:57 +0000";
layers = (
{
layerId = "FBAFFF81-1F8B-4B58-9158-C4AF3F48F88C";
paths = (
{
closed = 1;
nodes = (
"120 196 OFFCURVE",
"292 -28 OFFCURVE",
"612 -28 CURVE SMOOTH",
"920 -28 OFFCURVE",
"1104 172 OFFCURVE",
"1104 544 CURVE SMOOTH",
"1104 856 LINE SMOOTH",
"1104 1216 OFFCURVE",
"920 1428 OFFCURVE",
"612 1428 CURVE SMOOTH",
"292 1428 OFFCURVE",
"120 1204 OFFCURVE",
"120 920 CURVE SMOOTH",
"120 896 LINE",
"288 896 LINE",
"288 920 LINE SMOOTH",
"292 1104 OFFCURVE",
"384 1276 OFFCURVE",
"612 1276 CURVE SMOOTH",
"828 1276 OFFCURVE",
"936 1100 OFFCURVE",
"936 844 CURVE SMOOTH",
"936 724 LINE",
"120 724 LINE",
"120 480 LINE SMOOTH"
);
},
{
closed = 1;
nodes = (
"384 124 OFFCURVE",
"288 296 OFFCURVE",
"288 480 CURVE SMOOTH",
"288 568 LINE",
"936 568 LINE",
"936 556 LINE SMOOTH",
"936 284 OFFCURVE",
"828 124 OFFCURVE",
"612 124 CURVE SMOOTH"
);
}
);
width = 1224;
},
{
layerId = "50C9B437-FF28-4DF4-B0E6-290519DD406F";
paths = (
{
closed = 1;
nodes = (
"864 760 LINE",
"864 876 LINE SMOOTH",
"864 1044 OFFCURVE",
"784 1188 OFFCURVE",
"608 1188 CURVE SMOOTH",
"416 1188 OFFCURVE",
"360 1040 OFFCURVE",
"360 908 CURVE SMOOTH",
"360 896 LINE",
"96 896 LINE",
"96 908 LINE SMOOTH",
"96 1228 OFFCURVE",
"276 1428 OFFCURVE",
"608 1428 CURVE SMOOTH",
"928 1428 OFFCURVE",
"1128 1216 OFFCURVE",
"1128 856 CURVE SMOOTH",
"1128 544 LINE SMOOTH",
"1128 172 OFFCURVE",
"928 -28 OFFCURVE",
"608 -28 CURVE SMOOTH",
"276 -28 OFFCURVE",
"96 160 OFFCURVE",
"96 504 CURVE SMOOTH",
"96 760 LINE"
);
},
{
closed = 1;
nodes = (
"796 212 OFFCURVE",
"864 334 OFFCURVE",
"864 508 CURVE",
"360 508 LINE",
"360 492 LINE SMOOTH",
"360 348 OFFCURVE",
"404 212 OFFCURVE",
"608 212 CURVE SMOOTH"
);
}
);
width = 1224;
},
{
layerId = "6008D70E-46A9-43E5-86AA-D196D19196A4";
paths = (
{
closed = 1;
nodes = (
"60 456 OFFCURVE",
"56 412 OFFCURVE",
"56 372 CURVE SMOOTH",
"56 144 OFFCURVE",
"202 -28 OFFCURVE",
"478 -28 CURVE SMOOTH",
"796 -28 OFFCURVE",
"980 156 OFFCURVE",
"1064 544 CURVE SMOOTH",
"1126 832 LINE SMOOTH",
"1138 890 OFFCURVE",
"1144 946 OFFCURVE",
"1144 998 CURVE SMOOTH",
"1144 1258 OFFCURVE",
"990 1428 OFFCURVE",
"724 1428 CURVE SMOOTH",
"404 1428 OFFCURVE",
"220 1216 OFFCURVE",
"164 944 CURVE SMOOTH",
"154 896 LINE",
"320 896 LINE",
"328 932 LINE SMOOTH",
"370 1124 OFFCURVE",
"500 1276 OFFCURVE",
"708 1276 CURVE SMOOTH",
"894 1276 OFFCURVE",
"978 1160 OFFCURVE",
"978 992 CURVE SMOOTH",
"978 950 OFFCURVE",
"974 914 OFFCURVE",
"962 858 CURVE SMOOTH",
"934 724 LINE",
"118 724 LINE",
"70 500 LINE SMOOTH"
);
},
{
closed = 1;
nodes = (
"298 124 OFFCURVE",
"224 238 OFFCURVE",
"224 380 CURVE SMOOTH",
"224 412 OFFCURVE",
"226 440 OFFCURVE",
"234 480 CURVE SMOOTH",
"252 568 LINE",
"900 568 LINE",
"898 556 LINE SMOOTH",
"840 284 OFFCURVE",
"710 124 OFFCURVE",
"504 124 CURVE SMOOTH"
);
}
);
width = 1224;
},
{
layerId = "612FA678-EA3C-4672-88DD-29ED08259473";
paths = (
{
closed = 1;
nodes = (
"880 760 LINE",
"904 876 LINE SMOOTH",
"912 912 OFFCURVE",
"914 942 OFFCURVE",
"914 972 CURVE SMOOTH",
"914 1100 OFFCURVE",
"850 1188 OFFCURVE",
"704 1188 CURVE SMOOTH",
"516 1188 OFFCURVE",
"432 1044 OFFCURVE",
"404 896 CURVE",
"140 896 LINE",
"216 1256 OFFCURVE",
"420 1428 OFFCURVE",
"744 1428 CURVE SMOOTH",
"1022 1428 OFFCURVE",
"1180 1246 OFFCURVE",
"1180 996 CURVE SMOOTH",
"1180 952 OFFCURVE",
"1172 898 OFFCURVE",
"1164 856 CURVE SMOOTH",
"1098 544 LINE SMOOTH",
"1012 136 OFFCURVE",
"804 -28 OFFCURVE",
"460 -28 CURVE SMOOTH",
"204 -28 OFFCURVE",
"44 130 OFFCURVE",
"44 372 CURVE SMOOTH",
"44 414 OFFCURVE",
"48 458 OFFCURVE",
"58 504 CURVE SMOOTH",
"112 760 LINE"
);
},
{
closed = 1;
nodes = (
"696 212 OFFCURVE",
"790 334 OFFCURVE",
"826 508 CURVE",
"322 508 LINE",
"318 492 LINE SMOOTH",
"312 464 OFFCURVE",
"306 426 OFFCURVE",
"306 396 CURVE SMOOTH",
"306 294 OFFCURVE",
"354 212 OFFCURVE",
"508 212 CURVE SMOOTH"
);
}
);
width = 1224;
}
);
unicode = 018F;
userData = {
com.typemytype.robofont.guides = (
{
angle = 0;
isGlobal = 0;
magnetic = 5;
x = 0;
y = 284;
},
{
angle = 0;
isGlobal = 0;
magnetic = 5;
x = 0;
y = 384;
},
{
angle = 0;
isGlobal = 0;
magnetic = 5;
x = 0;
y = 470;
},
{
angle = 0;
isGlobal = 0;
magnetic = 5;
x = 0;
y = 498;
}
);
};
},
{
color = 6;
export = 0;
glyphname = Tbar;
lastChange = "2019-01-23 17:14:57 +0000";
layers = (
{
layerId = "FBAFFF81-1F8B-4B58-9158-C4AF3F48F88C";
paths = (
{
closed = 1;
nodes = (
"528 1244 LINE",
"528 856 LINE",
"216 856 LINE",
"216 700 LINE",
"528 700 LINE",
"528 0 LINE",
"696 0 LINE",
"696 700 LINE",
"1008 700 LINE",
"1008 856 LINE",
"696 856 LINE",
"696 1244 LINE",
"1104 1244 LINE",
"1104 1400 LINE",
"120 1400 LINE",
"120 1244 LINE"
);
}
);
width = 1224;
},
{
layerId = "50C9B437-FF28-4DF4-B0E6-290519DD406F";
paths = (
{
closed = 1;
nodes = (
"480 1148 LINE",
"480 898 LINE",
"204 898 LINE",
"204 658 LINE",
"480 658 LINE",
"480 0 LINE",
"744 0 LINE",
"744 658 LINE",
"1020 658 LINE",
"1020 898 LINE",
"744 898 LINE",
"744 1148 LINE",
"1116 1148 LINE",
"1116 1400 LINE",
"108 1400 LINE",
"108 1148 LINE"
);
}
);
width = 1224;
},
{
layerId = "6008D70E-46A9-43E5-86AA-D196D19196A4";
paths = (
{
closed = 1;
nodes = (
"640 1244 LINE",
"558 856 LINE",
"246 856 LINE",
"246 700 LINE",
"524 700 LINE",
"376 0 LINE",
"544 0 LINE",
"692 700 LINE",
"1006 700 LINE",
"1006 856 LINE",
"726 856 LINE",
"808 1244 LINE",
"1214 1244 LINE",
"1214 1400 LINE",
"232 1400 LINE",
"232 1244 LINE"
);
}
);
width = 1224;
},
{
layerId = "612FA678-EA3C-4672-88DD-29ED08259473";
paths = (
{
closed = 1;
nodes = (
"572 1148 LINE",
"518 898 LINE",
"216 898 LINE",
"216 658 LINE",
"468 658 LINE",
"328 0 LINE",
"592 0 LINE",
"732 658 LINE",
"1032 658 LINE",
"1032 898 LINE",
"782 898 LINE",
"836 1148 LINE",
"1208 1148 LINE",
"1208 1400 LINE",
"200 1400 LINE",
"200 1148 LINE"
);
}
);
width = 1224;
}
);
unicode = 0166;
userData = {
com.typemytype.robofont.guides = (
{
angle = 0;
isGlobal = 0;
magnetic = 5;
x = 0;
y = 350;
}
);
};
},
{
color = 6;
export = 0;
glyphname = Uogonek;
lastChange = "2019-01-23 17:14:57 +0000";
layers = (
{
layerId = "FBAFFF81-1F8B-4B58-9158-C4AF3F48F88C";
paths = (
{
closed = 1;
nodes = (
"132 472 LINE SMOOTH",
"132 174 OFFCURVE",
"286 2 OFFCURVE",
"540 -24 CURVE",
"516 -132 LINE SMOOTH",
"512 -152 OFFCURVE",
"510 -166 OFFCURVE",
"510 -180 CURVE SMOOTH",
"510 -278 OFFCURVE",
"588 -328 OFFCURVE",
"666 -328 CURVE SMOOTH",
"778 -328 LINE",
"778 -196 LINE",
"694 -196 LINE SMOOTH",
"666 -196 OFFCURVE",
"648 -180 OFFCURVE",
"648 -152 CURVE SMOOTH",
"648 -150 OFFCURVE",
"648 -146 OFFCURVE",
"650 -136 CURVE SMOOTH",
"676 -24 LINE",
"934 0 OFFCURVE",
"1092 172 OFFCURVE",
"1092 472 CURVE SMOOTH",
"1092 1400 LINE",
"924 1400 LINE",
"924 472 LINE SMOOTH",
"924 248 OFFCURVE",
"816 128 OFFCURVE",
"612 128 CURVE SMOOTH",
"408 128 OFFCURVE",
"300 248 OFFCURVE",
"300 472 CURVE SMOOTH",
"300 1400 LINE",
"132 1400 LINE"
);
}
);
width = 1224;
},
{
layerId = "50C9B437-FF28-4DF4-B0E6-290519DD406F";
paths = (
{
closed = 1;
nodes = (
"852 484 LINE SMOOTH",
"852 320 OFFCURVE",
"776 220 OFFCURVE",
"612 220 CURVE SMOOTH",
"448 220 OFFCURVE",
"372 320 OFFCURVE",
"372 484 CURVE SMOOTH",
"372 1400 LINE",
"108 1400 LINE",
"108 484 LINE SMOOTH",
"108 196 OFFCURVE",
"248 8 OFFCURVE",
"522 -22 CURVE",
"496 -144 LINE SMOOTH",
"492 -162 OFFCURVE",
"490 -176 OFFCURVE",
"490 -190 CURVE SMOOTH",
"490 -288 OFFCURVE",
"570 -340 OFFCURVE",
"650 -340 CURVE SMOOTH",
"810 -340 LINE",
"810 -172 LINE",
"718 -172 LINE SMOOTH",
"690 -172 OFFCURVE",
"672 -156 OFFCURVE",
"672 -128 CURVE SMOOTH",
"672 -124 OFFCURVE",
"672 -122 OFFCURVE",
"674 -112 CURVE SMOOTH",
"694 -24 LINE",
"972 6 OFFCURVE",
"1116 194 OFFCURVE",
"1116 484 CURVE SMOOTH",
"1116 1400 LINE",
"852 1400 LINE"
);
}
);
width = 1224;
},
{
layerId = "6008D70E-46A9-43E5-86AA-D196D19196A4";
paths = (
{
closed = 1;
nodes = (
"90 484 LINE SMOOTH",
"78 432 OFFCURVE",
"74 384 OFFCURVE",
"74 340 CURVE SMOOTH",
"74 102 OFFCURVE",
"234 -28 OFFCURVE",
"466 -28 CURVE",
"446 -42 LINE SMOOTH",
"390 -82 OFFCURVE",
"364 -136 OFFCURVE",
"364 -184 CURVE SMOOTH",
"364 -260 OFFCURVE",
"424 -328 OFFCURVE",
"512 -328 CURVE SMOOTH",
"720 -328 LINE",
"720 -196 LINE",
"546 -196 LINE SMOOTH",
"528 -196 OFFCURVE",
"514 -184 OFFCURVE",
"514 -168 CURVE SMOOTH",
"514 -152 OFFCURVE",
"524 -142 OFFCURVE",
"534 -134 CURVE SMOOTH",
"810 68 LINE SMOOTH",
"922 150 OFFCURVE",
"996 284 OFFCURVE",
"1036 472 CURVE SMOOTH",
"1232 1400 LINE",
"1064 1400 LINE",
"868 472 LINE SMOOTH",
"820 244 OFFCURVE",
"686 124 OFFCURVE",
"488 124 CURVE SMOOTH",
"326 124 OFFCURVE",
"242 204 OFFCURVE",
"242 356 CURVE SMOOTH",
"242 390 OFFCURVE",
"248 430 OFFCURVE",
"256 472 CURVE SMOOTH",
"452 1400 LINE",
"284 1400 LINE"
);
}
);
width = 1224;
},
{
layerId = "612FA678-EA3C-4672-88DD-29ED08259473";
paths = (
{
closed = 1;
nodes = (
"794 484 LINE SMOOTH",
"756 304 OFFCURVE",
"676 220 OFFCURVE",
"516 220 CURVE SMOOTH",
"392 220 OFFCURVE",
"328 288 OFFCURVE",
"328 402 CURVE SMOOTH",
"328 428 OFFCURVE",
"332 454 OFFCURVE",
"338 484 CURVE SMOOTH",
"532 1400 LINE",
"268 1400 LINE",
"80 508 LINE SMOOTH",
"68 454 OFFCURVE",
"66 416 OFFCURVE",
"66 374 CURVE SMOOTH",
"66 134 OFFCURVE",
"224 -10 OFFCURVE",
"444 -26 CURVE",
"420 -46 LINE SMOOTH",
"362 -90 OFFCURVE",
"336 -146 OFFCURVE",
"336 -198 CURVE SMOOTH",
"336 -274 OFFCURVE",
"392 -340 OFFCURVE",
"486 -340 CURVE SMOOTH",
"734 -340 LINE",
"734 -172 LINE",
"608 -172 LINE SMOOTH",
"586 -172 OFFCURVE",
"574 -160 OFFCURVE",
"574 -144 CURVE SMOOTH",
"574 -132 OFFCURVE",
"580 -124 OFFCURVE",
"590 -116 CURVE SMOOTH",
"834 66 LINE SMOOTH",
"944 148 OFFCURVE",
"1016 284 OFFCURVE",
"1058 484 CURVE SMOOTH",
"1252 1400 LINE",
"988 1400 LINE"
);
}
);
width = 1224;
}
);
unicode = 0172;
userData = {
com.typemytype.robofont.guides = (
{
angle = 90;
isGlobal = 0;
magnetic = 5;
x = 306;
y = 0;
}
);
};
},
{
export = 0;
glyphname = uni0122;
lastChange = "2019-01-23 17:14:57 +0000";
layers = (
{
components = (
{
name = G;
},
{
name = comma;
transform = "{1, 0, 0, 1, -10, -340}";
}
);
layerId = "FBAFFF81-1F8B-4B58-9158-C4AF3F48F88C";
width = 1224;
},
{
components = (
{
name = G;
}
);
layerId = "50C9B437-FF28-4DF4-B0E6-290519DD406F";
paths = (
{
closed = 1;
nodes = (
"722 -168 OFFCURVE",
"642 -88 OFFCURVE",
"548 -88 CURVE SMOOTH",
"454 -88 OFFCURVE",
"374 -168 OFFCURVE",
"374 -262 CURVE SMOOTH",
"374 -356 OFFCURVE",
"454 -436 OFFCURVE",
"548 -436 CURVE SMOOTH",
"566 -436 LINE",
"566 -460 LINE SMOOTH",
"566 -498 OFFCURVE",
"550 -520 OFFCURVE",
"512 -520 CURVE SMOOTH",
"422 -520 LINE",
"422 -676 LINE",
"542 -676 LINE SMOOTH",
"644 -676 OFFCURVE",
"722 -598 OFFCURVE",
"722 -496 CURVE SMOOTH",
"722 -262 LINE SMOOTH"
);
}
);
width = 1224;
},
{
components = (
{
name = G;
},
{
name = comma;
transform = "{1, 0, 0, 1, -118, -340}";
}
);
layerId = "6008D70E-46A9-43E5-86AA-D196D19196A4";
width = 1224;
},
{
components = (
{
name = G;
}
);
layerId = "612FA678-EA3C-4672-88DD-29ED08259473";
paths = (
{
closed = 1;
nodes = (
"210 -384 OFFCURVE",
"300 -436 OFFCURVE",
"386 -436 CURVE",
"380 -474 LINE SMOOTH",
"374 -512 OFFCURVE",
"352 -520 OFFCURVE",
"308 -520 CURVE SMOOTH",
"224 -520 LINE",
"224 -676 LINE",
"320 -676 LINE SMOOTH",
"424 -676 OFFCURVE",
"502 -632 OFFCURVE",
"522 -538 CURVE SMOOTH",
"570 -310 LINE SMOOTH",
"572 -296 OFFCURVE",
"574 -282 OFFCURVE",
"574 -270 CURVE SMOOTH",
"574 -170 OFFCURVE",
"490 -88 OFFCURVE",
"392 -88 CURVE SMOOTH",
"292 -88 OFFCURVE",
"210 -166 OFFCURVE",
"210 -268 CURVE SMOOTH"
);
}
);
width = 1224;
}
);
unicode = 0122;
userData = {
com.typemytype.robofont.guides = (
{
angle = 0;
isGlobal = 0;
magnetic = 5;
x = 0;
y = -44;
},
{
angle = 90;
isGlobal = 0;
magnetic = 5;
x = 301;
y = 0;
}
);
};
},
{
export = 0;
glyphname = uni0136;
lastChange = "2019-01-23 17:14:57 +0000";
layers = (
{
components = (
{
name = K;
},
{
name = comma;
transform = "{1, 0, 0, 1, 22, -340}";
}
);
layerId = "FBAFFF81-1F8B-4B58-9158-C4AF3F48F88C";
width = 1224;
},
{
components = (
{
name = K;
}
);
layerId = "50C9B437-FF28-4DF4-B0E6-290519DD406F";
paths = (
{
closed = 1;
nodes = (
"816 -168 OFFCURVE",
"736 -88 OFFCURVE",
"642 -88 CURVE SMOOTH",
"548 -88 OFFCURVE",
"468 -168 OFFCURVE",
"468 -262 CURVE SMOOTH",
"468 -356 OFFCURVE",
"548 -436 OFFCURVE",
"642 -436 CURVE SMOOTH",
"660 -436 LINE",
"660 -460 LINE SMOOTH",
"660 -498 OFFCURVE",
"644 -520 OFFCURVE",
"606 -520 CURVE SMOOTH",
"516 -520 LINE",
"516 -676 LINE",
"636 -676 LINE SMOOTH",
"738 -676 OFFCURVE",
"816 -598 OFFCURVE",
"816 -496 CURVE SMOOTH",
"816 -262 LINE SMOOTH"
);
}
);
width = 1224;
},
{
components = (
{
name = K;
},
{
name = comma;
transform = "{1, 0, 0, 1, -70, -340}";
}
);
layerId = "6008D70E-46A9-43E5-86AA-D196D19196A4";
width = 1224;
},
{
components = (
{
name = K;
}
);
layerId = "612FA678-EA3C-4672-88DD-29ED08259473";
paths = (
{
closed = 1;
nodes = (
"292 -384 OFFCURVE",
"382 -436 OFFCURVE",
"468 -436 CURVE",
"462 -474 LINE SMOOTH",
"456 -512 OFFCURVE",
"434 -520 OFFCURVE",
"390 -520 CURVE SMOOTH",
"292 -520 LINE",
"292 -676 LINE",
"402 -676 LINE SMOOTH",
"506 -676 OFFCURVE",
"584 -632 OFFCURVE",
"604 -538 CURVE SMOOTH",
"652 -310 LINE SMOOTH",
"654 -296 OFFCURVE",
"656 -282 OFFCURVE",
"656 -270 CURVE SMOOTH",
"656 -170 OFFCURVE",
"572 -88 OFFCURVE",
"474 -88 CURVE SMOOTH",
"374 -88 OFFCURVE",
"292 -166 OFFCURVE",
"292 -268 CURVE SMOOTH"
);
}
);
width = 1224;
}
);
unicode = 0136;
userData = {
com.typemytype.robofont.guides = (
{
angle = 0;
isGlobal = 0;
magnetic = 5;
x = 0;
y = -44;
},
{
angle = 90;
isGlobal = 0;
magnetic = 5;
x = 196;
y = 0;
},
{
angle = 90;
isGlobal = 0;
magnetic = 5;
x = 279;
y = 0;
}
);
};
},
{
export = 0;
glyphname = uni013B;
lastChange = "2019-01-23 17:14:57 +0000";
layers = (
{
components = (
{
name = L;
},
{
name = comma;
transform = "{1, 0, 0, 1, 14, -340}";
}
);
layerId = "FBAFFF81-1F8B-4B58-9158-C4AF3F48F88C";
width = 1224;
},
{
components = (
{
name = L;
}
);
layerId = "50C9B437-FF28-4DF4-B0E6-290519DD406F";
paths = (
{
closed = 1;
nodes = (
"788 -168 OFFCURVE",
"708 -88 OFFCURVE",
"614 -88 CURVE SMOOTH",
"520 -88 OFFCURVE",
"440 -168 OFFCURVE",
"440 -262 CURVE SMOOTH",
"440 -356 OFFCURVE",
"520 -436 OFFCURVE",
"614 -436 CURVE SMOOTH",
"632 -436 LINE",
"632 -460 LINE SMOOTH",
"632 -498 OFFCURVE",
"616 -520 OFFCURVE",
"578 -520 CURVE SMOOTH",
"488 -520 LINE",
"488 -676 LINE",
"608 -676 LINE SMOOTH",
"710 -676 OFFCURVE",
"788 -598 OFFCURVE",
"788 -496 CURVE SMOOTH",
"788 -262 LINE SMOOTH"
);
}
);
width = 1224;
},
{
components = (
{
name = L;
},
{
name = comma;
transform = "{1, 0, 0, 1, -2, -340}";
}
);
layerId = "6008D70E-46A9-43E5-86AA-D196D19196A4";
width = 1224;
},
{
components = (
{
name = L;
}
);
layerId = "612FA678-EA3C-4672-88DD-29ED08259473";
paths = (
{
closed = 1;
nodes = (
"280 -384 OFFCURVE",
"370 -436 OFFCURVE",
"456 -436 CURVE",
"450 -474 LINE SMOOTH",
"444 -512 OFFCURVE",
"422 -520 OFFCURVE",
"378 -520 CURVE SMOOTH",
"280 -520 LINE",
"280 -676 LINE",
"390 -676 LINE SMOOTH",
"494 -676 OFFCURVE",
"572 -632 OFFCURVE",
"592 -538 CURVE SMOOTH",
"640 -310 LINE SMOOTH",
"642 -296 OFFCURVE",
"644 -282 OFFCURVE",
"644 -270 CURVE SMOOTH",
"644 -170 OFFCURVE",
"560 -88 OFFCURVE",
"462 -88 CURVE SMOOTH",
"362 -88 OFFCURVE",
"280 -166 OFFCURVE",
"280 -268 CURVE SMOOTH"
);
}
);
width = 1224;
}
);
unicode = 013B;
},
{
export = 0;
glyphname = uni0145;
lastChange = "2019-01-23 17:14:57 +0000";
layers = (
{
components = (
{
name = N;
},
{
name = comma;
transform = "{1, 0, 0, 1, -80, -340}";
}
);
layerId = "FBAFFF81-1F8B-4B58-9158-C4AF3F48F88C";
width = 1224;
},
{
components = (
{
name = N;
}
);
layerId = "50C9B437-FF28-4DF4-B0E6-290519DD406F";
paths = (
{
closed = 1;
nodes = (
"786 -168 OFFCURVE",
"706 -88 OFFCURVE",
"612 -88 CURVE SMOOTH",
"518 -88 OFFCURVE",
"438 -168 OFFCURVE",
"438 -262 CURVE SMOOTH",
"438 -356 OFFCURVE",
"518 -436 OFFCURVE",
"612 -436 CURVE SMOOTH",
"630 -436 LINE",
"630 -460 LINE SMOOTH",
"630 -498 OFFCURVE",
"614 -520 OFFCURVE",
"576 -520 CURVE SMOOTH",
"486 -520 LINE",
"486 -676 LINE",
"606 -676 LINE SMOOTH",
"708 -676 OFFCURVE",
"786 -598 OFFCURVE",
"786 -496 CURVE SMOOTH",
"786 -262 LINE SMOOTH"
);
}
);
width = 1224;
},
{
components = (
{
name = N;
},
{
name = comma;
transform = "{1, 0, 0, 1, -148, -340}";
}
);
layerId = "6008D70E-46A9-43E5-86AA-D196D19196A4";
width = 1224;
},
{
components = (
{
name = N;
}
);
layerId = "612FA678-EA3C-4672-88DD-29ED08259473";
paths = (
{
closed = 1;
nodes = (
"152 -384 OFFCURVE",
"242 -436 OFFCURVE",
"328 -436 CURVE",
"322 -474 LINE SMOOTH",
"316 -512 OFFCURVE",
"294 -520 OFFCURVE",
"250 -520 CURVE SMOOTH",
"166 -520 LINE",
"166 -676 LINE",
"262 -676 LINE SMOOTH",
"366 -676 OFFCURVE",
"444 -632 OFFCURVE",
"464 -538 CURVE SMOOTH",
"512 -310 LINE SMOOTH",
"514 -296 OFFCURVE",
"516 -282 OFFCURVE",
"516 -270 CURVE SMOOTH",
"516 -170 OFFCURVE",
"432 -88 OFFCURVE",
"334 -88 CURVE SMOOTH",
"234 -88 OFFCURVE",
"152 -166 OFFCURVE",
"152 -268 CURVE SMOOTH"
);
}
);
width = 1224;
}
);
unicode = 0145;
userData = {
com.typemytype.robofont.guides = (
{
angle = 0;
isGlobal = 0;
magnetic = 5;
x = 0;
y = -44;
},
{
angle = 90;
isGlobal = 0;
magnetic = 5;
x = 169;
y = 0;
},
{
angle = 90;
isGlobal = 0;
magnetic = 5;
x = 241;
y = 0;
}
);
};
},
{
export = 0;
glyphname = uni0156;
lastChange = "2019-01-23 17:14:57 +0000";
layers = (
{
components = (
{
name = R;
},
{
name = comma;
transform = "{1, 0, 0, 1, 10, -340}";
}
);
layerId = "FBAFFF81-1F8B-4B58-9158-C4AF3F48F88C";
width = 1224;
},
{
components = (
{
name = R;
}
);
layerId = "50C9B437-FF28-4DF4-B0E6-290519DD406F";
paths = (
{
closed = 1;
nodes = (
"790 -168 OFFCURVE",
"710 -88 OFFCURVE",
"616 -88 CURVE SMOOTH",
"522 -88 OFFCURVE",
"442 -168 OFFCURVE",
"442 -262 CURVE SMOOTH",
"442 -356 OFFCURVE",
"522 -436 OFFCURVE",
"616 -436 CURVE SMOOTH",
"634 -436 LINE",
"634 -460 LINE SMOOTH",
"634 -498 OFFCURVE",
"618 -520 OFFCURVE",
"580 -520 CURVE SMOOTH",
"490 -520 LINE",
"490 -676 LINE",
"610 -676 LINE SMOOTH",
"712 -676 OFFCURVE",
"790 -598 OFFCURVE",
"790 -496 CURVE SMOOTH",
"790 -262 LINE SMOOTH"
);
}
);
width = 1224;
},
{
components = (
{
name = R;
},
{
name = comma;
transform = "{1, 0, 0, 1, -78, -340}";
}
);
layerId = "6008D70E-46A9-43E5-86AA-D196D19196A4";
width = 1224;
},
{
components = (
{
name = R;
transform = "{1, 0, 0, 1, -2, 0}";
}
);
layerId = "612FA678-EA3C-4672-88DD-29ED08259473";
paths = (
{
closed = 1;
nodes = (
"242 -384 OFFCURVE",
"332 -436 OFFCURVE",
"418 -436 CURVE",
"412 -474 LINE SMOOTH",
"406 -512 OFFCURVE",
"384 -520 OFFCURVE",
"340 -520 CURVE SMOOTH",
"242 -520 LINE",
"242 -676 LINE",
"352 -676 LINE SMOOTH",
"456 -676 OFFCURVE",
"534 -632 OFFCURVE",
"554 -538 CURVE SMOOTH",
"602 -310 LINE SMOOTH",
"604 -296 OFFCURVE",
"606 -282 OFFCURVE",
"606 -270 CURVE SMOOTH",
"606 -170 OFFCURVE",
"522 -88 OFFCURVE",
"424 -88 CURVE SMOOTH",
"324 -88 OFFCURVE",
"242 -166 OFFCURVE",
"242 -268 CURVE SMOOTH"
);
}
);
width = 1224;
}
);
unicode = 0156;
userData = {
com.typemytype.robofont.guides = (
{
angle = 90;
isGlobal = 0;
magnetic = 5;
x = 169;
y = 0;
},
{
angle = 90;
isGlobal = 0;
magnetic = 5;
x = 441;
y = 0;
}
);
};
},
{
color = 6;
export = 0;
glyphname = uni0162;
lastChange = "2019-01-23 17:14:57 +0000";
layers = (
{
layerId = "FBAFFF81-1F8B-4B58-9158-C4AF3F48F88C";
paths = (
{
closed = 1;
nodes = (
"524 -184 LINE",
"524 -196 LINE",
"676 -196 LINE",
"684 -180 OFFCURVE",
"702 -168 OFFCURVE",
"726 -168 CURVE SMOOTH",
"764 -168 OFFCURVE",
"796 -196 OFFCURVE",
"796 -244 CURVE SMOOTH",
"796 -302 OFFCURVE",
"756 -328 OFFCURVE",
"716 -328 CURVE SMOOTH",
"658 -328 OFFCURVE",
"628 -288 OFFCURVE",
"620 -248 CURVE",
"524 -284 LINE",
"544 -364 OFFCURVE",
"604 -424 OFFCURVE",
"718 -424 CURVE SMOOTH",
"822 -424 OFFCURVE",
"904 -352 OFFCURVE",
"904 -242 CURVE SMOOTH",
"904 -150 OFFCURVE",
"844 -72 OFFCURVE",
"752 -72 CURVE SMOOTH",
"696 -72 OFFCURVE",
"660 -96 OFFCURVE",
"644 -136 CURVE",
"632 -136 LINE",
"662 0 LINE",
"696 0 LINE",
"696 1244 LINE",
"1104 1244 LINE",
"1104 1400 LINE",
"120 1400 LINE",
"120 1244 LINE",
"528 1244 LINE",
"528 0 LINE",
"564 0 LINE"
);
}
);
width = 1224;
},
{
layerId = "50C9B437-FF28-4DF4-B0E6-290519DD406F";
paths = (
{
closed = 1;
nodes = (
"440 -184 LINE",
"440 -208 LINE",
"634 -208 LINE",
"638 -192 OFFCURVE",
"652 -180 OFFCURVE",
"674 -180 CURVE SMOOTH",
"700 -180 OFFCURVE",
"714 -200 OFFCURVE",
"714 -224 CURVE SMOOTH",
"714 -256 OFFCURVE",
"686 -276 OFFCURVE",
"646 -276 CURVE SMOOTH",
"610 -276 OFFCURVE",
"576 -266 OFFCURVE",
"546 -248 CURVE",
"494 -384 LINE",
"538 -408 OFFCURVE",
"586 -424 OFFCURVE",
"662 -424 CURVE SMOOTH",
"786 -424 OFFCURVE",
"882 -348 OFFCURVE",
"882 -224 CURVE SMOOTH",
"882 -128 OFFCURVE",
"826 -48 OFFCURVE",
"716 -48 CURVE SMOOTH",
"666 -48 OFFCURVE",
"638 -68 OFFCURVE",
"624 -92 CURVE",
"600 -92 LINE",
"620 0 LINE",
"744 0 LINE",
"744 1148 LINE",
"1116 1148 LINE",
"1116 1400 LINE",
"108 1400 LINE",
"108 1148 LINE",
"480 1148 LINE",
"480 0 LINE"
);
}
);
width = 1224;
},
{
layerId = "6008D70E-46A9-43E5-86AA-D196D19196A4";
paths = (
{
closed = 1;
nodes = (
"638 1244 LINE",
"336 -172 LINE",
"336 -196 LINE",
"486 -196 LINE",
"496 -180 OFFCURVE",
"512 -168 OFFCURVE",
"540 -168 CURVE SMOOTH",
"574 -168 OFFCURVE",
"604 -188 OFFCURVE",
"604 -236 CURVE SMOOTH",
"604 -292 OFFCURVE",
"568 -328 OFFCURVE",
"508 -328 CURVE SMOOTH",
"448 -328 OFFCURVE",
"420 -292 OFFCURVE",
"416 -250 CURVE",
"316 -284 LINE",
"328 -366 OFFCURVE",
"396 -424 OFFCURVE",
"504 -424 CURVE SMOOTH",
"644 -424 OFFCURVE",
"712 -340 OFFCURVE",
"712 -220 CURVE SMOOTH",
"712 -140 OFFCURVE",
"664 -72 OFFCURVE",
"576 -72 CURVE SMOOTH",
"524 -72 OFFCURVE",
"486 -94 OFFCURVE",
"464 -136 CURVE",
"452 -136 LINE",
"484 0 LINE",
"542 0 LINE",
"806 1244 LINE",
"1212 1244 LINE",
"1212 1400 LINE",
"206 1400 LINE",
"206 1244 LINE"
);
}
);
width = 1224;
},
{
layerId = "612FA678-EA3C-4672-88DD-29ED08259473";
paths = (
{
closed = 1;
nodes = (
"572 1148 LINE",
"288 -184 LINE",
"288 -208 LINE",
"456 -208 LINE",
"464 -192 OFFCURVE",
"476 -180 OFFCURVE",
"498 -180 CURVE SMOOTH",
"520 -180 OFFCURVE",
"534 -194 OFFCURVE",
"534 -218 CURVE SMOOTH",
"534 -256 OFFCURVE",
"500 -276 OFFCURVE",
"454 -276 CURVE SMOOTH",
"412 -276 OFFCURVE",
"378 -264 OFFCURVE",
"352 -246 CURVE",
"278 -384 LINE",
"318 -408 OFFCURVE",
"374 -424 OFFCURVE",
"464 -424 CURVE SMOOTH",
"618 -424 OFFCURVE",
"706 -340 OFFCURVE",
"706 -204 CURVE SMOOTH",
"706 -104 OFFCURVE",
"650 -48 OFFCURVE",
"572 -48 CURVE SMOOTH",
"522 -48 OFFCURVE",
"490 -68 OFFCURVE",
"470 -92 CURVE",
"446 -92 LINE",
"466 0 LINE",
"592 0 LINE",
"836 1148 LINE",
"1208 1148 LINE",
"1208 1400 LINE",
"200 1400 LINE",
"200 1148 LINE"
);
}
);
width = 1224;
}
);
unicode = 0162;
},
{
color = 6;
export = 0;
glyphname = uni01A0;
lastChange = "2019-01-23 17:14:57 +0000";
layers = (
{
layerId = "FBAFFF81-1F8B-4B58-9158-C4AF3F48F88C";
paths = (
{
closed = 1;
nodes = (
"76 128 OFFCURVE",
"228 -28 OFFCURVE",
"484 -28 CURVE SMOOTH",
"740 -28 OFFCURVE",
"892 128 OFFCURVE",
"892 436 CURVE SMOOTH",
"892 908 LINE",
"1032 908 LINE SMOOTH",
"1122 908 OFFCURVE",
"1186 974 OFFCURVE",
"1186 1064 CURVE SMOOTH",
"1186 1260 LINE SMOOTH",
"1186 1336 OFFCURVE",
"1122 1400 OFFCURVE",
"1046 1400 CURVE SMOOTH",
"970 1400 OFFCURVE",
"906 1336 OFFCURVE",
"906 1260 CURVE SMOOTH",
"906 1184 OFFCURVE",
"970 1120 OFFCURVE",
"1044 1120 CURVE SMOOTH",
"1056 1120 OFFCURVE",
"1068 1122 OFFCURVE",
"1078 1126 CURVE",
"1078 1076 LINE SMOOTH",
"1078 1038 OFFCURVE",
"1062 1016 OFFCURVE",
"1024 1016 CURVE SMOOTH",
"890 1016 LINE",
"870 1276 OFFCURVE",
"724 1428 OFFCURVE",
"484 1428 CURVE SMOOTH",
"224 1428 OFFCURVE",
"76 1252 OFFCURVE",
"76 952 CURVE SMOOTH",
"76 436 LINE SMOOTH"
);
},
{
closed = 1;
nodes = (
"320 124 OFFCURVE",
"244 228 OFFCURVE",
"244 448 CURVE SMOOTH",
"244 952 LINE SMOOTH",
"244 1156 OFFCURVE",
"316 1276 OFFCURVE",
"484 1276 CURVE SMOOTH",
"652 1276 OFFCURVE",
"724 1156 OFFCURVE",
"724 952 CURVE SMOOTH",
"724 448 LINE SMOOTH",
"724 228 OFFCURVE",
"648 124 OFFCURVE",
"484 124 CURVE SMOOTH"
);
}
);
width = 1224;
},
{
layerId = "50C9B437-FF28-4DF4-B0E6-290519DD406F";
paths = (
{
closed = 1;
nodes = (
"1212 1320 OFFCURVE",
"1132 1400 OFFCURVE",
"1038 1400 CURVE SMOOTH",
"944 1400 OFFCURVE",
"864 1320 OFFCURVE",
"864 1226 CURVE SMOOTH",
"864 1132 OFFCURVE",
"944 1052 OFFCURVE",
"1038 1052 CURVE SMOOTH",
"1056 1052 LINE",
"1056 1020 LINE SMOOTH",
"1056 982 OFFCURVE",
"1040 960 OFFCURVE",
"1002 960 CURVE SMOOTH",
"844 960 LINE",
"844 980 LINE SMOOTH",
"844 1272 OFFCURVE",
"692 1428 OFFCURVE",
"436 1428 CURVE SMOOTH",
"180 1428 OFFCURVE",
"28 1272 OFFCURVE",
"28 980 CURVE SMOOTH",
"28 420 LINE SMOOTH",
"28 128 OFFCURVE",
"180 -28 OFFCURVE",
"436 -28 CURVE SMOOTH",
"692 -28 OFFCURVE",
"844 128 OFFCURVE",
"844 420 CURVE SMOOTH",
"844 804 LINE",
"1032 804 LINE SMOOTH",
"1134 804 OFFCURVE",
"1212 882 OFFCURVE",
"1212 984 CURVE SMOOTH",
"1212 1226 LINE SMOOTH"
);
},
{
closed = 1;
nodes = (
"348 224 OFFCURVE",
"292 284 OFFCURVE",
"292 404 CURVE SMOOTH",
"292 996 LINE SMOOTH",
"292 1116 OFFCURVE",
"348 1176 OFFCURVE",
"436 1176 CURVE SMOOTH",
"524 1176 OFFCURVE",
"580 1116 OFFCURVE",
"580 996 CURVE SMOOTH",
"580 404 LINE SMOOTH",
"580 284 OFFCURVE",
"524 224 OFFCURVE",
"436 224 CURVE SMOOTH"
);
}
);
width = 1224;
},
{
layerId = "6008D70E-46A9-43E5-86AA-D196D19196A4";
paths = (
{
closed = 1;
nodes = (
"1028 1184 OFFCURVE",
"1092 1120 OFFCURVE",
"1168 1120 CURVE SMOOTH",
"1176 1120 LINE",
"1166 1076 LINE SMOOTH",
"1158 1038 OFFCURVE",
"1136 1016 OFFCURVE",
"1098 1016 CURVE SMOOTH",
"976 1016 LINE",
"980 1040 OFFCURVE",
"982 1064 OFFCURVE",
"982 1088 CURVE SMOOTH",
"982 1286 OFFCURVE",
"848 1428 OFFCURVE",
"634 1428 CURVE SMOOTH",
"374 1428 OFFCURVE",
"212 1252 OFFCURVE",
"148 952 CURVE SMOOTH",
"44 464 LINE SMOOTH",
"34 412 OFFCURVE",
"28 366 OFFCURVE",
"28 322 CURVE SMOOTH",
"28 94 OFFCURVE",
"168 -28 OFFCURVE",
"368 -28 CURVE SMOOTH",
"614 -28 OFFCURVE",
"784 110 OFFCURVE",
"854 436 CURVE SMOOTH",
"956 908 LINE",
"1084 908 LINE SMOOTH",
"1188 908 OFFCURVE",
"1250 964 OFFCURVE",
"1270 1064 CURVE SMOOTH",
"1306 1236 LINE SMOOTH",
"1308 1246 OFFCURVE",
"1308 1254 OFFCURVE",
"1308 1260 CURVE SMOOTH",
"1308 1336 OFFCURVE",
"1244 1400 OFFCURVE",
"1168 1400 CURVE SMOOTH",
"1092 1400 OFFCURVE",
"1028 1336 OFFCURVE",
"1028 1260 CURVE SMOOTH"
);
},
{
closed = 1;
nodes = (
"254 124 OFFCURVE",
"194 192 OFFCURVE",
"194 320 CURVE SMOOTH",
"194 358 OFFCURVE",
"200 400 OFFCURVE",
"210 448 CURVE SMOOTH",
"316 952 LINE SMOOTH",
"360 1156 OFFCURVE",
"458 1276 OFFCURVE",
"618 1276 CURVE SMOOTH",
"754 1276 OFFCURVE",
"812 1206 OFFCURVE",
"812 1080 CURVE SMOOTH",
"812 1042 OFFCURVE",
"806 1000 OFFCURVE",
"796 952 CURVE SMOOTH",
"690 448 LINE SMOOTH",
"642 228 OFFCURVE",
"544 124 OFFCURVE",
"380 124 CURVE SMOOTH"
);
}
);
width = 1224;
},
{
layerId = "612FA678-EA3C-4672-88DD-29ED08259473";
paths = (
{
closed = 1;
nodes = (
"928 1120 OFFCURVE",
"1008 1052 OFFCURVE",
"1080 1052 CURVE",
"1074 1020 LINE SMOOTH",
"1066 982 OFFCURVE",
"1042 960 OFFCURVE",
"1004 960 CURVE SMOOTH",
"876 960 LINE",
"892 1030 LINE SMOOTH",
"898 1060 OFFCURVE",
"902 1088 OFFCURVE",
"902 1116 CURVE SMOOTH",
"902 1292 OFFCURVE",
"778 1428 OFFCURVE",
"556 1428 CURVE SMOOTH",
"302 1428 OFFCURVE",
"168 1272 OFFCURVE",
"124 1058 CURVE SMOOTH",
"-20 370 LINE SMOOTH",
"-26 340 OFFCURVE",
"-30 312 OFFCURVE",
"-30 284 CURVE SMOOTH",
"-30 108 OFFCURVE",
"94 -28 OFFCURVE",
"316 -28 CURVE SMOOTH",
"570 -28 OFFCURVE",
"704 128 OFFCURVE",
"748 342 CURVE SMOOTH",
"844 804 LINE",
"1002 804 LINE SMOOTH",
"1120 804 OFFCURVE",
"1194 854 OFFCURVE",
"1218 968 CURVE SMOOTH",
"1264 1184 LINE SMOOTH",
"1268 1202 OFFCURVE",
"1270 1218 OFFCURVE",
"1270 1234 CURVE SMOOTH",
"1270 1330 OFFCURVE",
"1206 1400 OFFCURVE",
"1108 1400 CURVE SMOOTH",
"1010 1400 OFFCURVE",
"928 1318 OFFCURVE",
"928 1220 CURVE SMOOTH"
);
},
{
closed = 1;
nodes = (
"280 224 OFFCURVE",
"238 266 OFFCURVE",
"238 332 CURVE SMOOTH",
"238 348 OFFCURVE",
"240 358 OFFCURVE",
"242 370 CURVE SMOOTH",
"384 1038 LINE SMOOTH",
"400 1116 OFFCURVE",
"434 1176 OFFCURVE",
"524 1176 CURVE SMOOTH",
"592 1176 OFFCURVE",
"634 1134 OFFCURVE",
"634 1068 CURVE SMOOTH",
"634 1052 OFFCURVE",
"632 1042 OFFCURVE",
"630 1030 CURVE SMOOTH",
"488 362 LINE SMOOTH",
"472 284 OFFCURVE",
"438 224 OFFCURVE",
"348 224 CURVE SMOOTH"
);
}
);
width = 1224;
}
);
unicode = 01A0;
},
{
color = 6;
export = 0;
glyphname = uni01AF;
lastChange = "2019-01-23 17:14:57 +0000";
layers = (
{
layerId = "FBAFFF81-1F8B-4B58-9158-C4AF3F48F88C";
paths = (
{
closed = 1;
nodes = (
"80 404 LINE SMOOTH",
"80 112 OFFCURVE",
"224 -28 OFFCURVE",
"476 -28 CURVE SMOOTH",
"728 -28 OFFCURVE",
"872 112 OFFCURVE",
"872 404 CURVE SMOOTH",
"872 908 LINE",
"1070 908 LINE SMOOTH",
"1160 908 OFFCURVE",
"1224 974 OFFCURVE",
"1224 1064 CURVE SMOOTH",
"1224 1260 LINE SMOOTH",
"1224 1336 OFFCURVE",
"1160 1400 OFFCURVE",
"1084 1400 CURVE SMOOTH",
"1008 1400 OFFCURVE",
"944 1336 OFFCURVE",
"944 1260 CURVE SMOOTH",
"944 1184 OFFCURVE",
"1008 1120 OFFCURVE",
"1082 1120 CURVE SMOOTH",
"1094 1120 OFFCURVE",
"1106 1122 OFFCURVE",
"1116 1126 CURVE",
"1116 1076 LINE SMOOTH",
"1116 1038 OFFCURVE",
"1100 1016 OFFCURVE",
"1062 1016 CURVE SMOOTH",
"872 1016 LINE",
"872 1400 LINE",
"704 1400 LINE",
"704 412 LINE SMOOTH",
"704 208 OFFCURVE",
"624 124 OFFCURVE",
"476 124 CURVE SMOOTH",
"328 124 OFFCURVE",
"248 208 OFFCURVE",
"248 412 CURVE SMOOTH",
"248 1400 LINE",
"80 1400 LINE"
);
}
);
width = 1224;
},
{
layerId = "50C9B437-FF28-4DF4-B0E6-290519DD406F";
paths = (
{
closed = 1;
nodes = (
"1212 1320 OFFCURVE",
"1132 1400 OFFCURVE",
"1038 1400 CURVE SMOOTH",
"944 1400 OFFCURVE",
"864 1320 OFFCURVE",
"864 1226 CURVE SMOOTH",
"864 1132 OFFCURVE",
"944 1052 OFFCURVE",
"1038 1052 CURVE SMOOTH",
"1056 1052 LINE",
"1056 1020 LINE SMOOTH",
"1056 982 OFFCURVE",
"1040 960 OFFCURVE",
"1002 960 CURVE SMOOTH",
"804 960 LINE",
"804 1400 LINE",
"540 1400 LINE",
"540 368 LINE SMOOTH",
"540 276 OFFCURVE",
"508 224 OFFCURVE",
"420 224 CURVE SMOOTH",
"332 224 OFFCURVE",
"300 276 OFFCURVE",
"300 368 CURVE SMOOTH",
"300 1400 LINE",
"36 1400 LINE",
"36 396 LINE SMOOTH",
"36 116 OFFCURVE",
"168 -28 OFFCURVE",
"420 -28 CURVE SMOOTH",
"672 -28 OFFCURVE",
"804 116 OFFCURVE",
"804 396 CURVE SMOOTH",
"804 804 LINE",
"1032 804 LINE SMOOTH",
"1134 804 OFFCURVE",
"1212 882 OFFCURVE",
"1212 984 CURVE SMOOTH",
"1212 1226 LINE SMOOTH"
);
}
);
width = 1224;
},
{
layerId = "6008D70E-46A9-43E5-86AA-D196D19196A4";
paths = (
{
closed = 1;
nodes = (
"1062 1184 OFFCURVE",
"1126 1120 OFFCURVE",
"1202 1120 CURVE SMOOTH",
"1210 1120 LINE",
"1200 1076 LINE SMOOTH",
"1192 1038 OFFCURVE",
"1170 1016 OFFCURVE",
"1132 1016 CURVE SMOOTH",
"942 1016 LINE",
"1022 1400 LINE",
"854 1400 LINE",
"644 412 LINE SMOOTH",
"602 214 OFFCURVE",
"504 124 OFFCURVE",
"356 124 CURVE SMOOTH",
"248 124 OFFCURVE",
"176 180 OFFCURVE",
"176 310 CURVE SMOOTH",
"176 340 OFFCURVE",
"180 374 OFFCURVE",
"188 412 CURVE SMOOTH",
"398 1400 LINE",
"230 1400 LINE",
"26 434 LINE SMOOTH",
"16 384 OFFCURVE",
"10 340 OFFCURVE",
"10 298 CURVE SMOOTH",
"10 78 OFFCURVE",
"150 -28 OFFCURVE",
"334 -28 CURVE SMOOTH",
"576 -28 OFFCURVE",
"746 90 OFFCURVE",
"812 404 CURVE SMOOTH",
"918 908 LINE",
"1118 908 LINE SMOOTH",
"1222 908 OFFCURVE",
"1284 964 OFFCURVE",
"1304 1064 CURVE SMOOTH",
"1340 1236 LINE SMOOTH",
"1342 1246 OFFCURVE",
"1342 1254 OFFCURVE",
"1342 1260 CURVE SMOOTH",
"1342 1336 OFFCURVE",
"1278 1400 OFFCURVE",
"1202 1400 CURVE SMOOTH",
"1126 1400 OFFCURVE",
"1062 1336 OFFCURVE",
"1062 1260 CURVE SMOOTH"
);
}
);
width = 1224;
},
{
layerId = "612FA678-EA3C-4672-88DD-29ED08259473";
paths = (
{
closed = 1;
nodes = (
"980 1120 OFFCURVE",
"1060 1052 OFFCURVE",
"1132 1052 CURVE",
"1126 1020 LINE SMOOTH",
"1118 982 OFFCURVE",
"1094 960 OFFCURVE",
"1056 960 CURVE SMOOTH",
"862 960 LINE",
"954 1400 LINE",
"690 1400 LINE",
"472 368 LINE SMOOTH",
"450 264 OFFCURVE",
"400 224 OFFCURVE",
"336 224 CURVE SMOOTH",
"264 224 OFFCURVE",
"228 264 OFFCURVE",
"228 330 CURVE SMOOTH",
"228 344 OFFCURVE",
"230 360 OFFCURVE",
"234 378 CURVE SMOOTH",
"450 1400 LINE",
"186 1400 LINE",
"-18 426 LINE SMOOTH",
"-28 380 OFFCURVE",
"-32 338 OFFCURVE",
"-32 300 CURVE SMOOTH",
"-32 88 OFFCURVE",
"100 -28 OFFCURVE",
"310 -28 CURVE SMOOTH",
"520 -28 OFFCURVE",
"676 80 OFFCURVE",
"736 364 CURVE SMOOTH",
"828 804 LINE",
"1054 804 LINE SMOOTH",
"1172 804 OFFCURVE",
"1246 854 OFFCURVE",
"1270 968 CURVE SMOOTH",
"1316 1184 LINE SMOOTH",
"1320 1202 OFFCURVE",
"1322 1218 OFFCURVE",
"1322 1234 CURVE SMOOTH",
"1322 1330 OFFCURVE",
"1258 1400 OFFCURVE",
"1160 1400 CURVE SMOOTH",
"1062 1400 OFFCURVE",
"980 1318 OFFCURVE",
"980 1220 CURVE SMOOTH"
);
}
);
width = 1224;
}
);
unicode = 01AF;
},
{
color = 6;
export = 0;
glyphname = uni01D5;
lastChange = "2019-01-23 17:14:57 +0000";
layers = (
{
components = (
{
name = U;
},
{
name = dieresis;
transform = "{1, 0, 0, 1, 0, 312}";
}
);
layerId = "FBAFFF81-1F8B-4B58-9158-C4AF3F48F88C";
paths = (
{
closed = 1;
nodes = (
"272 1932 LINE",
"272 1800 LINE",
"952 1800 LINE",
"952 1932 LINE"
);
}
);
width = 1224;
},
{
components = (
{
name = U;
},
{
name = dieresis;
transform = "{1, 0, 0, 1, 0, 376}";
}
);
layerId = "50C9B437-FF28-4DF4-B0E6-290519DD406F";
paths = (
{
closed = 1;
nodes = (
"208 2116 LINE",
"208 1912 LINE",
"1016 1912 LINE",
"1016 2116 LINE"
);
}
);
width = 1224;
},
{
components = (
{
name = U;
},
{
name = dieresis;
transform = "{1, 0, 0, 1, 146, 312}";
},
{
name = macron;
transform = "{1, 0, 0, 1, 146, 660}";
}
);
layerId = "6008D70E-46A9-43E5-86AA-D196D19196A4";
width = 1224;
},
{
components = (
{
alignment = -1;
name = U;
transform = "{1, 0, 0, 1, -8, 0}";
},
{
alignment = -1;
name = dieresis;
transform = "{1, 0, 0, 1, 166, 376}";
},
{
alignment = -1;
name = macron;
transform = "{1, 0, 0, 1, 154, 772}";
}
);
layerId = "612FA678-EA3C-4672-88DD-29ED08259473";
width = 1224;
}
);
unicode = 01D5;
userData = {
com.typemytype.robofont.guides = (
{
angle = 90;
isGlobal = 0;
magnetic = 5;
x = 306;
y = 0;
},
{
angle = 90;
isGlobal = 0;
magnetic = 5;
x = 136;
y = 0;
},
{
angle = 90;
isGlobal = 0;
magnetic = 5;
x = 476;
y = 0;
}
);
};
},
{
color = 6;
export = 0;
glyphname = uni01EA;
lastChange = "2019-01-23 17:14:57 +0000";
layers = (
{
layerId = "FBAFFF81-1F8B-4B58-9158-C4AF3F48F88C";
paths = (
{
closed = 1;
nodes = (
"120 202 OFFCURVE",
"276 6 OFFCURVE",
"540 -24 CURVE",
"516 -132 LINE SMOOTH",
"512 -152 OFFCURVE",
"510 -166 OFFCURVE",
"510 -180 CURVE SMOOTH",
"510 -278 OFFCURVE",
"588 -328 OFFCURVE",
"666 -328 CURVE SMOOTH",
"778 -328 LINE",
"778 -196 LINE",
"694 -196 LINE SMOOTH",
"666 -196 OFFCURVE",
"648 -180 OFFCURVE",
"648 -152 CURVE SMOOTH",
"648 -150 OFFCURVE",
"648 -146 OFFCURVE",
"650 -136 CURVE SMOOTH",
"676 -24 LINE",
"944 0 OFFCURVE",
"1104 198 OFFCURVE",
"1104 544 CURVE SMOOTH",
"1104 856 LINE SMOOTH",
"1104 1216 OFFCURVE",
"920 1428 OFFCURVE",
"612 1428 CURVE SMOOTH",
"304 1428 OFFCURVE",
"120 1216 OFFCURVE",
"120 856 CURVE SMOOTH",
"120 544 LINE SMOOTH"
);
},
{
closed = 1;
nodes = (
"396 128 OFFCURVE",
"288 284 OFFCURVE",
"288 556 CURVE SMOOTH",
"288 844 LINE SMOOTH",
"288 1100 OFFCURVE",
"396 1272 OFFCURVE",
"612 1272 CURVE SMOOTH",
"828 1272 OFFCURVE",
"936 1100 OFFCURVE",
"936 844 CURVE SMOOTH",
"936 556 LINE SMOOTH",
"936 284 OFFCURVE",
"828 128 OFFCURVE",
"612 128 CURVE SMOOTH"
);
}
);
width = 1224;
},
{
layerId = "50C9B437-FF28-4DF4-B0E6-290519DD406F";
paths = (
{
closed = 1;
nodes = (
"96 208 OFFCURVE",
"256 12 OFFCURVE",
"522 -22 CURVE",
"496 -144 LINE SMOOTH",
"492 -162 OFFCURVE",
"490 -176 OFFCURVE",
"490 -190 CURVE SMOOTH",
"490 -288 OFFCURVE",
"570 -340 OFFCURVE",
"650 -340 CURVE SMOOTH",
"810 -340 LINE",
"810 -172 LINE",
"718 -172 LINE SMOOTH",
"690 -172 OFFCURVE",
"672 -156 OFFCURVE",
"672 -128 CURVE SMOOTH",
"672 -124 OFFCURVE",
"672 -122 OFFCURVE",
"674 -112 CURVE SMOOTH",
"694 -22 LINE",
"964 8 OFFCURVE",
"1128 204 OFFCURVE",
"1128 544 CURVE SMOOTH",
"1128 856 LINE SMOOTH",
"1128 1216 OFFCURVE",
"932 1428 OFFCURVE",
"612 1428 CURVE SMOOTH",
"292 1428 OFFCURVE",
"96 1216 OFFCURVE",
"96 856 CURVE SMOOTH",
"96 544 LINE SMOOTH"
);
},
{
closed = 1;
nodes = (
"420 212 OFFCURVE",
"360 340 OFFCURVE",
"360 528 CURVE SMOOTH",
"360 872 LINE SMOOTH",
"360 1048 OFFCURVE",
"432 1188 OFFCURVE",
"612 1188 CURVE SMOOTH",
"792 1188 OFFCURVE",
"864 1048 OFFCURVE",
"864 872 CURVE SMOOTH",
"864 528 LINE SMOOTH",
"864 340 OFFCURVE",
"804 212 OFFCURVE",
"612 212 CURVE SMOOTH"
);
}
);
width = 1224;
},
{
layerId = "6008D70E-46A9-43E5-86AA-D196D19196A4";
paths = (
{
closed = 1;
nodes = (
"78 504 OFFCURVE",
"72 444 OFFCURVE",
"72 390 CURVE SMOOTH",
"72 132 OFFCURVE",
"210 -24 OFFCURVE",
"462 -28 CURVE",
"442 -42 LINE SMOOTH",
"386 -82 OFFCURVE",
"360 -136 OFFCURVE",
"360 -184 CURVE SMOOTH",
"360 -260 OFFCURVE",
"420 -328 OFFCURVE",
"508 -328 CURVE SMOOTH",
"716 -328 LINE",
"716 -196 LINE",
"542 -196 LINE SMOOTH",
"524 -196 OFFCURVE",
"510 -184 OFFCURVE",
"510 -168 CURVE SMOOTH",
"510 -154 OFFCURVE",
"516 -144 OFFCURVE",
"530 -134 CURVE SMOOTH",
"810 72 LINE SMOOTH",
"952 176 OFFCURVE",
"1030 344 OFFCURVE",
"1072 544 CURVE SMOOTH",
"1134 834 LINE SMOOTH",
"1148 896 OFFCURVE",
"1154 956 OFFCURVE",
"1154 1010 CURVE SMOOTH",
"1154 1270 OFFCURVE",
"1012 1428 OFFCURVE",
"754 1428 CURVE SMOOTH",
"426 1428 OFFCURVE",
"232 1228 OFFCURVE",
"154 856 CURVE SMOOTH",
"92 566 LINE SMOOTH"
);
},
{
closed = 1;
nodes = (
"326 124 OFFCURVE",
"240 232 OFFCURVE",
"240 404 CURVE SMOOTH",
"240 446 OFFCURVE",
"246 494 OFFCURVE",
"256 544 CURVE SMOOTH",
"320 844 LINE SMOOTH",
"376 1106 OFFCURVE",
"510 1276 OFFCURVE",
"730 1276 CURVE SMOOTH",
"900 1276 OFFCURVE",
"986 1168 OFFCURVE",
"986 996 CURVE SMOOTH",
"986 954 OFFCURVE",
"980 906 OFFCURVE",
"970 856 CURVE SMOOTH",
"906 556 LINE SMOOTH",
"850 296 OFFCURVE",
"716 124 OFFCURVE",
"496 124 CURVE SMOOTH"
);
}
);
width = 1224;
},
{
layerId = "612FA678-EA3C-4672-88DD-29ED08259473";
paths = (
{
closed = 1;
nodes = (
"54 498 OFFCURVE",
"50 452 OFFCURVE",
"50 408 CURVE SMOOTH",
"50 174 OFFCURVE",
"190 -8 OFFCURVE",
"444 -26 CURVE",
"420 -46 LINE SMOOTH",
"362 -90 OFFCURVE",
"336 -146 OFFCURVE",
"336 -198 CURVE SMOOTH",
"336 -274 OFFCURVE",
"392 -340 OFFCURVE",
"486 -340 CURVE SMOOTH",
"734 -340 LINE",
"734 -172 LINE",
"608 -172 LINE SMOOTH",
"586 -172 OFFCURVE",
"574 -158 OFFCURVE",
"574 -144 CURVE SMOOTH",
"574 -134 OFFCURVE",
"578 -126 OFFCURVE",
"590 -116 CURVE SMOOTH",
"822 58 LINE SMOOTH",
"976 174 OFFCURVE",
"1046 308 OFFCURVE",
"1096 544 CURVE SMOOTH",
"1162 856 LINE SMOOTH",
"1172 902 OFFCURVE",
"1176 948 OFFCURVE",
"1176 992 CURVE SMOOTH",
"1176 1240 OFFCURVE",
"1018 1428 OFFCURVE",
"736 1428 CURVE SMOOTH",
"400 1428 OFFCURVE",
"212 1248 OFFCURVE",
"130 856 CURVE SMOOTH",
"64 544 LINE SMOOTH"
);
},
{
closed = 1;
nodes = (
"386 212 OFFCURVE",
"312 294 OFFCURVE",
"312 428 CURVE SMOOTH",
"312 458 OFFCURVE",
"316 492 OFFCURVE",
"324 528 CURVE SMOOTH",
"398 872 LINE SMOOTH",
"436 1048 OFFCURVE",
"530 1188 OFFCURVE",
"712 1188 CURVE SMOOTH",
"840 1188 OFFCURVE",
"914 1106 OFFCURVE",
"914 972 CURVE SMOOTH",
"914 942 OFFCURVE",
"910 914 OFFCURVE",
"902 872 CURVE SMOOTH",
"828 528 LINE SMOOTH",
"790 352 OFFCURVE",
"696 212 OFFCURVE",
"514 212 CURVE SMOOTH"
);
}
);
width = 1224;
}
);
unicode = 01EA;
userData = {
com.typemytype.robofont.guides = (
{
angle = 90;
isGlobal = 0;
magnetic = 5;
x = 306;
y = 0;
}
);
};
},
{
export = 0;
glyphname = uni0218;
lastChange = "2019-01-23 17:14:57 +0000";
layers = (
{
components = (
{
name = S;
},
{
name = comma;
transform = "{1, 0, 0, 1, 28, -340}";
}
);
layerId = "FBAFFF81-1F8B-4B58-9158-C4AF3F48F88C";
width = 1224;
},
{
layerId = "50C9B437-FF28-4DF4-B0E6-290519DD406F";
paths = (
{
closed = 1;
nodes = (
"806 -168 OFFCURVE",
"726 -88 OFFCURVE",
"632 -88 CURVE SMOOTH",
"538 -88 OFFCURVE",
"458 -168 OFFCURVE",
"458 -262 CURVE SMOOTH",
"458 -356 OFFCURVE",
"538 -436 OFFCURVE",
"632 -436 CURVE SMOOTH",
"650 -436 LINE",
"650 -460 LINE SMOOTH",
"650 -498 OFFCURVE",
"634 -520 OFFCURVE",
"596 -520 CURVE SMOOTH",
"506 -520 LINE",
"506 -676 LINE",
"626 -676 LINE SMOOTH",
"728 -676 OFFCURVE",
"806 -598 OFFCURVE",
"806 -496 CURVE SMOOTH",
"806 -262 LINE SMOOTH"
);
},
{
closed = 1;
nodes = (
"1116 924 LINE",
"1116 996 LINE SMOOTH",
"1116 1224 OFFCURVE",
"936 1428 OFFCURVE",
"604 1428 CURVE SMOOTH",
"312 1428 OFFCURVE",
"120 1256 OFFCURVE",
"120 1028 CURVE SMOOTH",
"120 1016 LINE SMOOTH",
"120 740 OFFCURVE",
"324 644 OFFCURVE",
"604 596 CURVE SMOOTH",
"820 560 OFFCURVE",
"872 488 OFFCURVE",
"872 396 CURVE SMOOTH",
"872 300 OFFCURVE",
"796 220 OFFCURVE",
"636 220 CURVE SMOOTH",
"432 220 OFFCURVE",
"336 328 OFFCURVE",
"336 496 CURVE SMOOTH",
"336 544 LINE",
"72 544 LINE",
"72 484 LINE SMOOTH",
"72 192 OFFCURVE",
"264 -28 OFFCURVE",
"632 -28 CURVE SMOOTH",
"946 -28 OFFCURVE",
"1140 140 OFFCURVE",
"1140 400 CURVE SMOOTH",
"1140 424 LINE SMOOTH",
"1140 668 OFFCURVE",
"980 784 OFFCURVE",
"688 836 CURVE SMOOTH",
"456 878 OFFCURVE",
"388 932 OFFCURVE",
"388 1028 CURVE",
"388 1120 OFFCURVE",
"472 1180 OFFCURVE",
"604 1180 CURVE SMOOTH",
"760 1180 OFFCURVE",
"852 1084 OFFCURVE",
"852 972 CURVE SMOOTH",
"852 924 LINE"
);
}
);
width = 1224;
},
{
components = (
{
name = S;
},
{
name = comma;
transform = "{1, 0, 0, 1, -66, -340}";
}
);
layerId = "6008D70E-46A9-43E5-86AA-D196D19196A4";
width = 1224;
},
{
components = (
{
name = S;
}
);
layerId = "612FA678-EA3C-4672-88DD-29ED08259473";
paths = (
{
closed = 1;
nodes = (
"280 -384 OFFCURVE",
"370 -436 OFFCURVE",
"456 -436 CURVE",
"450 -474 LINE SMOOTH",
"444 -512 OFFCURVE",
"422 -520 OFFCURVE",
"378 -520 CURVE SMOOTH",
"280 -520 LINE",
"280 -676 LINE",
"390 -676 LINE SMOOTH",
"494 -676 OFFCURVE",
"572 -632 OFFCURVE",
"592 -538 CURVE SMOOTH",
"640 -310 LINE SMOOTH",
"642 -296 OFFCURVE",
"644 -282 OFFCURVE",
"644 -270 CURVE SMOOTH",
"644 -170 OFFCURVE",
"560 -88 OFFCURVE",
"462 -88 CURVE SMOOTH",
"362 -88 OFFCURVE",
"280 -166 OFFCURVE",
"280 -268 CURVE SMOOTH"
);
}
);
width = 1224;
}
);
unicode = 0218;
userData = {
com.typemytype.robofont.guides = (
{
angle = 90;
isGlobal = 0;
magnetic = 5;
x = 320;
y = 0;
}
);
};
},
{
export = 0;
glyphname = uni021A;
lastChange = "2019-01-23 17:14:57 +0000";
layers = (
{
components = (
{
name = T;
},
{
name = comma;
transform = "{1, 0, 0, 1, 0, -340}";
}
);
layerId = "FBAFFF81-1F8B-4B58-9158-C4AF3F48F88C";
width = 1224;
},
{
components = (
{
name = T;
}
);
layerId = "50C9B437-FF28-4DF4-B0E6-290519DD406F";
paths = (
{
closed = 1;
nodes = (
"786 -168 OFFCURVE",
"706 -88 OFFCURVE",
"612 -88 CURVE SMOOTH",
"518 -88 OFFCURVE",
"438 -168 OFFCURVE",
"438 -262 CURVE SMOOTH",
"438 -356 OFFCURVE",
"518 -436 OFFCURVE",
"612 -436 CURVE SMOOTH",
"630 -436 LINE",
"630 -460 LINE SMOOTH",
"630 -498 OFFCURVE",
"614 -520 OFFCURVE",
"576 -520 CURVE SMOOTH",
"486 -520 LINE",
"486 -676 LINE",
"606 -676 LINE SMOOTH",
"708 -676 OFFCURVE",
"786 -598 OFFCURVE",
"786 -496 CURVE SMOOTH",
"786 -262 LINE SMOOTH"
);
}
);
width = 1224;
},
{
components = (
{
name = T;
},
{
name = comma;
transform = "{1, 0, 0, 1, -108, -340}";
}
);
layerId = "6008D70E-46A9-43E5-86AA-D196D19196A4";
width = 1224;
},
{
components = (
{
name = T;
}
);
layerId = "612FA678-EA3C-4672-88DD-29ED08259473";
paths = (
{
closed = 1;
nodes = (
"224 -384 OFFCURVE",
"314 -436 OFFCURVE",
"400 -436 CURVE",
"394 -474 LINE SMOOTH",
"388 -512 OFFCURVE",
"366 -520 OFFCURVE",
"322 -520 CURVE SMOOTH",
"224 -520 LINE",
"224 -676 LINE",
"334 -676 LINE SMOOTH",
"438 -676 OFFCURVE",
"516 -632 OFFCURVE",
"536 -538 CURVE SMOOTH",
"584 -310 LINE SMOOTH",
"586 -296 OFFCURVE",
"588 -282 OFFCURVE",
"588 -270 CURVE SMOOTH",
"588 -170 OFFCURVE",
"504 -88 OFFCURVE",
"406 -88 CURVE SMOOTH",
"306 -88 OFFCURVE",
"224 -166 OFFCURVE",
"224 -268 CURVE SMOOTH"
);
}
);
width = 1224;
}
);
unicode = 021A;
userData = {
com.typemytype.robofont.guides = (
{
angle = 90;
isGlobal = 0;
magnetic = 5;
x = 306;
y = 0;
}
);
};
},
{
color = 6;
export = 0;
glyphname = uni0243;
lastChange = "2019-01-29 05:16:41 +0000";
layers = (
{
layerId = "FBAFFF81-1F8B-4B58-9158-C4AF3F48F88C";
paths = (
{
closed = 1;
nodes = (
"234 312 LINE",
"234 156 LINE",
"114 156 LINE",
"114 0 LINE",
"680 0 LINE SMOOTH",
"948 0 OFFCURVE",
"1094 156 OFFCURVE",
"1094 366 CURVE SMOOTH",
"1094 390 LINE SMOOTH",
"1094 540 OFFCURVE",
"990 654 OFFCURVE",
"858 690 CURVE",
"858 714 LINE",
"990 750 OFFCURVE",
"1094 860 OFFCURVE",
"1094 1012 CURVE SMOOTH",
"1094 1036 LINE SMOOTH",
"1094 1244 OFFCURVE",
"948 1400 OFFCURVE",
"680 1400 CURVE SMOOTH",
"114 1400 LINE",
"114 1244 LINE",
"234 1244 LINE",
"234 468 LINE",
"114 468 LINE",
"114 312 LINE"
);
},
{
closed = 1;
nodes = (
"668 1244 LINE SMOOTH",
"824 1244 OFFCURVE",
"934 1160 OFFCURVE",
"934 1024 CURVE SMOOTH",
"934 1012 LINE SMOOTH",
"934 868 OFFCURVE",
"834 780 OFFCURVE",
"674 780 CURVE SMOOTH",
"402 780 LINE",
"402 1244 LINE"
);
},
{
closed = 1;
nodes = (
"674 624 LINE SMOOTH",
"834 624 OFFCURVE",
"934 532 OFFCURVE",
"934 390 CURVE SMOOTH",
"934 378 LINE SMOOTH",
"934 240 OFFCURVE",
"824 156 OFFCURVE",
"668 156 CURVE SMOOTH",
"402 156 LINE",
"402 312 LINE",
"618 312 LINE",
"618 468 LINE",
"402 468 LINE",
"402 624 LINE"
);
}
);
width = 1224;
},
{
layerId = "50C9B437-FF28-4DF4-B0E6-290519DD406F";
paths = (
{
closed = 1;
nodes = (
"706 0 LINE SMOOTH",
"974 0 OFFCURVE",
"1120 156 OFFCURVE",
"1120 366 CURVE SMOOTH",
"1120 390 LINE SMOOTH",
"1120 548 OFFCURVE",
"1020 648 OFFCURVE",
"884 684 CURVE",
"884 720 LINE",
"1020 756 OFFCURVE",
"1120 852 OFFCURVE",
"1120 1012 CURVE SMOOTH",
"1120 1036 LINE SMOOTH",
"1120 1244 OFFCURVE",
"974 1400 OFFCURVE",
"706 1400 CURVE SMOOTH",
"92 1400 LINE",
"92 1148 LINE",
"224 1148 LINE",
"224 516 LINE",
"92 516 LINE",
"92 312 LINE",
"224 312 LINE",
"224 252 LINE",
"92 252 LINE",
"92 0 LINE"
);
},
{
closed = 1;
nodes = (
"680 1148 LINE SMOOTH",
"792 1148 OFFCURVE",
"868 1104 OFFCURVE",
"868 994 CURVE SMOOTH",
"868 982 LINE SMOOTH",
"868 872 OFFCURVE",
"792 828 OFFCURVE",
"680 828 CURVE SMOOTH",
"488 828 LINE",
"488 1148 LINE"
);
},
{
closed = 1;
nodes = (
"680 576 LINE SMOOTH",
"792 576 OFFCURVE",
"868 530 OFFCURVE",
"868 420 CURVE SMOOTH",
"868 408 LINE SMOOTH",
"868 298 OFFCURVE",
"792 252 OFFCURVE",
"680 252 CURVE SMOOTH",
"488 252 LINE",
"488 312 LINE",
"644 312 LINE",
"644 516 LINE",
"488 516 LINE",
"488 576 LINE"
);
}
);
width = 1224;
},
{
layerId = "6008D70E-46A9-43E5-86AA-D196D19196A4";
paths = (
{
closed = 1;
nodes = (
"512 0 LINE SMOOTH",
"800 0 OFFCURVE",
"1012 180 OFFCURVE",
"1012 438 CURVE SMOOTH",
"1012 556 OFFCURVE",
"946 658 OFFCURVE",
"836 690 CURVE",
"836 714 LINE",
"1030 756 OFFCURVE",
"1150 908 OFFCURVE",
"1150 1070 CURVE SMOOTH",
"1150 1262 OFFCURVE",
"1028 1400 OFFCURVE",
"786 1400 CURVE SMOOTH",
"234 1400 LINE",
"234 1244 LINE",
"366 1244 LINE",
"202 468 LINE",
"60 468 LINE",
"60 312 LINE",
"168 312 LINE",
"136 156 LINE",
"4 156 LINE",
"4 0 LINE"
);
},
{
closed = 1;
nodes = (
"764 1244 LINE SMOOTH",
"904 1244 OFFCURVE",
"986 1174 OFFCURVE",
"986 1064 CURVE SMOOTH",
"986 884 OFFCURVE",
"834 780 OFFCURVE",
"672 780 CURVE SMOOTH",
"436 780 LINE",
"534 1244 LINE"
);
},
{
closed = 1;
nodes = (
"638 624 LINE SMOOTH",
"772 624 OFFCURVE",
"856 554 OFFCURVE",
"856 432 CURVE SMOOTH",
"856 270 OFFCURVE",
"712 156 OFFCURVE",
"534 156 CURVE SMOOTH",
"304 156 LINE",
"336 312 LINE",
"564 312 LINE",
"564 468 LINE",
"368 468 LINE",
"402 624 LINE"
);
}
);
width = 1224;
},
{
layerId = "612FA678-EA3C-4672-88DD-29ED08259473";
paths = (
{
closed = 1;
nodes = (
"156 312 LINE",
"144 252 LINE",
"12 252 LINE",
"12 0 LINE",
"556 0 LINE SMOOTH",
"844 0 OFFCURVE",
"1052 186 OFFCURVE",
"1052 420 CURVE SMOOTH",
"1052 568 OFFCURVE",
"978 648 OFFCURVE",
"872 680 CURVE",
"872 716 LINE",
"1046 758 OFFCURVE",
"1190 874 OFFCURVE",
"1190 1074 CURVE SMOOTH",
"1190 1256 OFFCURVE",
"1068 1400 OFFCURVE",
"800 1400 CURVE SMOOTH",
"202 1400 LINE",
"202 1148 LINE",
"334 1148 LINE",
"200 516 LINE",
"54 516 LINE",
"54 312 LINE"
);
},
{
closed = 1;
nodes = (
"766 1148 LINE SMOOTH",
"864 1148 OFFCURVE",
"924 1102 OFFCURVE",
"924 1014 CURVE SMOOTH",
"924 892 OFFCURVE",
"836 828 OFFCURVE",
"698 828 CURVE SMOOTH",
"526 828 LINE",
"594 1148 LINE"
);
},
{
closed = 1;
nodes = (
"644 576 LINE SMOOTH",
"742 576 OFFCURVE",
"804 536 OFFCURVE",
"804 438 CURVE SMOOTH",
"804 318 OFFCURVE",
"706 252 OFFCURVE",
"576 252 CURVE SMOOTH",
"404 252 LINE",
"416 312 LINE",
"576 312 LINE",
"576 516 LINE",
"458 516 LINE",
"472 576 LINE"
);
}
);
width = 1224;
}
);
unicode = 0243;
userData = {
com.typemytype.robofont.guides = (
{
angle = 90;
isGlobal = 0;
magnetic = 5;
x = 57;
y = 0;
}
);
};
},
{
color = 6;
export = 0;
glyphname = uni1EA2;
lastChange = "2019-01-23 17:14:57 +0000";
layers = (
{
components = (
{
name = A;
}
);
layerId = "FBAFFF81-1F8B-4B58-9158-C4AF3F48F88C";
paths = (
{
closed = 1;
nodes = (
"504 1684 LINE",
"504 1696 LINE",
"656 1696 LINE",
"664 1680 OFFCURVE",
"682 1668 OFFCURVE",
"706 1668 CURVE SMOOTH",
"744 1668 OFFCURVE",
"776 1696 OFFCURVE",
"776 1744 CURVE SMOOTH",
"776 1802 OFFCURVE",
"736 1828 OFFCURVE",
"696 1828 CURVE SMOOTH",
"638 1828 OFFCURVE",
"608 1788 OFFCURVE",
"600 1748 CURVE",
"504 1784 LINE",
"524 1864 OFFCURVE",
"584 1924 OFFCURVE",
"698 1924 CURVE SMOOTH",
"802 1924 OFFCURVE",
"884 1852 OFFCURVE",
"884 1742 CURVE SMOOTH",
"884 1650 OFFCURVE",
"824 1572 OFFCURVE",
"732 1572 CURVE SMOOTH",
"676 1572 OFFCURVE",
"640 1596 OFFCURVE",
"624 1636 CURVE",
"612 1636 LINE",
"642 1500 LINE",
"544 1500 LINE"
);
}
);
width = 1224;
},
{
components = (
{
name = A;
},
{
name = cedilla;
transform = "{1, 0, 0, -1, 86, 1500}";
}
);
layerId = "50C9B437-FF28-4DF4-B0E6-290519DD406F";
width = 1224;
},
{
components = (
{
name = A;
}
);
layerId = "6008D70E-46A9-43E5-86AA-D196D19196A4";
paths = (
{
closed = 1;
nodes = (
"818 1636 LINE",
"830 1636 LINE",
"846 1596 OFFCURVE",
"890 1572 OFFCURVE",
"946 1572 CURVE SMOOTH",
"1042 1572 OFFCURVE",
"1114 1656 OFFCURVE",
"1114 1756 CURVE SMOOTH",
"1114 1852 OFFCURVE",
"1038 1924 OFFCURVE",
"934 1924 CURVE SMOOTH",
"826 1924 OFFCURVE",
"770 1864 OFFCURVE",
"738 1784 CURVE",
"828 1748 LINE",
"842 1796 OFFCURVE",
"874 1828 OFFCURVE",
"922 1828 CURVE SMOOTH",
"974 1828 OFFCURVE",
"1006 1796 OFFCURVE",
"1006 1748 CURVE",
"1006 1696 OFFCURVE",
"978 1666 OFFCURVE",
"930 1666 CURVE SMOOTH",
"906 1666 OFFCURVE",
"886 1676 OFFCURVE",
"874 1696 CURVE",
"730 1696 LINE",
"720 1684 LINE",
"720 1500 LINE",
"818 1500 LINE"
);
}
);
width = 1224;
},
{
components = (
{
name = A;
},
{
name = hookabovecomb;
transform = "{1, 0, 0, 1, 298, 184}";
}
);
layerId = "612FA678-EA3C-4672-88DD-29ED08259473";
width = 1224;
}
);
unicode = 1EA2;
userData = {
com.typemytype.robofont.guides = (
{
angle = 0;
isGlobal = 0;
magnetic = 5;
x = 0;
y = 774;
},
{
angle = 90;
isGlobal = 0;
magnetic = 5;
x = 306;
y = 0;
}
);
};
},
{
color = 6;
export = 0;
glyphname = uni1EA8;
lastChange = "2019-01-23 17:14:57 +0000";
layers = (
{
components = (
{
name = A;
},
{
name = circumflex;
transform = "{1, 0, 0, 1, 0, 408}";
}
);
layerId = "FBAFFF81-1F8B-4B58-9158-C4AF3F48F88C";
paths = (
{
closed = 1;
nodes = (
"808 1900 LINE",
"808 1912 LINE",
"960 1912 LINE",
"968 1896 OFFCURVE",
"986 1884 OFFCURVE",
"1010 1884 CURVE SMOOTH",
"1048 1884 OFFCURVE",
"1080 1912 OFFCURVE",
"1080 1960 CURVE SMOOTH",
"1080 2018 OFFCURVE",
"1040 2044 OFFCURVE",
"1000 2044 CURVE SMOOTH",
"942 2044 OFFCURVE",
"912 2004 OFFCURVE",
"904 1964 CURVE",
"808 2000 LINE",
"828 2080 OFFCURVE",
"888 2140 OFFCURVE",
"1002 2140 CURVE SMOOTH",
"1106 2140 OFFCURVE",
"1188 2068 OFFCURVE",
"1188 1958 CURVE SMOOTH",
"1188 1866 OFFCURVE",
"1128 1788 OFFCURVE",
"1036 1788 CURVE SMOOTH",
"980 1788 OFFCURVE",
"944 1812 OFFCURVE",
"928 1852 CURVE",
"916 1852 LINE",
"946 1716 LINE",
"848 1716 LINE"
);
}
);
width = 1224;
},
{
components = (
{
name = A;
},
{
name = circumflex;
transform = "{1, 0, 0, 1, 0, 408}";
},
{
name = cedilla;
transform = "{1, 0, 0, -1, 456, 1716}";
}
);
layerId = "50C9B437-FF28-4DF4-B0E6-290519DD406F";
width = 1224;
},
{
components = (
{
name = A;
},
{
name = circumflex;
transform = "{1, 0, 0, 1, 102, 408}";
}
);
layerId = "6008D70E-46A9-43E5-86AA-D196D19196A4";
paths = (
{
closed = 1;
nodes = (
"1172 1852 LINE",
"1184 1852 LINE",
"1200 1812 OFFCURVE",
"1244 1788 OFFCURVE",
"1300 1788 CURVE SMOOTH",
"1396 1788 OFFCURVE",
"1468 1872 OFFCURVE",
"1468 1972 CURVE SMOOTH",
"1468 2068 OFFCURVE",
"1392 2140 OFFCURVE",
"1288 2140 CURVE SMOOTH",
"1180 2140 OFFCURVE",
"1124 2080 OFFCURVE",
"1092 2000 CURVE",
"1182 1964 LINE",
"1196 2012 OFFCURVE",
"1228 2044 OFFCURVE",
"1276 2044 CURVE SMOOTH",
"1328 2044 OFFCURVE",
"1360 2012 OFFCURVE",
"1360 1964 CURVE SMOOTH",
"1360 1912 OFFCURVE",
"1332 1882 OFFCURVE",
"1284 1882 CURVE SMOOTH",
"1260 1882 OFFCURVE",
"1240 1892 OFFCURVE",
"1228 1912 CURVE",
"1084 1912 LINE",
"1074 1900 LINE",
"1074 1716 LINE",
"1172 1716 LINE"
);
}
);
width = 1224;
},
{
components = (
{
name = A;
},
{
name = circumflex;
transform = "{1, 0, 0, 1, 78, 408}";
},
{
name = hookabovecomb;
transform = "{1, 0, 0, 1, 714, 400}";
}
);
layerId = "612FA678-EA3C-4672-88DD-29ED08259473";
width = 1224;
}
);
unicode = 1EA8;
userData = {
com.typemytype.robofont.guides = (
{
angle = 0;
isGlobal = 0;
magnetic = 5;
x = 0;
y = 770;
},
{
angle = 0;
isGlobal = 0;
magnetic = 5;
x = 0;
y = 858;
},
{
angle = 90;
isGlobal = 0;
magnetic = 5;
x = 388;
y = 0;
},
{
angle = 90;
isGlobal = 0;
magnetic = 5;
x = 368;
y = 0;
},
{
angle = 90;
isGlobal = 0;
magnetic = 5;
x = 364;
y = 0;
},
{
angle = 90;
isGlobal = 0;
magnetic = 5;
x = 448;
y = 0;
}
);
};
},
{
export = 0;
glyphname = uni1EB2;
lastChange = "2019-01-23 17:14:57 +0000";
layers = (
{
components = (
{
name = A;
},
{
name = breve;
transform = "{1, 0, 0, 1, 0, 320}";
},
{
name = cedilla;
transform = "{1, 0, 0, -1, 98, 1756}";
}
);
layerId = "FBAFFF81-1F8B-4B58-9158-C4AF3F48F88C";
width = 1224;
},
{
components = (
{
name = A;
},
{
name = breve;
transform = "{1, 0, 0, 1, 0, 344}";
},
{
name = cedilla;
transform = "{1, 0, 0, -1, 82, 1816}";
}
);
layerId = "50C9B437-FF28-4DF4-B0E6-290519DD406F";
width = 1224;
},
{
components = (
{
name = A;
},
{
name = breve;
transform = "{1, 0, 0, 1, 78, 320}";
}
);
layerId = "6008D70E-46A9-43E5-86AA-D196D19196A4";
paths = (
{
closed = 1;
nodes = (
"884 1892 LINE",
"896 1892 LINE",
"912 1852 OFFCURVE",
"956 1828 OFFCURVE",
"1012 1828 CURVE SMOOTH",
"1108 1828 OFFCURVE",
"1180 1912 OFFCURVE",
"1180 2012 CURVE SMOOTH",
"1180 2108 OFFCURVE",
"1104 2180 OFFCURVE",
"1000 2180 CURVE SMOOTH",
"892 2180 OFFCURVE",
"836 2120 OFFCURVE",
"804 2040 CURVE",
"894 2004 LINE",
"908 2052 OFFCURVE",
"940 2084 OFFCURVE",
"988 2084 CURVE SMOOTH",
"1040 2084 OFFCURVE",
"1072 2052 OFFCURVE",
"1072 2004 CURVE SMOOTH",
"1072 1952 OFFCURVE",
"1044 1922 OFFCURVE",
"996 1922 CURVE SMOOTH",
"972 1922 OFFCURVE",
"952 1932 OFFCURVE",
"940 1952 CURVE",
"796 1952 LINE",
"786 1940 LINE",
"786 1756 LINE",
"884 1756 LINE"
);
}
);
width = 1224;
},
{
components = (
{
name = A;
},
{
name = breve;
transform = "{1, 0, 0, 1, 74, 344}";
},
{
name = hookabovecomb;
transform = "{1, 0, 0, 1, 386, 500}";
}
);
layerId = "612FA678-EA3C-4672-88DD-29ED08259473";
width = 1224;
}
);
unicode = 1EB2;
userData = {
com.typemytype.robofont.guides = (
{
angle = 90;
isGlobal = 0;
magnetic = 5;
x = 267;
y = 0;
},
{
angle = 90;
isGlobal = 0;
magnetic = 5;
x = 345;
y = 0;
}
);
};
},
{
color = 6;
export = 0;
glyphname = uni1EBA;
lastChange = "2019-01-23 17:14:57 +0000";
layers = (
{
components = (
{
name = E;
}
);
layerId = "FBAFFF81-1F8B-4B58-9158-C4AF3F48F88C";
paths = (
{
closed = 1;
nodes = (
"466 1684 LINE",
"466 1696 LINE",
"618 1696 LINE",
"626 1680 OFFCURVE",
"644 1668 OFFCURVE",
"668 1668 CURVE SMOOTH",
"706 1668 OFFCURVE",
"738 1696 OFFCURVE",
"738 1744 CURVE SMOOTH",
"738 1802 OFFCURVE",
"698 1828 OFFCURVE",
"658 1828 CURVE SMOOTH",
"600 1828 OFFCURVE",
"570 1788 OFFCURVE",
"562 1748 CURVE",
"466 1784 LINE",
"486 1864 OFFCURVE",
"546 1924 OFFCURVE",
"660 1924 CURVE SMOOTH",
"764 1924 OFFCURVE",
"846 1852 OFFCURVE",
"846 1742 CURVE SMOOTH",
"846 1650 OFFCURVE",
"786 1572 OFFCURVE",
"694 1572 CURVE SMOOTH",
"638 1572 OFFCURVE",
"602 1596 OFFCURVE",
"586 1636 CURVE",
"574 1636 LINE",
"604 1500 LINE",
"506 1500 LINE"
);
}
);
width = 1224;
},
{
components = (
{
name = E;
},
{
name = cedilla;
transform = "{1, 0, 0, -1, 38, 1500}";
}
);
layerId = "50C9B437-FF28-4DF4-B0E6-290519DD406F";
width = 1224;
},
{
components = (
{
name = E;
}
);
layerId = "6008D70E-46A9-43E5-86AA-D196D19196A4";
paths = (
{
closed = 1;
nodes = (
"780 1636 LINE",
"792 1636 LINE",
"808 1596 OFFCURVE",
"852 1572 OFFCURVE",
"908 1572 CURVE SMOOTH",
"1004 1572 OFFCURVE",
"1076 1656 OFFCURVE",
"1076 1756 CURVE SMOOTH",
"1076 1852 OFFCURVE",
"1000 1924 OFFCURVE",
"896 1924 CURVE SMOOTH",
"788 1924 OFFCURVE",
"732 1864 OFFCURVE",
"700 1784 CURVE",
"790 1748 LINE",
"804 1796 OFFCURVE",
"836 1828 OFFCURVE",
"884 1828 CURVE SMOOTH",
"936 1828 OFFCURVE",
"968 1796 OFFCURVE",
"968 1748 CURVE SMOOTH",
"968 1696 OFFCURVE",
"940 1666 OFFCURVE",
"892 1666 CURVE SMOOTH",
"868 1666 OFFCURVE",
"848 1676 OFFCURVE",
"836 1696 CURVE",
"692 1696 LINE",
"682 1684 LINE",
"682 1500 LINE",
"780 1500 LINE"
);
}
);
width = 1224;
},
{
components = (
{
name = E;
},
{
name = hookabovecomb;
transform = "{1, 0, 0, 1, 264, 184}";
}
);
layerId = "612FA678-EA3C-4672-88DD-29ED08259473";
width = 1224;
}
);
unicode = 1EBA;
userData = {
com.typemytype.robofont.guides = (
{
angle = 0;
isGlobal = 0;
magnetic = 5;
x = 0;
y = 774;
},
{
angle = 90;
isGlobal = 0;
magnetic = 5;
x = 309;
y = 0;
}
);
};
},
